<?xml version="1.0" encoding="UTF-8"?>
<!DOCTYPE svg PUBLIC "-//W3C//DTD SVG 1.1//EN" "http://www.w3.org/Graphics/SVG/1.1/DTD/svg11.dtd">
<svg xmlns="http://www.w3.org/2000/svg" version="1.1" width="512px" height="512px" style="shape-rendering:geometricPrecision; text-rendering:geometricPrecision; image-rendering:optimizeQuality; fill-rule:evenodd; clip-rule:evenodd" xmlns:xlink="http://www.w3.org/1999/xlink">
<g><path style="opacity:0.995" fill="#eec10e" d="M 233.5,-0.5 C 248.167,-0.5 262.833,-0.5 277.5,-0.5C 283.301,0.681766 289.301,1.34843 295.5,1.5C 296.568,2.43448 297.901,2.76781 299.5,2.5C 303.394,3.59344 307.394,4.2601 311.5,4.5C 313.028,5.30921 314.694,5.97588 316.5,6.5C 319.833,7.16667 323.167,7.83333 326.5,8.5C 328.214,9.73838 330.214,10.405 332.5,10.5C 335.699,11.8991 339.032,12.8991 342.5,13.5C 343.78,14.9313 345.447,15.5979 347.5,15.5C 350.318,17.0722 353.318,18.4055 356.5,19.5C 358.05,20.4408 359.716,21.1075 361.5,21.5C 364.378,23.1054 367.378,24.4388 370.5,25.5C 371.287,27.1042 372.62,27.7709 374.5,27.5C 377.24,29.5595 380.24,31.2262 383.5,32.5C 384.436,33.9744 385.77,34.9744 387.5,35.5C 390.167,37.1667 392.833,38.8333 395.5,40.5C 396.605,41.6005 397.938,42.2671 399.5,42.5C 401.86,44.8532 404.527,46.8532 407.5,48.5C 408.795,49.4884 410.128,50.4884 411.5,51.5C 413.55,53.5475 415.883,55.2141 418.5,56.5C 419.5,58.1667 420.833,59.5 422.5,60.5C 424.808,62.4707 427.142,64.4707 429.5,66.5C 430.167,67.8333 431.167,68.8333 432.5,69.5C 434.64,72.0613 436.973,74.3946 439.5,76.5C 440.167,77.8333 441.167,78.8333 442.5,79.5C 444.5,82.1667 446.833,84.5 449.5,86.5C 449.738,88.4044 450.738,89.7377 452.5,90.5C 453.8,93.4323 455.8,95.7656 458.5,97.5C 458.738,99.4044 459.738,100.738 461.5,101.5C 462.786,104.117 464.453,106.45 466.5,108.5C 467.11,110.434 468.11,112.101 469.5,113.5C 470.811,116.135 472.478,118.469 474.5,120.5C 474.75,122.674 475.75,124.341 477.5,125.5C 478.308,128.45 479.642,131.117 481.5,133.5C 481.75,135.674 482.75,137.341 484.5,138.5C 485.326,141.485 486.659,144.151 488.5,146.5C 488.402,148.553 489.069,150.22 490.5,151.5C 491.463,154.744 492.796,157.744 494.5,160.5C 494.402,162.553 495.069,164.22 496.5,165.5C 497.101,168.968 498.101,172.301 499.5,175.5C 499.796,177.403 500.463,179.07 501.5,180.5C 501.926,184.427 502.926,188.093 504.5,191.5C 504.216,193.415 504.549,195.081 505.5,196.5C 506.167,200.167 506.833,203.833 507.5,207.5C 507.5,208.167 507.5,208.833 507.5,209.5C 480.5,236.167 453.5,262.833 426.5,289.5C 426.667,231.499 426.5,173.499 426,115.5C 424.129,107.793 419.296,103.46 411.5,102.5C 405.355,101.51 399.022,101.177 392.5,101.5C 392.5,97.8333 392.5,94.1667 392.5,90.5C 398.183,91.8312 401.849,89.8312 403.5,84.5C 403.124,82.6171 402.124,81.1171 400.5,80C 303.833,79.3333 207.167,79.3333 110.5,80C 106.633,83.2488 106.633,86.5821 110.5,90C 113.482,90.498 116.482,90.6646 119.5,90.5C 119.5,94.1667 119.5,97.8333 119.5,101.5C 111.415,101.099 103.415,101.599 95.5,103C 90.0109,105.468 86.5109,109.635 85,115.5C 84.3333,174.5 84.3333,233.5 85,292.5C 87.0916,300.093 91.925,304.76 99.5,306.5C 102.305,307.319 105.305,307.819 108.5,308C 83.5824,333.419 58.2491,358.253 32.5,382.5C 30.8193,379.797 29.1526,377.131 27.5,374.5C 27.7709,372.62 27.1042,371.287 25.5,370.5C 24.4388,367.378 23.1054,364.378 21.5,361.5C 21.1075,359.716 20.4408,358.05 19.5,356.5C 18.4055,353.318 17.0722,350.318 15.5,347.5C 15.5979,345.447 14.9313,343.78 13.5,342.5C 12.8991,339.032 11.8991,335.699 10.5,332.5C 10.405,330.214 9.73838,328.214 8.5,326.5C 7.83333,323.167 7.16667,319.833 6.5,316.5C 5.97588,314.694 5.30921,313.028 4.5,311.5C 4.2601,307.394 3.59344,303.394 2.5,299.5C 2.76781,297.901 2.43448,296.568 1.5,295.5C 1.34843,289.301 0.681766,283.301 -0.5,277.5C -0.5,262.833 -0.5,248.167 -0.5,233.5C 0.357568,229.327 1.02424,224.993 1.5,220.5C 1.51715,218.435 1.85048,216.435 2.5,214.5C 3.1776,208.767 4.1776,203.101 5.5,197.5C 6.32336,194.539 6.99003,191.539 7.5,188.5C 9.49449,182.182 11.4945,175.849 13.5,169.5C 14.5139,167.426 15.5139,165.426 16.5,163.5C 65.7499,115.751 114.583,67.4176 163,18.5C 163.464,17.9056 163.631,17.2389 163.5,16.5C 165.426,15.5139 167.426,14.5139 169.5,13.5C 175.849,11.4945 182.182,9.49449 188.5,7.5C 191.539,6.99003 194.539,6.32336 197.5,5.5C 203.101,4.1776 208.767,3.1776 214.5,2.5C 216.435,1.85048 218.435,1.51715 220.5,1.5C 224.993,1.02424 229.327,0.357568 233.5,-0.5 Z"/></g>
<g><path style="opacity:0.024" fill="#43443f" d="M 15.5,0.5 C 17.1992,0.339822 18.8659,0.506489 20.5,1C 14.6667,8.16667 8.16667,14.6667 1,20.5C 0.143313,17.4495 0.809979,14.7828 3,12.5C 7.06209,8.26879 11.2288,4.26879 15.5,0.5 Z"/></g>
<g><path style="opacity:0.034" fill="#43443f" d="M 35.5,0.5 C 37.1992,0.339822 38.8659,0.506489 40.5,1C 28,14.8333 14.8333,28 1,40.5C 0.143313,37.4495 0.809979,34.7828 3,32.5C 13.7284,21.604 24.5617,10.9373 35.5,0.5 Z"/></g>
<g><path style="opacity:0.037" fill="#43443f" d="M 55.5,0.5 C 57.1992,0.339822 58.8659,0.506489 60.5,1C 41.3333,21.5 21.5,41.3333 1,60.5C 0.143313,57.4495 0.809979,54.7828 3,52.5C 20.395,34.9377 37.895,17.6044 55.5,0.5 Z"/></g>
<g><path style="opacity:0.039" fill="#43443f" d="M 75.5,0.5 C 77.1992,0.339822 78.8659,0.506489 80.5,1C 54.6667,28.1667 28.1667,54.6667 1,80.5C 0.143313,77.4495 0.809979,74.7828 3,72.5C 27.0616,48.2713 51.2283,24.2713 75.5,0.5 Z"/></g>
<g><path style="opacity:0.04" fill="#43443f" d="M 95.5,0.5 C 97.1992,0.339822 98.8659,0.506489 100.5,1C 68,34.8333 34.8333,68 1,100.5C 0.143313,97.4495 0.809979,94.7828 3,92.5C 33.7283,61.6047 64.5616,30.938 95.5,0.5 Z"/></g>
<g><path style="opacity:0.04" fill="#43443f" d="M 115.5,0.5 C 117.199,0.339822 118.866,0.506489 120.5,1C 81.3333,41.5 41.5,81.3333 1,120.5C 0.143313,117.449 0.809979,114.783 3,112.5C 40.3949,74.9381 77.8949,37.6048 115.5,0.5 Z"/></g>
<g><path style="opacity:0.041" fill="#43443f" d="M 135.5,0.5 C 137.199,0.339822 138.866,0.506489 140.5,1C 94.6667,48.1667 48.1667,94.6667 1,140.5C 0.143313,137.449 0.809979,134.783 3,132.5C 47.0616,88.2715 91.2283,44.2715 135.5,0.5 Z"/></g>
<g><path style="opacity:0.038" fill="#44443f" d="M 134.5,28.5 C 133.833,28.5 133.5,28.8333 133.5,29.5C 128.463,33.0186 123.13,36.0186 117.5,38.5C 129.661,25.5059 142.328,13.0059 155.5,1C 157.167,0.333333 158.833,0.333333 160.5,1C 151.995,10.3382 143.328,19.5049 134.5,28.5 Z"/></g>
<g><path style="opacity:0.032" fill="#44443f" d="M 169.5,13.5 C 167.426,14.5139 165.426,15.5139 163.5,16.5C 161.883,17.038 160.216,17.3713 158.5,17.5C 163.663,11.5039 169.33,6.00393 175.5,1C 177.167,0.333333 178.833,0.333333 180.5,1C 176.997,5.33473 173.33,9.5014 169.5,13.5 Z"/></g>
<g><path style="opacity:0.018" fill="#43443f" d="M 197.5,5.5 C 194.539,6.32336 191.539,6.99003 188.5,7.5C 191.308,2.93222 195.308,0.765549 200.5,1C 199.614,2.61467 198.614,4.11467 197.5,5.5 Z"/></g>
<g><path style="opacity:0.006" fill="#4f4e3e" d="M 220.5,1.5 C 218.435,1.51715 216.435,1.85048 214.5,2.5C 215.134,1.05322 216.301,0.386553 218,0.5C 219.07,0.528041 219.903,0.861374 220.5,1.5 Z"/></g>
<g><path style="opacity:0.009" fill="#43443f" d="M 299.5,2.5 C 297.901,2.76781 296.568,2.43448 295.5,1.5C 296.946,0.387053 298.613,0.220387 300.5,1C 299.944,1.38258 299.611,1.88258 299.5,2.5 Z"/></g>
<g><path style="opacity:0.015" fill="#43443f" d="M 316.5,6.5 C 314.694,5.97588 313.028,5.30921 311.5,4.5C 313.639,1.20979 316.639,0.0431275 320.5,1C 319.335,2.9917 318.002,4.82504 316.5,6.5 Z"/></g>
<g><path style="opacity:0.024" fill="#44443f" d="M 332.5,10.5 C 330.214,10.405 328.214,9.73838 326.5,8.5C 329.335,5.83472 332.335,3.33472 335.5,1C 337.167,0.333333 338.833,0.333333 340.5,1C 337.998,4.33254 335.332,7.49921 332.5,10.5 Z"/></g>
<g><path style="opacity:0.031" fill="#44443f" d="M 347.5,15.5 C 345.447,15.5979 343.78,14.9313 342.5,13.5C 346.331,8.83619 350.664,4.66952 355.5,1C 357.167,0.333333 358.833,0.333333 360.5,1C 356.33,6.00231 351.996,10.8356 347.5,15.5 Z"/></g>
<g><path style="opacity:0.035" fill="#43443f" d="M 361.5,21.5 C 359.716,21.1075 358.05,20.4408 356.5,19.5C 362.329,12.8376 368.663,6.67097 375.5,1C 377.167,0.333333 378.833,0.333333 380.5,1C 374.329,8.00392 367.995,14.8373 361.5,21.5 Z"/></g>
<g><path style="opacity:0.037" fill="#44443f" d="M 374.5,27.5 C 372.62,27.7709 371.287,27.1042 370.5,25.5C 378.328,16.8384 386.662,8.67172 395.5,1C 397.167,0.333333 398.833,0.333333 400.5,1C 392.328,10.3383 383.661,19.1717 374.5,27.5 Z"/></g>
<g><path style="opacity:0.038" fill="#44443f" d="M 387.5,35.5 C 385.77,34.9744 384.436,33.9744 383.5,32.5C 393.661,21.5056 404.328,11.0056 415.5,1C 417.167,0.333333 418.833,0.333333 420.5,1C 409.661,12.6721 398.661,24.1721 387.5,35.5 Z"/></g>
<g><path style="opacity:0.039" fill="#44443f" d="M 399.5,42.5 C 397.938,42.2671 396.605,41.6005 395.5,40.5C 408.327,26.8393 421.661,13.6726 435.5,1C 437.167,0.333333 438.833,0.333333 440.5,1C 427.327,15.3392 413.661,29.1726 399.5,42.5 Z"/></g>
<g><path style="opacity:0.04" fill="#43443f" d="M 411.5,51.5 C 410.128,50.4884 408.795,49.4884 407.5,48.5C 422.994,32.1729 438.994,16.3395 455.5,1C 457.167,0.333333 458.833,0.333333 460.5,1C 444.327,18.0061 427.994,34.8394 411.5,51.5 Z"/></g>
<g><path style="opacity:0.04" fill="#43443f" d="M 422.5,60.5 C 420.833,59.5 419.5,58.1667 418.5,56.5C 437.327,37.8398 456.327,19.3398 475.5,1C 477.167,0.333333 478.833,0.333333 480.5,1C 461.327,21.0063 441.993,40.8396 422.5,60.5 Z"/></g>
<g><path style="opacity:0.041" fill="#43443f" d="M 432.5,69.5 C 431.167,68.8333 430.167,67.8333 429.5,66.5C 450.994,44.1732 472.994,22.3399 495.5,1C 497.167,0.333333 498.833,0.333333 500.5,1C 478.327,24.3399 455.66,47.1732 432.5,69.5 Z"/></g>
<g><path style="opacity:0.041" fill="#43443f" d="M 511.5,5.5 C 511.5,7.16667 511.5,8.83333 511.5,10.5C 488.86,33.8063 465.86,56.8063 442.5,79.5C 441.167,78.8333 440.167,77.8333 439.5,76.5C 462.863,52.1371 486.863,28.4704 511.5,5.5 Z"/></g>
<g><path style="opacity:1" fill="#e6bb11" d="M 163.5,16.5 C 163.631,17.2389 163.464,17.9056 163,18.5C 114.583,67.4176 65.7499,115.751 16.5,163.5C 17.038,161.883 17.3713,160.216 17.5,158.5C 17.5,157.833 17.8333,157.5 18.5,157.5C 65.2161,111.784 111.216,65.4509 156.5,18.5C 157.167,18.1667 157.833,17.8333 158.5,17.5C 160.216,17.3713 161.883,17.038 163.5,16.5 Z"/></g>
<g><path style="opacity:0.99" fill="#efc20e" d="M 156.5,18.5 C 111.216,65.4509 65.2161,111.784 18.5,157.5C 21.5582,149.717 24.8916,142.05 28.5,134.5C 29.1667,134.5 29.5,134.167 29.5,133.5C 33.1778,127.472 36.8445,121.472 40.5,115.5C 61.0269,84.7281 86.6935,59.0614 117.5,38.5C 123.13,36.0186 128.463,33.0186 133.5,29.5C 134.167,29.5 134.5,29.1667 134.5,28.5C 141.838,25.1642 149.171,21.8309 156.5,18.5 Z"/></g>
<g><path style="opacity:0.04" fill="#43443f" d="M 511.5,25.5 C 511.5,27.1667 511.5,28.8333 511.5,30.5C 491.861,50.4732 472.194,70.4732 452.5,90.5C 450.738,89.7377 449.738,88.4044 449.5,86.5C 469.53,65.47 490.196,45.1367 511.5,25.5 Z"/></g>
<g><path style="opacity:0.04" fill="#43443f" d="M 511.5,45.5 C 511.5,47.1667 511.5,48.8333 511.5,50.5C 494.861,67.4732 478.194,84.4732 461.5,101.5C 459.738,100.738 458.738,99.4044 458.5,97.5C 475.53,79.4695 493.197,62.1362 511.5,45.5 Z"/></g>
<g><path style="opacity:0.039" fill="#43443f" d="M 511.5,65.5 C 511.5,67.1667 511.5,68.8333 511.5,70.5C 497.527,84.8066 483.527,99.1399 469.5,113.5C 468.11,112.101 467.11,110.434 466.5,108.5C 481.197,93.802 496.197,79.4686 511.5,65.5 Z"/></g>
<g><path style="opacity:1" fill="#283139" d="M 392.5,90.5 C 391.517,94.2984 391.183,98.2984 391.5,102.5C 398.167,102.5 404.833,102.5 411.5,102.5C 419.296,103.46 424.129,107.793 426,115.5C 426.5,173.499 426.667,231.499 426.5,289.5C 425.806,296.392 422.473,301.558 416.5,305C 400.891,306.437 385.224,306.937 369.5,306.5C 368.502,340.663 368.168,374.996 368.5,409.5C 357.5,409.5 346.5,409.5 335.5,409.5C 335.832,374.996 335.498,340.663 334.5,306.5C 281.5,306.5 228.5,306.5 175.5,306.5C 175.5,315.833 175.5,325.167 175.5,334.5C 174.8,337.2 173.134,338.867 170.5,339.5C 167.852,339.262 166.018,337.928 165,335.5C 164.5,326.173 164.334,316.839 164.5,307.5C 160.702,306.517 156.702,306.183 152.5,306.5C 152.5,322.833 152.5,339.167 152.5,355.5C 150.964,358.092 148.631,359.092 145.5,358.5C 144.206,357.71 143.039,356.71 142,355.5C 141.5,339.503 141.333,323.503 141.5,307.5C 127.677,306.504 113.677,306.171 99.5,306.5C 91.925,304.76 87.0916,300.093 85,292.5C 84.3333,233.5 84.3333,174.5 85,115.5C 86.5109,109.635 90.0109,105.468 95.5,103C 103.415,101.599 111.415,101.099 119.5,101.5C 119.5,97.8333 119.5,94.1667 119.5,90.5C 116.482,90.6646 113.482,90.498 110.5,90C 106.633,86.5821 106.633,83.2488 110.5,80C 207.167,79.3333 303.833,79.3333 400.5,80C 402.124,81.1171 403.124,82.6171 403.5,84.5C 401.849,89.8312 398.183,91.8312 392.5,90.5 Z"/></g>
<g><path style="opacity:0.038" fill="#43443f" d="M 511.5,85.5 C 511.5,87.1667 511.5,88.8333 511.5,90.5C 500.194,102.14 488.861,113.807 477.5,125.5C 475.75,124.341 474.75,122.674 474.5,120.5C 486.531,108.468 498.864,96.801 511.5,85.5 Z"/></g>
<g><path style="opacity:1" fill="#eec10e" d="M 130.5,90.5 C 141.833,90.5 153.167,90.5 164.5,90.5C 164.5,94.1667 164.5,97.8333 164.5,101.5C 153.167,101.5 141.833,101.5 130.5,101.5C 130.5,97.8333 130.5,94.1667 130.5,90.5 Z"/></g>
<g><path style="opacity:1" fill="#eec10e" d="M 176.5,90.5 C 200.833,90.5 225.167,90.5 249.5,90.5C 249.5,94.1667 249.5,97.8333 249.5,101.5C 225.167,101.5 200.833,101.5 176.5,101.5C 176.5,97.8333 176.5,94.1667 176.5,90.5 Z"/></g>
<g><path style="opacity:1" fill="#eec20e" d="M 334.5,90.5 C 334.5,94.1667 334.5,97.8333 334.5,101.5C 310.167,101.5 285.833,101.5 261.5,101.5C 261.5,97.8333 261.5,94.1667 261.5,90.5C 285.833,90.5 310.167,90.5 334.5,90.5 Z"/></g>
<g><path style="opacity:1" fill="#eec20e" d="M 346.5,90.5 C 357.833,90.5 369.167,90.5 380.5,90.5C 380.5,94.1667 380.5,97.8333 380.5,101.5C 369.167,101.5 357.833,101.5 346.5,101.5C 346.5,97.8333 346.5,94.1667 346.5,90.5 Z"/></g>
<g><path style="opacity:1" fill="#7a6d26" d="M 176.5,90.5 C 176.5,94.1667 176.5,97.8333 176.5,101.5C 200.833,101.5 225.167,101.5 249.5,101.5C 225.006,102.498 200.339,102.831 175.5,102.5C 175.183,98.2984 175.517,94.2984 176.5,90.5 Z"/></g>
<g><path style="opacity:1" fill="#7a6d26" d="M 334.5,90.5 C 335.483,94.2984 335.817,98.2984 335.5,102.5C 310.661,102.831 285.994,102.498 261.5,101.5C 285.833,101.5 310.167,101.5 334.5,101.5C 334.5,97.8333 334.5,94.1667 334.5,90.5 Z"/></g>
<g><path style="opacity:1" fill="#786b27" d="M 392.5,90.5 C 392.5,94.1667 392.5,97.8333 392.5,101.5C 399.022,101.177 405.355,101.51 411.5,102.5C 404.833,102.5 398.167,102.5 391.5,102.5C 391.183,98.2984 391.517,94.2984 392.5,90.5 Z"/></g>
<g><path style="opacity:0.037" fill="#44443f" d="M 511.5,105.5 C 511.5,107.167 511.5,108.833 511.5,110.5C 502.528,119.807 493.528,129.14 484.5,138.5C 482.75,137.341 481.75,135.674 481.5,133.5C 491.199,123.8 501.199,114.466 511.5,105.5 Z"/></g>
<g><path style="opacity:1" fill="#f4f4f4" d="M 242.5,113.5 C 244.167,113.5 245.833,113.5 247.5,113.5C 197.5,164.167 147.167,214.5 96.5,264.5C 96.5,262.833 96.5,261.167 96.5,259.5C 145.5,211.167 194.167,162.5 242.5,113.5 Z"/></g>
<g><path style="opacity:1" fill="#fefefe" d="M 247.5,113.5 C 249.414,116.684 250.08,120.351 249.5,124.5C 240.012,123.299 237.012,126.966 240.5,135.5C 192.833,183.833 144.833,231.833 96.5,279.5C 96.5,274.5 96.5,269.5 96.5,264.5C 147.167,214.5 197.5,164.167 247.5,113.5 Z"/></g>
<g><path style="opacity:1" fill="#fefefe" d="M 302.5,113.5 C 242.5,173.833 182.5,234.167 122.5,294.5C 117.5,294.5 112.5,294.5 107.5,294.5C 159.833,241.833 212.167,189.167 264.5,136.5C 270.765,136.637 273.265,133.637 272,127.5C 269.016,124.9 265.516,123.9 261.5,124.5C 261.5,120.833 261.5,117.167 261.5,113.5C 275.167,113.5 288.833,113.5 302.5,113.5 Z"/></g>
<g><path style="opacity:1" fill="#f4f4f4" d="M 302.5,113.5 C 304.167,113.5 305.833,113.5 307.5,113.5C 247.5,173.833 187.5,234.167 127.5,294.5C 125.833,294.5 124.167,294.5 122.5,294.5C 182.5,234.167 242.5,173.833 302.5,113.5 Z"/></g>
<g><path style="opacity:1" fill="#fefefe" d="M 307.5,113.5 C 312.5,113.5 317.5,113.5 322.5,113.5C 262.5,173.833 202.5,234.167 142.5,294.5C 137.5,294.5 132.5,294.5 127.5,294.5C 187.5,234.167 247.5,173.833 307.5,113.5 Z"/></g>
<g><path style="opacity:1" fill="#f4f4f4" d="M 322.5,113.5 C 324.167,113.5 325.833,113.5 327.5,113.5C 267.5,173.833 207.5,234.167 147.5,294.5C 145.833,294.5 144.167,294.5 142.5,294.5C 202.5,234.167 262.5,173.833 322.5,113.5 Z"/></g>
<g><path style="opacity:1" fill="#fefefe" d="M 327.5,113.5 C 330.167,113.5 332.833,113.5 335.5,113.5C 335.5,117.167 335.5,120.833 335.5,124.5C 332.022,124.184 328.688,124.684 325.5,126C 323.984,127.897 323.317,130.064 323.5,132.5C 269.833,186.5 216.167,240.5 162.5,294.5C 157.5,294.5 152.5,294.5 147.5,294.5C 207.5,234.167 267.5,173.833 327.5,113.5 Z"/></g>
<g><path style="opacity:1" fill="#fefefe" d="M 382.5,113.5 C 322.5,173.833 262.5,234.167 202.5,294.5C 197.489,294.666 192.489,294.499 187.5,294C 239.833,241.667 292.167,189.333 344.5,137C 347.695,136.819 350.695,136.319 353.5,135.5C 357.254,134.172 358.421,131.506 357,127.5C 354.103,124.769 350.603,123.769 346.5,124.5C 346.5,120.833 346.5,117.167 346.5,113.5C 358.5,113.5 370.5,113.5 382.5,113.5 Z"/></g>
<g><path style="opacity:1" fill="#f4f4f4" d="M 382.5,113.5 C 384.167,113.5 385.833,113.5 387.5,113.5C 327.5,173.833 267.5,234.167 207.5,294.5C 205.833,294.5 204.167,294.5 202.5,294.5C 262.5,234.167 322.5,173.833 382.5,113.5 Z"/></g>
<g><path style="opacity:1" fill="#fefefe" d="M 387.5,113.5 C 392.5,113.5 397.5,113.5 402.5,113.5C 342.5,173.833 282.5,234.167 222.5,294.5C 217.5,294.5 212.5,294.5 207.5,294.5C 267.5,234.167 327.5,173.833 387.5,113.5 Z"/></g>
<g><path style="opacity:1" fill="#f4f4f4" d="M 402.5,113.5 C 404.167,113.5 405.833,113.5 407.5,113.5C 347.5,173.833 287.5,234.167 227.5,294.5C 225.833,294.5 224.167,294.5 222.5,294.5C 282.5,234.167 342.5,173.833 402.5,113.5 Z"/></g>
<g><path style="opacity:1" fill="#fefefe" d="M 407.5,113.5 C 413.869,113.229 416.203,116.229 414.5,122.5C 356.833,179.5 299.5,236.833 242.5,294.5C 237.5,294.5 232.5,294.5 227.5,294.5C 287.5,234.167 347.5,173.833 407.5,113.5 Z"/></g>
<g><path style="opacity:0.038" fill="#45443f" d="M 40.5,115.5 C 36.8445,121.472 33.1778,127.472 29.5,133.5C 28.8333,133.5 28.5,133.833 28.5,134.5C 19.5049,143.328 10.3382,151.995 1,160.5C 0.333333,158.833 0.333333,157.167 1,155.5C 13.6726,141.661 26.8393,128.327 40.5,115.5 Z"/></g>
<g><path style="opacity:1" fill="#f4f4f4" d="M 414.5,122.5 C 414.5,124.167 414.5,125.833 414.5,127.5C 358.5,182.833 302.833,238.5 247.5,294.5C 245.833,294.5 244.167,294.5 242.5,294.5C 299.5,236.833 356.833,179.5 414.5,122.5 Z"/></g>
<g><path style="opacity:0.036" fill="#43443f" d="M 511.5,125.5 C 511.5,127.167 511.5,128.833 511.5,130.5C 504.86,137.806 497.86,144.806 490.5,151.5C 489.069,150.22 488.402,148.553 488.5,146.5C 495.867,139.131 503.534,132.131 511.5,125.5 Z"/></g>
<g><path style="opacity:1" fill="#fefefe" d="M 414.5,127.5 C 414.5,132.5 414.5,137.5 414.5,142.5C 363.5,192.833 312.833,243.5 262.5,294.5C 257.5,294.5 252.5,294.5 247.5,294.5C 302.833,238.5 358.5,182.833 414.5,127.5 Z"/></g>
<g><path style="opacity:1" fill="#fcfcfc" d="M 242.5,113.5 C 194.167,162.5 145.5,211.167 96.5,259.5C 96.3333,211.499 96.5,163.499 97,115.5C 97.7504,114.874 98.5838,114.374 99.5,114C 121.164,113.5 142.831,113.333 164.5,113.5C 164.5,117.167 164.5,120.833 164.5,124.5C 156.679,122.833 153.179,125.833 154,133.5C 154.833,134.333 155.667,135.167 156.5,136C 165.5,136.667 174.5,136.667 183.5,136C 187.835,133.336 188.501,130.003 185.5,126C 182.312,124.684 178.978,124.184 175.5,124.5C 175.5,120.833 175.5,117.167 175.5,113.5C 197.833,113.5 220.167,113.5 242.5,113.5 Z"/></g>
<g><path style="opacity:1" fill="#f4f4f4" d="M 323.5,132.5 C 324.833,133.167 325.833,134.167 326.5,135.5C 273.167,188.167 220.167,241.167 167.5,294.5C 165.833,294.5 164.167,294.5 162.5,294.5C 216.167,240.5 269.833,186.5 323.5,132.5 Z"/></g>
<g><path style="opacity:1" fill="#f4f4f4" d="M 240.5,135.5 C 241.833,135.833 243.167,136.167 244.5,136.5C 195.5,186.167 146.167,235.5 96.5,284.5C 96.5,282.833 96.5,281.167 96.5,279.5C 144.833,231.833 192.833,183.833 240.5,135.5 Z"/></g>
<g><path style="opacity:1" fill="#fefefe" d="M 326.5,135.5 C 326.833,135.5 327.167,135.5 327.5,135.5C 331.312,136.324 335.312,136.824 339.5,137C 287.167,189.333 234.833,241.667 182.5,294C 177.511,294.499 172.511,294.666 167.5,294.5C 220.167,241.167 273.167,188.167 326.5,135.5 Z"/></g>
<g><path style="opacity:1" fill="#fefefe" d="M 244.5,136.5 C 249.5,136.5 254.5,136.5 259.5,136.5C 207.167,189.167 154.833,241.833 102.5,294.5C 101.5,294.5 100.5,294.5 99.5,294.5C 98.5416,294.047 97.7083,293.381 97,292.5C 96.5026,289.854 96.3359,287.187 96.5,284.5C 146.167,235.5 195.5,186.167 244.5,136.5 Z"/></g>
<g><path style="opacity:1" fill="#f4f4f4" d="M 259.5,136.5 C 261.167,136.5 262.833,136.5 264.5,136.5C 212.167,189.167 159.833,241.833 107.5,294.5C 105.833,294.5 104.167,294.5 102.5,294.5C 154.833,241.833 207.167,189.167 259.5,136.5 Z"/></g>
<g><path style="opacity:1" fill="#eaebeb" d="M 327.5,135.5 C 336.167,135.5 344.833,135.5 353.5,135.5C 350.695,136.319 347.695,136.819 344.5,137C 292.167,189.333 239.833,241.667 187.5,294C 192.489,294.499 197.489,294.666 202.5,294.5C 204.167,294.5 205.833,294.5 207.5,294.5C 212.5,294.5 217.5,294.5 222.5,294.5C 224.167,294.5 225.833,294.5 227.5,294.5C 232.5,294.5 237.5,294.5 242.5,294.5C 244.167,294.5 245.833,294.5 247.5,294.5C 252.5,294.5 257.5,294.5 262.5,294.5C 264.167,294.5 265.833,294.5 267.5,294.5C 315.5,294.5 363.5,294.5 411.5,294.5C 307.5,295.833 203.5,295.833 99.5,294.5C 100.5,294.5 101.5,294.5 102.5,294.5C 104.167,294.5 105.833,294.5 107.5,294.5C 112.5,294.5 117.5,294.5 122.5,294.5C 124.167,294.5 125.833,294.5 127.5,294.5C 132.5,294.5 137.5,294.5 142.5,294.5C 144.167,294.5 145.833,294.5 147.5,294.5C 152.5,294.5 157.5,294.5 162.5,294.5C 164.167,294.5 165.833,294.5 167.5,294.5C 172.511,294.666 177.511,294.499 182.5,294C 234.833,241.667 287.167,189.333 339.5,137C 335.312,136.824 331.312,136.324 327.5,135.5 Z"/></g>
<g><path style="opacity:1" fill="#f4f4f4" d="M 414.5,142.5 C 414.5,144.167 414.5,145.833 414.5,147.5C 365.167,196.167 316.167,245.167 267.5,294.5C 265.833,294.5 264.167,294.5 262.5,294.5C 312.833,243.5 363.5,192.833 414.5,142.5 Z"/></g>
<g><path style="opacity:0.033" fill="#43443f" d="M 511.5,145.5 C 511.5,147.167 511.5,148.833 511.5,150.5C 506.86,155.806 501.86,160.806 496.5,165.5C 495.069,164.22 494.402,162.553 494.5,160.5C 499.87,155.128 505.537,150.128 511.5,145.5 Z"/></g>
<g><path style="opacity:0.032" fill="#44443f" d="M 17.5,158.5 C 17.3713,160.216 17.038,161.883 16.5,163.5C 15.5139,165.426 14.5139,167.426 13.5,169.5C 9.5014,173.33 5.33473,176.997 1,180.5C 0.333333,178.833 0.333333,177.167 1,175.5C 6.00393,169.33 11.5039,163.663 17.5,158.5 Z"/></g>
<g><path style="opacity:0.028" fill="#43443f" d="M 511.5,165.5 C 511.5,167.167 511.5,168.833 511.5,170.5C 508.527,174.14 505.194,177.473 501.5,180.5C 500.463,179.07 499.796,177.403 499.5,175.5C 503.208,171.79 507.208,168.457 511.5,165.5 Z"/></g>
<g><path style="opacity:1" fill="#fcfcfc" d="M 414.5,147.5 C 414.667,195.834 414.5,244.168 414,292.5C 413.292,293.381 412.458,294.047 411.5,294.5C 363.5,294.5 315.5,294.5 267.5,294.5C 316.167,245.167 365.167,196.167 414.5,147.5 Z"/></g>
<g><path style="opacity:0.019" fill="#45443f" d="M 511.5,185.5 C 511.5,187.167 511.5,188.833 511.5,190.5C 509.861,192.806 507.861,194.806 505.5,196.5C 504.549,195.081 504.216,193.415 504.5,191.5C 506.219,188.781 508.553,186.781 511.5,185.5 Z"/></g>
<g><path style="opacity:0.018" fill="#43443f" d="M 7.5,188.5 C 6.99003,191.539 6.32336,194.539 5.5,197.5C 4.11467,198.614 2.61467,199.614 1,200.5C 0.765549,195.308 2.93222,191.308 7.5,188.5 Z"/></g>
<g><path style="opacity:0.012" fill="#43443f" d="M 511.5,205.5 C 511.5,207.167 511.5,208.833 511.5,210.5C 510.272,211.306 509.272,212.306 508.5,213.5C 508.567,212.041 508.234,210.708 507.5,209.5C 507.5,208.833 507.5,208.167 507.5,207.5C 508.833,206.833 510.167,206.167 511.5,205.5 Z"/></g>
<g><path style="opacity:0.997" fill="#eec10e" d="M 507.5,209.5 C 508.234,210.708 508.567,212.041 508.5,213.5C 508.855,217.79 509.855,221.79 511.5,225.5C 511.5,227.167 511.5,228.833 511.5,230.5C 510.167,231.5 510.167,232.5 511.5,233.5C 511.5,248.167 511.5,262.833 511.5,277.5C 510.527,279.948 510.194,282.615 510.5,285.5C 509.85,287.435 509.517,289.435 509.5,291.5C 508.627,297.198 507.627,302.864 506.5,308.5C 505.677,311.461 505.01,314.461 504.5,317.5C 502.833,323.5 501.167,329.5 499.5,335.5C 497.774,339.009 496.441,342.675 495.5,346.5C 492.503,353.829 489.503,361.162 486.5,368.5C 485.833,368.5 485.5,368.833 485.5,369.5C 482.642,373.883 480.308,378.55 478.5,383.5C 466.344,402.654 452.678,420.654 437.5,437.5C 420.654,452.678 402.654,466.344 383.5,478.5C 378.55,480.308 373.883,482.642 369.5,485.5C 368.833,485.5 368.5,485.833 368.5,486.5C 361.162,489.503 353.829,492.503 346.5,495.5C 342.766,496.682 339.1,498.016 335.5,499.5C 329.5,501.167 323.5,502.833 317.5,504.5C 314.461,505.01 311.461,505.677 308.5,506.5C 302.864,507.627 297.198,508.627 291.5,509.5C 289.435,509.517 287.435,509.85 285.5,510.5C 282.615,510.194 279.948,510.527 277.5,511.5C 262.833,511.5 248.167,511.5 233.5,511.5C 232.5,510.167 231.5,510.167 230.5,511.5C 228.833,511.5 227.167,511.5 225.5,511.5C 221.79,509.855 217.79,508.855 213.5,508.5C 211.5,508.167 209.5,507.833 207.5,507.5C 203.833,506.833 200.167,506.167 196.5,505.5C 195.081,504.549 193.415,504.216 191.5,504.5C 188.093,502.926 184.427,501.926 180.5,501.5C 179.07,500.463 177.403,499.796 175.5,499.5C 172.301,498.101 168.968,497.101 165.5,496.5C 164.22,495.069 162.553,494.402 160.5,494.5C 157.744,492.796 154.744,491.463 151.5,490.5C 150.22,489.069 148.553,488.402 146.5,488.5C 144.151,486.659 141.485,485.326 138.5,484.5C 137.341,482.75 135.674,481.75 133.5,481.5C 131.117,479.642 128.45,478.308 125.5,477.5C 124.341,475.75 122.674,474.75 120.5,474.5C 118.371,472.05 115.704,470.383 112.5,469.5C 111.738,467.738 110.404,466.738 108.5,466.5C 106.45,464.453 104.117,462.786 101.5,461.5C 100.738,459.738 99.4044,458.738 97.5,458.5C 95.7656,455.8 93.4323,453.8 90.5,452.5C 89.7377,450.738 88.4044,449.738 86.5,449.5C 84.5,446.833 82.1667,444.5 79.5,442.5C 78.8333,441.167 77.8333,440.167 76.5,439.5C 74.3946,436.973 72.0613,434.64 69.5,432.5C 68.8333,431.167 67.8333,430.167 66.5,429.5C 64.4707,427.142 62.4707,424.808 60.5,422.5C 59.5,420.833 58.1667,419.5 56.5,418.5C 55.2141,415.883 53.5475,413.55 51.5,411.5C 50.4884,410.128 49.4884,408.795 48.5,407.5C 46.8333,404.833 45.1667,402.167 43.5,399.5C 72.9147,368.584 102.915,338.084 133.5,308C 136.146,307.503 138.813,307.336 141.5,307.5C 141.333,323.503 141.5,339.503 142,355.5C 143.039,356.71 144.206,357.71 145.5,358.5C 147.273,361.488 147.94,364.821 147.5,368.5C 134.256,377.663 128.589,390.33 130.5,406.5C 117.031,408.161 103.364,409.161 89.5,409.5C 86.4752,410.033 85.1419,411.867 85.5,415C 85.0904,417.575 86.0904,419.242 88.5,420C 199.833,420.667 311.167,420.667 422.5,420C 424.91,419.242 425.91,417.575 425.5,415C 425.646,412.966 424.98,411.299 423.5,410C 405.503,409.5 387.503,409.333 369.5,409.5C 369.5,375.167 369.5,340.833 369.5,306.5C 385.224,306.937 400.891,306.437 416.5,305C 422.473,301.558 425.806,296.392 426.5,289.5C 453.5,262.833 480.5,236.167 507.5,209.5 Z"/></g>
<g><path style="opacity:0.006" fill="#4f4e3e" d="M 2.5,214.5 C 1.85048,216.435 1.51715,218.435 1.5,220.5C 0.861374,219.903 0.528041,219.07 0.5,218C 0.386553,216.301 1.05322,215.134 2.5,214.5 Z"/></g>
<g><path style="opacity:0.009" fill="#43443f" d="M 510.5,285.5 C 510.833,285.5 511.167,285.5 511.5,285.5C 511.5,287.167 511.5,288.833 511.5,290.5C 510.833,290.833 510.167,291.167 509.5,291.5C 509.517,289.435 509.85,287.435 510.5,285.5 Z"/></g>
<g><path style="opacity:0.009" fill="#43443f" d="M 1.5,295.5 C 2.43448,296.568 2.76781,297.901 2.5,299.5C 1.88258,299.611 1.38258,299.944 1,300.5C 0.220387,298.613 0.387053,296.946 1.5,295.5 Z"/></g>
<g><path style="opacity:0.017" fill="#46453f" d="M 511.5,305.5 C 511.5,307.167 511.5,308.833 511.5,310.5C 509.527,313.139 507.194,315.473 504.5,317.5C 505.01,314.461 505.677,311.461 506.5,308.5C 508.001,307.248 509.668,306.248 511.5,305.5 Z"/></g>
<g><path style="opacity:1" fill="#c1a017" d="M 334.5,306.5 C 334.5,306.833 334.5,307.167 334.5,307.5C 281.833,307.5 229.167,307.5 176.5,307.5C 176.827,316.682 176.493,325.682 175.5,334.5C 175.5,325.167 175.5,315.833 175.5,306.5C 228.5,306.5 281.5,306.5 334.5,306.5 Z"/></g>
<g><path style="opacity:0.996" fill="#f0c30d" d="M 40.5,395.5 C 38.8333,392.833 37.1667,390.167 35.5,387.5C 35.5,387.167 35.5,386.833 35.5,386.5C 61.2984,360.201 87.2984,334.035 113.5,308C 118.5,307.333 123.5,307.333 128.5,308C 99.2987,337.368 69.9653,366.535 40.5,395.5 Z"/></g>
<g><path style="opacity:1" fill="#e5ba11" d="M 99.5,306.5 C 113.677,306.171 127.677,306.504 141.5,307.5C 138.813,307.336 136.146,307.503 133.5,308C 102.915,338.084 72.9147,368.584 43.5,399.5C 43.1667,399.5 42.8333,399.5 42.5,399.5C 42.2671,397.938 41.6005,396.605 40.5,395.5C 69.9653,366.535 99.2987,337.368 128.5,308C 123.5,307.333 118.5,307.333 113.5,308C 87.2984,334.035 61.2984,360.201 35.5,386.5C 34.7281,385.306 33.7281,384.306 32.5,383.5C 32.5,383.167 32.5,382.833 32.5,382.5C 58.2491,358.253 83.5824,333.419 108.5,308C 105.305,307.819 102.305,307.319 99.5,306.5 Z"/></g>
<g><path style="opacity:1" fill="#5e747a" d="M 164.5,307.5 C 160.833,307.5 157.167,307.5 153.5,307.5C 153.83,323.675 153.496,339.675 152.5,355.5C 152.5,339.167 152.5,322.833 152.5,306.5C 156.702,306.183 160.702,306.517 164.5,307.5 Z"/></g>
<g><path style="opacity:0.015" fill="#43443f" d="M 4.5,311.5 C 5.30921,313.028 5.97588,314.694 6.5,316.5C 4.82504,318.002 2.9917,319.335 1,320.5C 0.0431275,316.639 1.20979,313.639 4.5,311.5 Z"/></g>
<g><path style="opacity:0.031" fill="#45453f" d="M 511.5,325.5 C 511.5,327.167 511.5,328.833 511.5,330.5C 506.527,336.14 501.194,341.473 495.5,346.5C 496.441,342.675 497.774,339.009 499.5,335.5C 503.208,331.79 507.208,328.457 511.5,325.5 Z"/></g>
<g><path style="opacity:0.024" fill="#44443f" d="M 8.5,326.5 C 9.73838,328.214 10.405,330.214 10.5,332.5C 7.49921,335.332 4.33254,337.998 1,340.5C 0.333333,338.833 0.333333,337.167 1,335.5C 3.33472,332.335 5.83472,329.335 8.5,326.5 Z"/></g>
<g><path style="opacity:1" fill="#a8cacd" d="M 164.5,307.5 C 164.334,316.839 164.5,326.173 165,335.5C 166.018,337.928 167.852,339.262 170.5,339.5C 170.5,342.5 170.5,345.5 170.5,348.5C 164.572,352.928 159.906,358.428 156.5,365C 153.479,366.18 150.479,367.346 147.5,368.5C 147.94,364.821 147.273,361.488 145.5,358.5C 148.631,359.092 150.964,358.092 152.5,355.5C 153.496,339.675 153.83,323.675 153.5,307.5C 157.167,307.5 160.833,307.5 164.5,307.5 Z"/></g>
<g><path style="opacity:0.031" fill="#44443f" d="M 13.5,342.5 C 14.9313,343.78 15.5979,345.447 15.5,347.5C 10.8356,351.996 6.00231,356.33 1,360.5C 0.143313,357.449 0.809979,354.783 3,352.5C 6.36913,348.963 9.86913,345.629 13.5,342.5 Z"/></g>
<g><path style="opacity:1" fill="#a9cdd0" d="M 346.5,306.5 C 350.167,306.5 353.833,306.5 357.5,306.5C 357.5,340.5 357.5,374.5 357.5,408.5C 353.833,408.5 350.167,408.5 346.5,408.5C 346.5,374.5 346.5,340.5 346.5,306.5 Z"/></g>
<g><path style="opacity:0.038" fill="#44443f" d="M 511.5,345.5 C 511.5,347.167 511.5,348.833 511.5,350.5C 500.86,361.806 489.86,372.806 478.5,383.5C 480.308,378.55 482.642,373.883 485.5,369.5C 486.167,369.5 486.5,369.167 486.5,368.5C 494.533,360.465 502.867,352.798 511.5,345.5 Z"/></g>
<g><path style="opacity:0.035" fill="#43443f" d="M 19.5,356.5 C 20.4408,358.05 21.1075,359.716 21.5,361.5C 14.8373,367.995 8.00392,374.329 1,380.5C 0.143313,377.449 0.809979,374.783 3,372.5C 8.36864,366.964 13.8686,361.63 19.5,356.5 Z"/></g>
<g><path style="opacity:0.041" fill="#43443f" d="M 511.5,365.5 C 511.5,367.167 511.5,368.833 511.5,370.5C 464.833,417.833 417.833,464.833 370.5,511.5C 368.833,511.5 367.167,511.5 365.5,511.5C 365.987,510.527 366.487,509.527 367,508.5C 390.702,484.965 414.202,461.299 437.5,437.5C 461.299,414.202 484.965,390.702 508.5,367C 509.527,366.487 510.527,365.987 511.5,365.5 Z"/></g>
<g><path style="opacity:1" fill="#a38a1c" d="M 334.5,306.5 C 335.498,340.663 335.832,374.996 335.5,409.5C 324.833,409.5 314.167,409.5 303.5,409.5C 303.328,408.508 303.662,407.842 304.5,407.5C 314.319,408.494 324.319,408.827 334.5,408.5C 334.5,374.833 334.5,341.167 334.5,307.5C 334.5,307.167 334.5,306.833 334.5,306.5 Z"/></g>
<g><path style="opacity:1" fill="#edc10e" d="M 334.5,307.5 C 334.5,341.167 334.5,374.833 334.5,408.5C 324.319,408.827 314.319,408.494 304.5,407.5C 304.5,404.833 304.5,402.167 304.5,399.5C 311.939,398.856 316.439,394.856 318,387.5C 318.333,384.833 318.667,382.167 319,379.5C 325.704,370.835 324.871,363.002 316.5,356C 314.167,355 311.833,354 309.5,353C 304.216,344.593 296.882,342.259 287.5,346C 285.126,348.039 283.126,350.372 281.5,353C 272.729,354.599 268.062,359.765 267.5,368.5C 271.045,376.431 273.545,384.764 275,393.5C 279.017,398.424 284.184,400.424 290.5,399.5C 291.965,400.406 292.965,401.739 293.5,403.5C 292.143,405.186 290.81,406.852 289.5,408.5C 282.167,408.5 274.833,408.5 267.5,408.5C 267.795,406.265 267.461,404.265 266.5,402.5C 265.684,395.53 263.184,389.197 259,383.5C 260.776,364.871 252.609,353.371 234.5,349C 229.958,348.254 225.458,348.421 221,349.5C 204.285,337.977 187.452,337.643 170.5,348.5C 170.5,345.5 170.5,342.5 170.5,339.5C 173.134,338.867 174.8,337.2 175.5,334.5C 176.493,325.682 176.827,316.682 176.5,307.5C 229.167,307.5 281.833,307.5 334.5,307.5 Z"/></g>
<g><path style="opacity:1" fill="#412a1e" d="M 304.5,399.5 C 301.276,399.797 298.276,399.13 295.5,397.5C 293.664,398.028 291.997,398.694 290.5,399.5C 284.184,400.424 279.017,398.424 275,393.5C 273.545,384.764 271.045,376.431 267.5,368.5C 268.062,359.765 272.729,354.599 281.5,353C 283.126,350.372 285.126,348.039 287.5,346C 296.882,342.259 304.216,344.593 309.5,353C 311.833,354 314.167,355 316.5,356C 324.871,363.002 325.704,370.835 319,379.5C 318.667,382.167 318.333,384.833 318,387.5C 316.439,394.856 311.939,398.856 304.5,399.5 Z"/></g>
<g><path style="opacity:1" fill="#d85242" d="M 294.5,355.5 C 296.39,355.297 297.89,355.963 299,357.5C 299.267,364.813 303.1,367.646 310.5,366C 312.211,367.133 312.711,368.633 312,370.5C 305.328,373.562 303.828,378.229 307.5,384.5C 305.168,389.581 302.501,389.748 299.5,385C 297.167,384.333 294.833,384.333 292.5,385C 290.117,388.811 287.283,389.311 284,386.5C 284.538,382.872 284.871,379.205 285,375.5C 283.172,373.919 281.172,372.585 279,371.5C 278.46,366.053 280.793,364.386 286,366.5C 287.225,366.138 288.391,365.638 289.5,365C 290.742,361.552 292.408,358.385 294.5,355.5 Z"/></g>
<g><path style="opacity:1" fill="#452a1f" d="M 292.5,369.5 C 300.053,368.882 302.386,372.049 299.5,379C 292.752,381.909 289.586,379.743 290,372.5C 291.045,371.627 291.878,370.627 292.5,369.5 Z"/></g>
<g><path style="opacity:0.037" fill="#44443f" d="M 25.5,370.5 C 27.1042,371.287 27.7709,372.62 27.5,374.5C 19.1717,383.661 10.3383,392.328 1,400.5C 0.143313,397.449 0.809979,394.783 3,392.5C 10.3684,384.964 17.8684,377.631 25.5,370.5 Z"/></g>
<g><path style="opacity:0.038" fill="#44443f" d="M 32.5,383.5 C 33.7281,384.306 34.7281,385.306 35.5,386.5C 35.5,386.833 35.5,387.167 35.5,387.5C 24.1721,398.661 12.6721,409.661 1,420.5C 0.143313,417.449 0.809979,414.783 3,412.5C 12.7016,402.631 22.5349,392.964 32.5,383.5 Z"/></g>
<g><path style="opacity:1" fill="#2e4216" d="M 266.5,402.5 C 266.5,404.833 266.5,407.167 266.5,409.5C 221.5,409.5 176.5,409.5 131.5,409.5C 131.737,408.209 131.404,407.209 130.5,406.5C 128.589,390.33 134.256,377.663 147.5,368.5C 150.479,367.346 153.479,366.18 156.5,365C 159.906,358.428 164.572,352.928 170.5,348.5C 187.452,337.643 204.285,337.977 221,349.5C 225.458,348.421 229.958,348.254 234.5,349C 252.609,353.371 260.776,364.871 259,383.5C 263.184,389.197 265.684,395.53 266.5,402.5 Z"/></g>
<g><path style="opacity:1" fill="#74cc3a" d="M 186.5,352.5 C 191.844,352.334 197.177,352.501 202.5,353C 208.809,355.17 214.476,358.337 219.5,362.5C 231.452,356.984 240.618,359.984 247,371.5C 247.328,376.525 247.328,381.525 247,386.5C 252.906,392.645 255.739,399.979 255.5,408.5C 218.161,408.833 180.827,408.5 143.5,407.5C 139.664,394.985 143.331,385.151 154.5,378C 158.116,376.513 161.783,375.18 165.5,374C 169.352,363.649 176.352,356.482 186.5,352.5 Z"/></g>
<g><path style="opacity:1" fill="#2c4116" d="M 189.5,365.5 C 196.04,364.837 201.54,366.837 206,371.5C 207.457,374.366 207.79,377.366 207,380.5C 205.874,381.944 204.374,382.61 202.5,382.5C 199.318,381.099 196.318,379.599 193.5,378C 192.426,378.739 191.759,379.739 191.5,381C 193.487,385.68 191.987,388.513 187,389.5C 185.105,389.385 183.438,388.718 182,387.5C 178.106,377.785 180.606,370.451 189.5,365.5 Z"/></g>
<g><path style="opacity:0.04" fill="#43443f" d="M 511.5,385.5 C 511.5,387.167 511.5,388.833 511.5,390.5C 471.5,431.167 431.167,471.5 390.5,511.5C 388.833,511.5 387.167,511.5 385.5,511.5C 425.937,469.563 466.937,428.063 508.5,387C 509.527,386.487 510.527,385.987 511.5,385.5 Z"/></g>
<g><path style="opacity:0.039" fill="#44443f" d="M 40.5,395.5 C 41.6005,396.605 42.2671,397.938 42.5,399.5C 29.1726,413.661 15.3392,427.327 1,440.5C 0.143313,437.449 0.809979,434.783 3,432.5C 15.3682,419.965 27.8682,407.631 40.5,395.5 Z"/></g>
<g><path style="opacity:1" fill="#2c3e16" d="M 304.5,399.5 C 304.5,402.167 304.5,404.833 304.5,407.5C 303.662,407.842 303.328,408.508 303.5,409.5C 298.833,409.5 294.167,409.5 289.5,409.5C 289.5,409.167 289.5,408.833 289.5,408.5C 290.81,406.852 292.143,405.186 293.5,403.5C 292.965,401.739 291.965,400.406 290.5,399.5C 291.997,398.694 293.664,398.028 295.5,397.5C 298.276,399.13 301.276,399.797 304.5,399.5 Z"/></g>
<g><path style="opacity:0.04" fill="#43443f" d="M 511.5,405.5 C 511.5,407.167 511.5,408.833 511.5,410.5C 478.167,444.5 444.5,478.167 410.5,511.5C 408.833,511.5 407.167,511.5 405.5,511.5C 439.27,476.23 473.603,441.396 508.5,407C 509.527,406.487 510.527,405.987 511.5,405.5 Z"/></g>
<g><path style="opacity:0.04" fill="#43443f" d="M 48.5,407.5 C 49.4884,408.795 50.4884,410.128 51.5,411.5C 34.8394,427.994 18.0061,444.327 1,460.5C 0.143313,457.449 0.809979,454.783 3,452.5C 18.0348,437.298 33.2015,422.298 48.5,407.5 Z"/></g>
<g><path style="opacity:1" fill="#9c8216" d="M 130.5,406.5 C 131.404,407.209 131.737,408.209 131.5,409.5C 117.5,409.5 103.5,409.5 89.5,409.5C 103.364,409.161 117.031,408.161 130.5,406.5 Z"/></g>
<g><path style="opacity:1" fill="#9a8116" d="M 266.5,402.5 C 267.461,404.265 267.795,406.265 267.5,408.5C 274.833,408.5 282.167,408.5 289.5,408.5C 289.5,408.833 289.5,409.167 289.5,409.5C 281.833,409.5 274.167,409.5 266.5,409.5C 266.5,407.167 266.5,404.833 266.5,402.5 Z"/></g>
<g><path style="opacity:1" fill="#232322" d="M 369.5,306.5 C 369.5,340.833 369.5,375.167 369.5,409.5C 387.503,409.333 405.503,409.5 423.5,410C 424.98,411.299 425.646,412.966 425.5,415C 425.91,417.575 424.91,419.242 422.5,420C 311.167,420.667 199.833,420.667 88.5,420C 86.0904,419.242 85.0904,417.575 85.5,415C 85.1419,411.867 86.4752,410.033 89.5,409.5C 103.5,409.5 117.5,409.5 131.5,409.5C 176.5,409.5 221.5,409.5 266.5,409.5C 274.167,409.5 281.833,409.5 289.5,409.5C 294.167,409.5 298.833,409.5 303.5,409.5C 314.167,409.5 324.833,409.5 335.5,409.5C 346.5,409.5 357.5,409.5 368.5,409.5C 368.168,374.996 368.502,340.663 369.5,306.5 Z"/></g>
<g><path style="opacity:0.04" fill="#43443f" d="M 56.5,418.5 C 58.1667,419.5 59.5,420.833 60.5,422.5C 40.8396,441.993 21.0063,461.327 1,480.5C 0.143313,477.449 0.809979,474.783 3,472.5C 21.0351,454.632 38.8684,436.632 56.5,418.5 Z"/></g>
<g><path style="opacity:0.039" fill="#43443f" d="M 511.5,425.5 C 511.5,427.167 511.5,428.833 511.5,430.5C 484.833,457.833 457.833,484.833 430.5,511.5C 428.833,511.5 427.167,511.5 425.5,511.5C 452.602,482.897 480.269,454.73 508.5,427C 509.527,426.487 510.527,425.987 511.5,425.5 Z"/></g>
<g><path style="opacity:0.041" fill="#43443f" d="M 66.5,429.5 C 67.8333,430.167 68.8333,431.167 69.5,432.5C 47.1732,455.66 24.3399,478.327 1,500.5C 0.143313,497.449 0.809979,494.783 3,492.5C 24.0347,471.298 45.2014,450.298 66.5,429.5 Z"/></g>
<g><path style="opacity:0.041" fill="#43443f" d="M 76.5,439.5 C 77.8333,440.167 78.8333,441.167 79.5,442.5C 56.8063,465.86 33.8063,488.86 10.5,511.5C 8.83333,511.5 7.16667,511.5 5.5,511.5C 28.4704,486.863 52.1371,462.863 76.5,439.5 Z"/></g>
<g><path style="opacity:0.038" fill="#43443f" d="M 511.5,445.5 C 511.5,447.167 511.5,448.833 511.5,450.5C 491.5,471.167 471.167,491.5 450.5,511.5C 448.833,511.5 447.167,511.5 445.5,511.5C 465.935,489.564 486.935,468.064 508.5,447C 509.527,446.487 510.527,445.987 511.5,445.5 Z"/></g>
<g><path style="opacity:0.04" fill="#43443f" d="M 86.5,449.5 C 88.4044,449.738 89.7377,450.738 90.5,452.5C 70.4732,472.194 50.4732,491.861 30.5,511.5C 28.8333,511.5 27.1667,511.5 25.5,511.5C 45.1367,490.196 65.47,469.53 86.5,449.5 Z"/></g>
<g><path style="opacity:0.04" fill="#43443f" d="M 97.5,458.5 C 99.4044,458.738 100.738,459.738 101.5,461.5C 84.4732,478.194 67.4732,494.861 50.5,511.5C 48.8333,511.5 47.1667,511.5 45.5,511.5C 62.1362,493.197 79.4695,475.53 97.5,458.5 Z"/></g>
<g><path style="opacity:0.035" fill="#43443f" d="M 511.5,465.5 C 511.5,467.167 511.5,468.833 511.5,470.5C 498.167,484.5 484.5,498.167 470.5,511.5C 468.833,511.5 467.167,511.5 465.5,511.5C 479.266,496.232 493.6,481.398 508.5,467C 509.527,466.487 510.527,465.987 511.5,465.5 Z"/></g>
<g><path style="opacity:0.039" fill="#43443f" d="M 108.5,466.5 C 110.404,466.738 111.738,467.738 112.5,469.5C 98.8063,483.86 84.8063,497.86 70.5,511.5C 68.8333,511.5 67.1667,511.5 65.5,511.5C 79.4686,496.197 93.802,481.197 108.5,466.5 Z"/></g>
<g><path style="opacity:0.038" fill="#43443f" d="M 120.5,474.5 C 122.674,474.75 124.341,475.75 125.5,477.5C 113.807,488.861 102.14,500.194 90.5,511.5C 88.8333,511.5 87.1667,511.5 85.5,511.5C 96.801,498.864 108.468,486.531 120.5,474.5 Z"/></g>
<g><path style="opacity:0.038" fill="#44443f" d="M 383.5,478.5 C 372.806,489.86 361.806,500.86 350.5,511.5C 348.833,511.5 347.167,511.5 345.5,511.5C 352.798,502.867 360.465,494.533 368.5,486.5C 369.167,486.5 369.5,486.167 369.5,485.5C 373.883,482.642 378.55,480.308 383.5,478.5 Z"/></g>
<g><path style="opacity:0.037" fill="#44443f" d="M 133.5,481.5 C 135.674,481.75 137.341,482.75 138.5,484.5C 129.14,493.528 119.807,502.528 110.5,511.5C 108.833,511.5 107.167,511.5 105.5,511.5C 114.466,501.199 123.8,491.199 133.5,481.5 Z"/></g>
<g><path style="opacity:0.029" fill="#43443f" d="M 511.5,485.5 C 511.5,487.167 511.5,488.833 511.5,490.5C 504.833,497.833 497.833,504.833 490.5,511.5C 488.833,511.5 487.167,511.5 485.5,511.5C 493.167,501.833 501.833,493.167 511.5,485.5 Z"/></g>
<g><path style="opacity:0.036" fill="#43443f" d="M 146.5,488.5 C 148.553,488.402 150.22,489.069 151.5,490.5C 144.806,497.86 137.806,504.86 130.5,511.5C 128.833,511.5 127.167,511.5 125.5,511.5C 132.131,503.534 139.131,495.867 146.5,488.5 Z"/></g>
<g><path style="opacity:0.033" fill="#43443f" d="M 160.5,494.5 C 162.553,494.402 164.22,495.069 165.5,496.5C 160.806,501.86 155.806,506.86 150.5,511.5C 148.833,511.5 147.167,511.5 145.5,511.5C 150.128,505.537 155.128,499.87 160.5,494.5 Z"/></g>
<g><path style="opacity:0.031" fill="#44443f" d="M 346.5,495.5 C 341.473,501.194 336.14,506.527 330.5,511.5C 328.833,511.5 327.167,511.5 325.5,511.5C 328.457,507.208 331.79,503.208 335.5,499.5C 339.1,498.016 342.766,496.682 346.5,495.5 Z"/></g>
<g><path style="opacity:0.028" fill="#43443f" d="M 175.5,499.5 C 177.403,499.796 179.07,500.463 180.5,501.5C 177.473,505.194 174.14,508.527 170.5,511.5C 168.833,511.5 167.167,511.5 165.5,511.5C 168.457,507.208 171.79,503.208 175.5,499.5 Z"/></g>
<g><path style="opacity:0.019" fill="#45443f" d="M 191.5,504.5 C 193.415,504.216 195.081,504.549 196.5,505.5C 194.806,507.861 192.806,509.861 190.5,511.5C 188.833,511.5 187.167,511.5 185.5,511.5C 186.781,508.553 188.781,506.219 191.5,504.5 Z"/></g>
<g><path style="opacity:0.017" fill="#46453f" d="M 317.5,504.5 C 315.473,507.194 313.139,509.527 310.5,511.5C 308.833,511.5 307.167,511.5 305.5,511.5C 306.248,509.668 307.248,508.001 308.5,506.5C 311.461,505.677 314.461,505.01 317.5,504.5 Z"/></g>
<g><path style="opacity:0.009" fill="#43443f" d="M 511.5,505.5 C 511.5,507.167 511.5,508.833 511.5,510.5C 510.833,510.5 510.5,510.833 510.5,511.5C 508.833,511.5 507.167,511.5 505.5,511.5C 506.5,508.5 508.5,506.5 511.5,505.5 Z"/></g>
<g><path style="opacity:0.012" fill="#43443f" d="M 207.5,507.5 C 209.5,507.833 211.5,508.167 213.5,508.5C 212.306,509.272 211.306,510.272 210.5,511.5C 208.833,511.5 207.167,511.5 205.5,511.5C 206.167,510.167 206.833,508.833 207.5,507.5 Z"/></g>
<g><path style="opacity:0.009" fill="#43443f" d="M 291.5,509.5 C 291.167,510.167 290.833,510.833 290.5,511.5C 288.833,511.5 287.167,511.5 285.5,511.5C 285.5,511.167 285.5,510.833 285.5,510.5C 287.435,509.85 289.435,509.517 291.5,509.5 Z"/></g>
</svg>
