<?xml version="1.0" encoding="UTF-8"?>
<!DOCTYPE svg PUBLIC "-//W3C//DTD SVG 1.1//EN" "http://www.w3.org/Graphics/SVG/1.1/DTD/svg11.dtd">
<svg xmlns="http://www.w3.org/2000/svg" version="1.1" width="512px" height="512px" style="shape-rendering:geometricPrecision; text-rendering:geometricPrecision; image-rendering:optimizeQuality; fill-rule:evenodd; clip-rule:evenodd" xmlns:xlink="http://www.w3.org/1999/xlink">
<g><path style="opacity:0.021" fill="#43443f" d="M -0.5,-0.5 C 0.166667,-0.5 0.833333,-0.5 1.5,-0.5C 1.16667,0.5 0.5,1.16667 -0.5,1.5C -0.5,0.833333 -0.5,0.166667 -0.5,-0.5 Z"/></g>
<g><path style="opacity:0.022" fill="#43443f" d="M 16.5,-0.5 C 18.1667,-0.5 19.8333,-0.5 21.5,-0.5C 14.5,7.16667 7.16667,14.5 -0.5,21.5C -0.5,19.8333 -0.5,18.1667 -0.5,16.5C 5.5,11.1667 11.1667,5.5 16.5,-0.5 Z"/></g>
<g><path style="opacity:0.022" fill="#43443f" d="M 36.5,-0.5 C 38.1667,-0.5 39.8333,-0.5 41.5,-0.5C 27.8333,13.8333 13.8333,27.8333 -0.5,41.5C -0.5,39.8333 -0.5,38.1667 -0.5,36.5C 12.1667,24.5 24.5,12.1667 36.5,-0.5 Z"/></g>
<g><path style="opacity:0.022" fill="#43443f" d="M 56.5,-0.5 C 58.1667,-0.5 59.8333,-0.5 61.5,-0.5C 41.1667,20.5 20.5,41.1667 -0.5,61.5C -0.5,59.8333 -0.5,58.1667 -0.5,56.5C 18.8333,37.8333 37.8333,18.8333 56.5,-0.5 Z"/></g>
<g><path style="opacity:0.022" fill="#43443f" d="M 76.5,-0.5 C 78.1667,-0.5 79.8333,-0.5 81.5,-0.5C 54.5,27.1667 27.1667,54.5 -0.5,81.5C -0.5,79.8333 -0.5,78.1667 -0.5,76.5C 25.5,51.1667 51.1667,25.5 76.5,-0.5 Z"/></g>
<g><path style="opacity:0.022" fill="#43443f" d="M 96.5,-0.5 C 98.1667,-0.5 99.8333,-0.5 101.5,-0.5C 67.8333,33.8333 33.8333,67.8333 -0.5,101.5C -0.5,99.8333 -0.5,98.1667 -0.5,96.5C 32.1667,64.5 64.5,32.1667 96.5,-0.5 Z"/></g>
<g><path style="opacity:0.022" fill="#43443f" d="M 116.5,-0.5 C 118.167,-0.5 119.833,-0.5 121.5,-0.5C 81.1667,40.5 40.5,81.1667 -0.5,121.5C -0.5,119.833 -0.5,118.167 -0.5,116.5C 38.8333,77.8333 77.8333,38.8333 116.5,-0.5 Z"/></g>
<g><path style="opacity:0.022" fill="#43443f" d="M 136.5,-0.5 C 138.167,-0.5 139.833,-0.5 141.5,-0.5C 94.5,47.1667 47.1667,94.5 -0.5,141.5C -0.5,139.833 -0.5,138.167 -0.5,136.5C 45.5,91.1667 91.1667,45.5 136.5,-0.5 Z"/></g>
<g><path style="opacity:0.022" fill="#43443f" d="M 156.5,-0.5 C 158.167,-0.5 159.833,-0.5 161.5,-0.5C 107.833,53.8333 53.8333,107.833 -0.5,161.5C -0.5,159.833 -0.5,158.167 -0.5,156.5C 52.1667,104.5 104.5,52.1667 156.5,-0.5 Z"/></g>
<g><path style="opacity:0.022" fill="#43443f" d="M 176.5,-0.5 C 178.167,-0.5 179.833,-0.5 181.5,-0.5C 121.167,60.5 60.5,121.167 -0.5,181.5C -0.5,179.833 -0.5,178.167 -0.5,176.5C 58.8333,117.833 117.833,58.8333 176.5,-0.5 Z"/></g>
<g><path style="opacity:0.022" fill="#43443f" d="M 196.5,-0.5 C 198.167,-0.5 199.833,-0.5 201.5,-0.5C 134.5,67.1667 67.1667,134.5 -0.5,201.5C -0.5,199.833 -0.5,198.167 -0.5,196.5C 65.5,131.167 131.167,65.5 196.5,-0.5 Z"/></g>
<g><path style="opacity:0.022" fill="#43443f" d="M 216.5,-0.5 C 218.167,-0.5 219.833,-0.5 221.5,-0.5C 147.833,73.8333 73.8333,147.833 -0.5,221.5C -0.5,219.833 -0.5,218.167 -0.5,216.5C 72.1667,144.5 144.5,72.1667 216.5,-0.5 Z"/></g>
<g><path style="opacity:0.022" fill="#43443f" d="M 236.5,-0.5 C 238.167,-0.5 239.833,-0.5 241.5,-0.5C 161.167,80.5 80.5,161.167 -0.5,241.5C -0.5,239.833 -0.5,238.167 -0.5,236.5C 78.8333,157.833 157.833,78.8333 236.5,-0.5 Z"/></g>
<g><path style="opacity:0.022" fill="#43443f" d="M 256.5,-0.5 C 258.167,-0.5 259.833,-0.5 261.5,-0.5C 174.5,87.1667 87.1667,174.5 -0.5,261.5C -0.5,259.833 -0.5,258.167 -0.5,256.5C 85.5,171.167 171.167,85.5 256.5,-0.5 Z"/></g>
<g><path style="opacity:0.022" fill="#43433f" d="M 276.5,-0.5 C 278.167,-0.5 279.833,-0.5 281.5,-0.5C 219.167,62.1667 156.833,124.833 94.5,187.5C 93.8333,187.5 93.5,187.833 93.5,188.5C 92.8333,188.5 92.5,188.833 92.5,189.5C 88.1493,192.194 83.8159,194.86 79.5,197.5C 145.167,131.5 210.833,65.5 276.5,-0.5 Z"/></g>
<g><path style="opacity:0.022" fill="#43433f" d="M 296.5,-0.5 C 298.167,-0.5 299.833,-0.5 301.5,-0.5C 243.833,57.5 186.167,115.5 128.5,173.5C 127.833,173.5 127.5,173.833 127.5,174.5C 125.167,175.167 122.833,175.833 120.5,176.5C 179.167,117.5 237.833,58.5 296.5,-0.5 Z"/></g>
<g><path style="opacity:0.022" fill="#43443f" d="M 316.5,-0.5 C 318.167,-0.5 319.833,-0.5 321.5,-0.5C 265.5,55.8333 209.5,112.167 153.5,168.5C 151.5,168.833 149.5,169.167 147.5,169.5C 203.833,112.833 260.167,56.1667 316.5,-0.5 Z"/></g>
<g><path style="opacity:0.022" fill="#43443f" d="M 336.5,-0.5 C 338.167,-0.5 339.833,-0.5 341.5,-0.5C 286.167,55.1667 230.833,110.833 175.5,166.5C 173.5,166.833 171.5,167.167 169.5,167.5C 225.167,111.5 280.833,55.5 336.5,-0.5 Z"/></g>
<g><path style="opacity:0.022" fill="#43433f" d="M 356.5,-0.5 C 358.167,-0.5 359.833,-0.5 361.5,-0.5C 318.833,42.5 276.167,85.5 233.5,128.5C 232.833,128.5 232.5,128.833 232.5,129.5C 231.833,129.5 231.5,129.833 231.5,130.5C 230.833,130.5 230.5,130.833 230.5,131.5C 222.167,137.833 214.833,145.167 208.5,153.5C 207.833,153.5 207.5,153.833 207.5,154.5C 206.833,154.5 206.5,154.833 206.5,155.5C 202.167,159.167 198.167,163.167 194.5,167.5C 192.833,167.5 191.167,167.5 189.5,167.5C 245.167,111.5 300.833,55.5 356.5,-0.5 Z"/></g>
<g><path style="opacity:0.022" fill="#43433f" d="M 376.5,-0.5 C 378.167,-0.5 379.833,-0.5 381.5,-0.5C 345.833,35.5 310.167,71.5 274.5,107.5C 273.833,107.5 273.5,107.833 273.5,108.5C 271.254,109.455 268.921,110.122 266.5,110.5C 303.167,73.5 339.833,36.5 376.5,-0.5 Z"/></g>
<g><path style="opacity:0.022" fill="#43443f" d="M 396.5,-0.5 C 398.167,-0.5 399.833,-0.5 401.5,-0.5C 367.833,33.5 334.167,67.5 300.5,101.5C 298.5,101.833 296.5,102.167 294.5,102.5C 328.5,68.1667 362.5,33.8333 396.5,-0.5 Z"/></g>
<g><path style="opacity:0.022" fill="#43443f" d="M 416.5,-0.5 C 418.167,-0.5 419.833,-0.5 421.5,-0.5C 388.833,32.5 356.167,65.5 323.5,98.5C 321.565,99.1495 319.565,99.4828 317.5,99.5C 350.5,66.1667 383.5,32.8333 416.5,-0.5 Z"/></g>
<g><path style="opacity:0.022" fill="#43443f" d="M 436.5,-0.5 C 438.167,-0.5 439.833,-0.5 441.5,-0.5C 408.833,32.8333 375.833,65.8333 342.5,98.5C 341.167,98.5 339.833,98.5 338.5,98.5C 371.167,65.5 403.833,32.5 436.5,-0.5 Z"/></g>
<g><path style="opacity:0.022" fill="#43443f" d="M 456.5,-0.5 C 458.167,-0.5 459.833,-0.5 461.5,-0.5C 428.167,33.1667 394.833,66.8333 361.5,100.5C 359.833,100.5 358.167,100.5 356.5,100.5C 389.833,66.8333 423.167,33.1667 456.5,-0.5 Z"/></g>
<g><path style="opacity:0.022" fill="#43433f" d="M 476.5,-0.5 C 478.167,-0.5 479.833,-0.5 481.5,-0.5C 446.833,34.5 412.167,69.5 377.5,104.5C 376.167,104.167 374.833,103.833 373.5,103.5C 407.833,68.8333 442.167,34.1667 476.5,-0.5 Z"/></g>
<g><path style="opacity:0.022" fill="#43443f" d="M 496.5,-0.5 C 498.167,-0.5 499.833,-0.5 501.5,-0.5C 465.5,36.1667 429.167,72.5 392.5,108.5C 391.209,108.737 390.209,108.404 389.5,107.5C 425.167,71.5 460.833,35.5 496.5,-0.5 Z"/></g>
<g><path style="opacity:0.022" fill="#43443f" d="M 511.5,5.5 C 511.5,7.16667 511.5,8.83333 511.5,10.5C 476.5,45.1667 441.5,79.8333 406.5,114.5C 405.391,114.443 404.391,114.11 403.5,113.5C 439.167,77.1667 475.167,41.1667 511.5,5.5 Z"/></g>
<g><path style="opacity:0.022" fill="#43443f" d="M 511.5,25.5 C 511.5,27.1667 511.5,28.8333 511.5,30.5C 480.833,60.8333 450.167,91.1667 419.5,121.5C 418.29,121.068 417.29,120.401 416.5,119.5C 448.167,88.1667 479.833,56.8333 511.5,25.5 Z"/></g>
<g><path style="opacity:0.022" fill="#43443f" d="M 511.5,45.5 C 511.5,47.1667 511.5,48.8333 511.5,50.5C 484.833,76.8333 458.167,103.167 431.5,129.5C 430.29,129.068 429.29,128.401 428.5,127.5C 456.167,100.167 483.833,72.8333 511.5,45.5 Z"/></g>
<g><path style="opacity:0.022" fill="#43443f" d="M 511.5,65.5 C 511.5,67.1667 511.5,68.8333 511.5,70.5C 488.5,93.1667 465.5,115.833 442.5,138.5C 441.5,138.167 440.833,137.5 440.5,136.5C 463.833,112.5 487.5,88.8333 511.5,65.5 Z"/></g>
<g><path style="opacity:0.022" fill="#43433f" d="M 511.5,85.5 C 511.5,87.1667 511.5,88.8333 511.5,90.5C 491.5,109.833 471.833,129.5 452.5,149.5C 451.094,149.027 450.427,148.027 450.5,146.5C 470.5,125.833 490.833,105.5 511.5,85.5 Z"/></g>
<g><path style="opacity:0.939" fill="#030302" d="M 323.5,98.5 C 328.5,98.5 333.5,98.5 338.5,98.5C 339.833,98.5 341.167,98.5 342.5,98.5C 347.029,99.2735 351.695,99.9401 356.5,100.5C 358.167,100.5 359.833,100.5 361.5,100.5C 365.385,101.49 369.385,102.49 373.5,103.5C 374.833,103.833 376.167,104.167 377.5,104.5C 381.501,105.5 385.501,106.5 389.5,107.5C 390.209,108.404 391.209,108.737 392.5,108.5C 396.01,110.344 399.677,112.011 403.5,113.5C 404.391,114.11 405.391,114.443 406.5,114.5C 409.515,116.674 412.849,118.341 416.5,119.5C 417.29,120.401 418.29,121.068 419.5,121.5C 422.477,123.467 425.477,125.467 428.5,127.5C 429.29,128.401 430.29,129.068 431.5,129.5C 434.19,132.185 437.19,134.518 440.5,136.5C 440.833,137.5 441.5,138.167 442.5,138.5C 444.833,141.5 447.5,144.167 450.5,146.5C 450.427,148.027 451.094,149.027 452.5,149.5C 454.5,152.167 456.5,154.833 458.5,157.5C 458.932,158.71 459.599,159.71 460.5,160.5C 462.515,163.869 464.515,167.202 466.5,170.5C 466.557,171.609 466.89,172.609 467.5,173.5C 468.835,177.172 470.168,180.838 471.5,184.5C 471.833,185.833 472.167,187.167 472.5,188.5C 473.681,192.743 474.348,197.076 474.5,201.5C 474.433,202.959 474.766,204.292 475.5,205.5C 475.528,210.862 475.194,216.195 474.5,221.5C 474.167,223.5 473.833,225.5 473.5,227.5C 471.901,234.628 469.901,241.628 467.5,248.5C 466.833,248.5 466.5,248.833 466.5,249.5C 464.308,252.55 462.642,255.883 461.5,259.5C 457.166,264.671 453,270.005 449,275.5C 440.297,283.871 431.297,291.871 422,299.5C 422.14,304.031 422.973,308.365 424.5,312.5C 424.5,313.833 424.5,315.167 424.5,316.5C 425.5,320.5 426.5,324.5 427.5,328.5C 427.232,330.099 427.566,331.432 428.5,332.5C 429.198,335.896 429.198,339.229 428.5,342.5C 427.672,343.415 426.672,344.081 425.5,344.5C 423.271,343.423 420.937,342.756 418.5,342.5C 417.791,341.596 416.791,341.263 415.5,341.5C 412.203,339.399 408.537,338.065 404.5,337.5C 403.486,336.326 402.153,335.66 400.5,335.5C 396.838,334.168 393.172,332.835 389.5,331.5C 388.292,330.766 386.959,330.433 385.5,330.5C 382.203,328.399 378.537,327.065 374.5,326.5C 373.71,325.599 372.71,324.932 371.5,324.5C 367.89,323.297 364.223,322.297 360.5,321.5C 359.081,320.549 357.415,320.216 355.5,320.5C 350.195,321.194 344.862,321.528 339.5,321.5C 337.833,321.5 336.167,321.5 334.5,321.5C 329.5,321.5 324.5,321.5 319.5,321.5C 317.833,321.5 316.167,321.5 314.5,321.5C 313.577,320.697 312.577,320.53 311.5,321C 310.014,323.475 308.681,325.975 307.5,328.5C 306.833,328.5 306.5,328.833 306.5,329.5C 297.833,342.833 286.833,353.833 273.5,362.5C 272.833,362.5 272.5,362.833 272.5,363.5C 271.833,363.5 271.5,363.833 271.5,364.5C 261.805,370.014 251.805,375.014 241.5,379.5C 239.035,379.767 236.701,380.434 234.5,381.5C 227.997,383.793 221.33,385.459 214.5,386.5C 212.565,387.15 210.565,387.483 208.5,387.5C 202.915,388.726 197.248,389.393 191.5,389.5C 189.833,389.5 188.167,389.5 186.5,389.5C 181.5,390.833 176.5,390.833 171.5,389.5C 169.833,389.5 168.167,389.5 166.5,389.5C 161.819,389.331 157.152,388.998 152.5,388.5C 149.673,389.108 147.007,390.108 144.5,391.5C 136.34,394.108 128.34,397.108 120.5,400.5C 118.035,400.767 115.701,401.434 113.5,402.5C 112.833,402.5 112.5,402.833 112.5,403.5C 104.69,405.77 97.0233,408.437 89.5,411.5C 87.5648,412.15 85.5648,412.483 83.5,412.5C 82.1852,411.333 81.5186,409.833 81.5,408C 82.1063,404.801 82.7729,401.634 83.5,398.5C 84.1495,396.565 84.4828,394.565 84.5,392.5C 85.8333,386.167 87.1667,379.833 88.5,373.5C 88.8333,371.5 89.1667,369.5 89.5,367.5C 87.5229,364.532 84.8562,362.198 81.5,360.5C 80.7095,359.599 79.7095,358.932 78.5,358.5C 75.8587,356.196 73.192,353.862 70.5,351.5C 69.7095,350.599 68.7095,349.932 67.5,349.5C 65.1377,346.808 62.8044,344.141 60.5,341.5C 59.8333,340.167 58.8333,339.167 57.5,338.5C 55.8532,335.527 53.8532,332.86 51.5,330.5C 51.573,328.973 50.9063,327.973 49.5,327.5C 47.8627,324.183 46.1961,320.85 44.5,317.5C 44.3404,315.847 43.6737,314.514 42.5,313.5C 41.2967,309.89 40.2967,306.223 39.5,302.5C 39.0113,301.005 38.3446,299.671 37.5,298.5C 36.9198,294.19 36.5865,289.857 36.5,285.5C 36.1667,284.167 35.8333,282.833 35.5,281.5C 35.6865,276.155 36.0199,270.822 36.5,265.5C 37.3414,263.621 37.6747,261.621 37.5,259.5C 39.7671,251.699 42.4337,244.032 45.5,236.5C 46.1667,236.5 46.5,236.167 46.5,235.5C 49.5106,230.805 52.5106,226.138 55.5,221.5C 62.5,212.5 70.5,204.5 79.5,197.5C 83.8159,194.86 88.1493,192.194 92.5,189.5C 93.1667,189.5 93.5,189.167 93.5,188.5C 94.1667,188.5 94.5,188.167 94.5,187.5C 102.94,183.279 111.607,179.613 120.5,176.5C 122.833,175.833 125.167,175.167 127.5,174.5C 128.167,174.5 128.5,174.167 128.5,173.5C 134.833,172.167 141.167,170.833 147.5,169.5C 149.5,169.167 151.5,168.833 153.5,168.5C 158.805,167.806 164.138,167.472 169.5,167.5C 171.5,167.167 173.5,166.833 175.5,166.5C 180.203,166.437 184.87,166.771 189.5,167.5C 191.167,167.5 192.833,167.5 194.5,167.5C 196.199,167.66 197.866,167.494 199.5,167C 202.086,163.264 204.419,159.43 206.5,155.5C 207.167,155.5 207.5,155.167 207.5,154.5C 208.167,154.5 208.5,154.167 208.5,153.5C 214.833,145.167 222.167,137.833 230.5,131.5C 231.167,131.5 231.5,131.167 231.5,130.5C 232.167,130.5 232.5,130.167 232.5,129.5C 233.167,129.5 233.5,129.167 233.5,128.5C 243.993,121.75 254.993,115.75 266.5,110.5C 268.921,110.122 271.254,109.455 273.5,108.5C 274.167,108.5 274.5,108.167 274.5,107.5C 281.171,105.832 287.837,104.165 294.5,102.5C 296.5,102.167 298.5,101.833 300.5,101.5C 306.085,100.274 311.752,99.6073 317.5,99.5C 319.565,99.4828 321.565,99.1495 323.5,98.5 Z M 314.5,321.5 C 312.5,324.167 310.167,326.5 307.5,328.5C 308.681,325.975 310.014,323.475 311.5,321C 312.577,320.53 313.577,320.697 314.5,321.5 Z"/></g>
<g><path style="opacity:0.022" fill="#43433f" d="M 511.5,105.5 C 511.5,107.167 511.5,108.833 511.5,110.5C 494.5,127.167 477.5,143.833 460.5,160.5C 459.599,159.71 458.932,158.71 458.5,157.5C 476.167,140.167 493.833,122.833 511.5,105.5 Z"/></g>
<g><path style="opacity:1" fill="#1cbcbe" d="M 313.5,106.5 C 351.067,103.202 386.067,111.035 418.5,130C 444.144,146.12 460.31,168.953 467,198.5C 469.432,232.795 457.265,260.628 430.5,282C 424.913,285.71 419.413,289.543 414,293.5C 415.187,306.61 417.354,319.61 420.5,332.5C 420.167,333.167 419.833,333.833 419.5,334.5C 400.205,327.235 380.872,320.068 361.5,313C 329.564,317.391 298.564,313.724 268.5,302C 238.658,290.491 216.825,270.325 203,241.5C 190.181,202.617 199.014,169.45 229.5,142C 254.093,122.081 282.093,110.248 313.5,106.5 Z"/></g>
<g><path style="opacity:1" fill="#020606" d="M 309.5,124.5 C 331.577,122.914 353.244,125.081 374.5,131C 376.494,135.137 375.16,136.97 370.5,136.5C 340.562,129.512 310.729,129.846 281,137.5C 276.625,135.194 276.458,132.694 280.5,130C 290.22,127.645 299.886,125.811 309.5,124.5 Z"/></g>
<g><path style="opacity:0.022" fill="#43443f" d="M 511.5,125.5 C 511.5,127.167 511.5,128.833 511.5,130.5C 496.833,144.833 482.167,159.167 467.5,173.5C 466.89,172.609 466.557,171.609 466.5,170.5C 481.167,155.167 496.167,140.167 511.5,125.5 Z"/></g>
<g><path style="opacity:0.022" fill="#43443f" d="M 511.5,145.5 C 511.5,147.167 511.5,148.833 511.5,150.5C 498.5,163.167 485.5,175.833 472.5,188.5C 472.167,187.167 471.833,185.833 471.5,184.5C 484.833,171.5 498.167,158.5 511.5,145.5 Z"/></g>
<g><path style="opacity:1" fill="#030909" d="M 411.5,148.5 C 413.989,148.298 416.323,148.798 418.5,150C 427.921,156.75 436.754,164.25 445,172.5C 448.977,177.592 447.81,180.092 441.5,180C 432.566,169.732 422.4,160.899 411,153.5C 410.36,151.735 410.527,150.068 411.5,148.5 Z"/></g>
<g><path style="opacity:0.022" fill="#43433f" d="M 511.5,165.5 C 511.5,167.167 511.5,168.833 511.5,170.5C 499.5,182.167 487.5,193.833 475.5,205.5C 474.766,204.292 474.433,202.959 474.5,201.5C 486.833,189.5 499.167,177.5 511.5,165.5 Z"/></g>
<g><path style="opacity:1" fill="#fc6e3c" d="M 162.5,174.5 C 173.873,174.207 185.206,174.707 196.5,176C 185.84,203.629 187.674,230.463 202,256.5C 219.997,284.11 244.83,302.943 276.5,313C 285.535,315.508 294.535,317.841 303.5,320C 281.964,351.469 252.298,371.136 214.5,379C 192.886,382.702 171.219,383.369 149.5,381C 130.128,388.068 110.795,395.235 91.5,402.5C 91.1667,401.833 90.8333,401.167 90.5,400.5C 93.6464,387.61 95.813,374.61 97,361.5C 75.0582,349.224 59.0582,331.558 49,308.5C 38.6267,279.845 42.2934,253.178 60,228.5C 76.8038,206.834 98.3038,191.667 124.5,183C 137.146,179.401 149.812,176.567 162.5,174.5 Z"/></g>
<g><path style="opacity:0.022" fill="#43443f" d="M 511.5,185.5 C 511.5,187.167 511.5,188.833 511.5,190.5C 498.833,202.833 486.167,215.167 473.5,227.5C 473.833,225.5 474.167,223.5 474.5,221.5C 486.833,209.5 499.167,197.5 511.5,185.5 Z"/></g>
<g><path style="opacity:1" fill="#030a0a" d="M 273.5,194.5 C 290.33,194.495 298.497,202.829 298,219.5C 291.498,234.089 280.998,237.922 266.5,231C 256.781,221.208 256.114,210.875 264.5,200C 267.564,198.141 270.564,196.308 273.5,194.5 Z"/></g>
<g><path style="opacity:1" fill="#020808" d="M 327.5,194.5 C 348.032,195.564 355.199,205.898 349,225.5C 341.048,235.082 331.548,236.915 320.5,231C 310.309,220.59 309.976,209.923 319.5,199C 322.391,197.726 325.058,196.226 327.5,194.5 Z"/></g>
<g><path style="opacity:1" fill="#030808" d="M 381.5,194.5 C 398.518,194.348 406.351,202.681 405,219.5C 399.378,233.379 389.545,237.546 375.5,232C 365.762,223.696 363.929,213.863 370,202.5C 373.482,199.161 377.315,196.494 381.5,194.5 Z"/></g>
<g><path style="opacity:1" fill="#158c8d" d="M 273.5,202.5 C 286.32,201.153 291.82,206.819 290,219.5C 285.336,227.608 278.836,229.441 270.5,225C 263.232,216.374 264.232,208.874 273.5,202.5 Z"/></g>
<g><path style="opacity:1" fill="#158c8d" d="M 380.5,202.5 C 392.717,200.481 398.551,205.481 398,217.5C 395.337,225.419 389.837,228.586 381.5,227C 374.547,223.158 372.047,217.325 374,209.5C 375.694,206.642 377.861,204.309 380.5,202.5 Z"/></g>
<g><path style="opacity:1" fill="#158c8e" d="M 326.5,202.5 C 339.821,200.656 345.655,206.323 344,219.5C 337.807,228.813 330.474,229.813 322,222.5C 317.651,214.392 319.151,207.725 326.5,202.5 Z"/></g>
<g><path style="opacity:0.022" fill="#43433f" d="M 511.5,205.5 C 511.5,207.167 511.5,208.833 511.5,210.5C 494.833,226.833 478.167,243.167 461.5,259.5C 462.642,255.883 464.308,252.55 466.5,249.5C 467.167,249.5 467.5,249.167 467.5,248.5C 482.167,234.167 496.833,219.833 511.5,205.5 Z"/></g>
<g><path style="opacity:0.022" fill="#43433f" d="M 55.5,221.5 C 52.5106,226.138 49.5106,230.805 46.5,235.5C 45.8333,235.5 45.5,235.833 45.5,236.5C 30.1667,251.5 14.8333,266.5 -0.5,281.5C -0.5,279.833 -0.5,278.167 -0.5,276.5C 18.1667,258.167 36.8333,239.833 55.5,221.5 Z"/></g>
<g><path style="opacity:0.022" fill="#43443f" d="M 511.5,225.5 C 511.5,227.167 511.5,228.833 511.5,230.5C 482.5,259.167 453.5,287.833 424.5,316.5C 424.5,315.167 424.5,313.833 424.5,312.5C 453.167,283.167 482.167,254.167 511.5,225.5 Z"/></g>
<g><path style="opacity:0.022" fill="#43443f" d="M 511.5,245.5 C 511.5,247.167 511.5,248.833 511.5,250.5C 483.833,277.833 456.167,305.167 428.5,332.5C 427.566,331.432 427.232,330.099 427.5,328.5C 455.5,300.833 483.5,273.167 511.5,245.5 Z"/></g>
<g><path style="opacity:1" fill="#0b0402" d="M 119.5,256.5 C 137.553,256.049 145.72,264.716 144,282.5C 136.779,296.527 126.279,299.694 112.5,292C 104.685,283.71 103.518,274.544 109,264.5C 111.94,260.963 115.44,258.297 119.5,256.5 Z"/></g>
<g><path style="opacity:1" fill="#0c0402" d="M 173.5,256.5 C 194.258,256.742 201.758,266.742 196,286.5C 185.735,299.01 174.735,299.677 163,288.5C 155.46,274.064 158.96,263.397 173.5,256.5 Z"/></g>
<g><path style="opacity:0.022" fill="#43433f" d="M 37.5,259.5 C 37.6747,261.621 37.3414,263.621 36.5,265.5C 24.1667,277.5 11.8333,289.5 -0.5,301.5C -0.5,299.833 -0.5,298.167 -0.5,296.5C 12.1667,284.167 24.8333,271.833 37.5,259.5 Z"/></g>
<g><path style="opacity:1" fill="#ba522d" d="M 175.5,263.5 C 188.55,263.705 193.383,270.038 190,282.5C 188.749,285.381 186.583,287.214 183.5,288C 170.72,289.887 165.22,284.387 167,271.5C 169.074,267.923 171.907,265.256 175.5,263.5 Z"/></g>
<g><path style="opacity:0.022" fill="#43443f" d="M 511.5,265.5 C 511.5,267.167 511.5,268.833 511.5,270.5C 430.833,350.5 350.5,430.833 270.5,511.5C 268.833,511.5 267.167,511.5 265.5,511.5C 347.167,429.167 429.167,347.167 511.5,265.5 Z"/></g>
<g><path style="opacity:1" fill="#ba522d" d="M 121.5,263.5 C 135.99,264.148 140.49,271.148 135,284.5C 133.786,286.049 132.286,287.215 130.5,288C 117.241,290.408 111.407,284.908 113,271.5C 115.074,267.923 117.907,265.256 121.5,263.5 Z"/></g>
<g><path style="opacity:0.022" fill="#43433f" d="M 35.5,281.5 C 35.8333,282.833 36.1667,284.167 36.5,285.5C 24.1667,297.5 11.8333,309.5 -0.5,321.5C -0.5,319.833 -0.5,318.167 -0.5,316.5C 11.5,304.833 23.5,293.167 35.5,281.5 Z"/></g>
<g><path style="opacity:0.022" fill="#43443f" d="M 511.5,285.5 C 511.5,287.167 511.5,288.833 511.5,290.5C 437.5,363.833 363.833,437.5 290.5,511.5C 288.833,511.5 287.167,511.5 285.5,511.5C 360.5,435.833 435.833,360.5 511.5,285.5 Z"/></g>
<g><path style="opacity:0.022" fill="#43433f" d="M 37.5,298.5 C 38.3446,299.671 39.0113,301.005 39.5,302.5C 26.1667,315.5 12.8333,328.5 -0.5,341.5C -0.5,339.833 -0.5,338.167 -0.5,336.5C 12.5,324.167 25.1667,311.5 37.5,298.5 Z"/></g>
<g><path style="opacity:0.022" fill="#43443f" d="M 511.5,305.5 C 511.5,307.167 511.5,308.833 511.5,310.5C 444.167,377.167 377.167,444.167 310.5,511.5C 308.833,511.5 307.167,511.5 305.5,511.5C 373.833,442.5 442.5,373.833 511.5,305.5 Z"/></g>
<g><path style="opacity:0.022" fill="#43433f" d="M 42.5,313.5 C 43.6737,314.514 44.3404,315.847 44.5,317.5C 29.5,332.167 14.5,346.833 -0.5,361.5C -0.5,359.833 -0.5,358.167 -0.5,356.5C 14.1667,342.5 28.5,328.167 42.5,313.5 Z"/></g>
<g><path style="opacity:0.022" fill="#43443f" d="M 355.5,320.5 C 357.415,320.216 359.081,320.549 360.5,321.5C 296.833,384.5 233.5,447.833 170.5,511.5C 168.833,511.5 167.167,511.5 165.5,511.5C 228.833,447.833 292.167,384.167 355.5,320.5 Z"/></g>
<g><path style="opacity:0.022" fill="#43433f" d="M 314.5,321.5 C 316.167,321.5 317.833,321.5 319.5,321.5C 256.5,384.833 193.5,448.167 130.5,511.5C 128.833,511.5 127.167,511.5 125.5,511.5C 174.167,462.5 222.833,413.5 271.5,364.5C 272.167,364.5 272.5,364.167 272.5,363.5C 273.167,363.5 273.5,363.167 273.5,362.5C 286.833,353.833 297.833,342.833 306.5,329.5C 307.167,329.5 307.5,329.167 307.5,328.5C 310.167,326.5 312.5,324.167 314.5,321.5 Z"/></g>
<g><path style="opacity:0.022" fill="#43443f" d="M 334.5,321.5 C 336.167,321.5 337.833,321.5 339.5,321.5C 276.5,384.833 213.5,448.167 150.5,511.5C 148.833,511.5 147.167,511.5 145.5,511.5C 208.5,448.167 271.5,384.833 334.5,321.5 Z"/></g>
<g><path style="opacity:0.022" fill="#43433f" d="M 371.5,324.5 C 372.71,324.932 373.71,325.599 374.5,326.5C 313.167,388.167 251.833,449.833 190.5,511.5C 188.833,511.5 187.167,511.5 185.5,511.5C 247.5,449.167 309.5,386.833 371.5,324.5 Z"/></g>
<g><path style="opacity:0.022" fill="#43443f" d="M 511.5,325.5 C 511.5,327.167 511.5,328.833 511.5,330.5C 450.833,390.5 390.5,450.833 330.5,511.5C 328.833,511.5 327.167,511.5 325.5,511.5C 387.167,449.167 449.167,387.167 511.5,325.5 Z"/></g>
<g><path style="opacity:0.022" fill="#43443f" d="M 49.5,327.5 C 50.9063,327.973 51.573,328.973 51.5,330.5C 34.1667,347.5 16.8333,364.5 -0.5,381.5C -0.5,379.833 -0.5,378.167 -0.5,376.5C 16.1667,360.167 32.8333,343.833 49.5,327.5 Z"/></g>
<g><path style="opacity:0.022" fill="#43443f" d="M 385.5,330.5 C 386.959,330.433 388.292,330.766 389.5,331.5C 329.833,391.5 270.167,451.5 210.5,511.5C 208.833,511.5 207.167,511.5 205.5,511.5C 265.5,451.167 325.5,390.833 385.5,330.5 Z"/></g>
<g><path style="opacity:0.022" fill="#43443f" d="M 400.5,335.5 C 402.153,335.66 403.486,336.326 404.5,337.5C 346.167,395.167 288.167,453.167 230.5,511.5C 228.833,511.5 227.167,511.5 225.5,511.5C 283.833,452.833 342.167,394.167 400.5,335.5 Z"/></g>
<g><path style="opacity:0.022" fill="#43443f" d="M 57.5,338.5 C 58.8333,339.167 59.8333,340.167 60.5,341.5C 40.1667,361.5 19.8333,381.5 -0.5,401.5C -0.5,399.833 -0.5,398.167 -0.5,396.5C 19.1667,377.5 38.5,358.167 57.5,338.5 Z"/></g>
<g><path style="opacity:0.022" fill="#43443f" d="M 415.5,341.5 C 416.791,341.263 417.791,341.596 418.5,342.5C 362.5,398.833 306.5,455.167 250.5,511.5C 248.833,511.5 247.167,511.5 245.5,511.5C 301.833,454.5 358.5,397.833 415.5,341.5 Z"/></g>
<g><path style="opacity:0.022" fill="#43443f" d="M 511.5,345.5 C 511.5,347.167 511.5,348.833 511.5,350.5C 457.5,403.833 403.833,457.5 350.5,511.5C 348.833,511.5 347.167,511.5 345.5,511.5C 400.5,455.833 455.833,400.5 511.5,345.5 Z"/></g>
<g><path style="opacity:0.022" fill="#43433f" d="M 67.5,349.5 C 68.7095,349.932 69.7095,350.599 70.5,351.5C 46.8333,374.833 23.1667,398.167 -0.5,421.5C -0.5,419.833 -0.5,418.167 -0.5,416.5C 22.1667,394.167 44.8333,371.833 67.5,349.5 Z"/></g>
<g><path style="opacity:0.022" fill="#43433f" d="M 78.5,358.5 C 79.7095,358.932 80.7095,359.599 81.5,360.5C 54.1667,387.5 26.8333,414.5 -0.5,441.5C -0.5,439.833 -0.5,438.167 -0.5,436.5C 25.8333,410.5 52.1667,384.5 78.5,358.5 Z"/></g>
<g><path style="opacity:0.022" fill="#43443f" d="M 511.5,365.5 C 511.5,367.167 511.5,368.833 511.5,370.5C 464.167,417.167 417.167,464.167 370.5,511.5C 368.833,511.5 367.167,511.5 365.5,511.5C 413.833,462.5 462.5,413.833 511.5,365.5 Z"/></g>
<g><path style="opacity:0.022" fill="#43443f" d="M 89.5,367.5 C 89.1667,369.5 88.8333,371.5 88.5,373.5C 58.8333,402.833 29.1667,432.167 -0.5,461.5C -0.5,459.833 -0.5,458.167 -0.5,456.5C 29.5,426.833 59.5,397.167 89.5,367.5 Z"/></g>
<g><path style="opacity:0.022" fill="#43443f" d="M 241.5,379.5 C 197.833,423.5 154.167,467.5 110.5,511.5C 108.833,511.5 107.167,511.5 105.5,511.5C 148.5,468.167 191.5,424.833 234.5,381.5C 236.701,380.434 239.035,379.767 241.5,379.5 Z"/></g>
<g><path style="opacity:0.022" fill="#43443f" d="M 511.5,385.5 C 511.5,387.167 511.5,388.833 511.5,390.5C 470.833,430.5 430.5,470.833 390.5,511.5C 388.833,511.5 387.167,511.5 385.5,511.5C 427.167,469.167 469.167,427.167 511.5,385.5 Z"/></g>
<g><path style="opacity:0.022" fill="#43443f" d="M 214.5,386.5 C 173.167,428.167 131.833,469.833 90.5,511.5C 88.8333,511.5 87.1667,511.5 85.5,511.5C 126.5,470.167 167.5,428.833 208.5,387.5C 210.565,387.483 212.565,387.15 214.5,386.5 Z"/></g>
<g><path style="opacity:0.022" fill="#43443f" d="M 152.5,388.5 C 111.833,429.5 71.1667,470.5 30.5,511.5C 28.8333,511.5 27.1667,511.5 25.5,511.5C 65.1667,471.5 104.833,431.5 144.5,391.5C 147.007,390.108 149.673,389.108 152.5,388.5 Z"/></g>
<g><path style="opacity:0.022" fill="#43443f" d="M 166.5,389.5 C 168.167,389.5 169.833,389.5 171.5,389.5C 131.167,430.167 90.8333,470.833 50.5,511.5C 48.8333,511.5 47.1667,511.5 45.5,511.5C 85.8333,470.833 126.167,430.167 166.5,389.5 Z"/></g>
<g><path style="opacity:0.022" fill="#43443f" d="M 186.5,389.5 C 188.167,389.5 189.833,389.5 191.5,389.5C 151.167,430.167 110.833,470.833 70.5,511.5C 68.8333,511.5 67.1667,511.5 65.5,511.5C 105.833,470.833 146.167,430.167 186.5,389.5 Z"/></g>
<g><path style="opacity:0.022" fill="#43433f" d="M 84.5,392.5 C 84.4828,394.565 84.1495,396.565 83.5,398.5C 55.5,426.167 27.5,453.833 -0.5,481.5C -0.5,479.833 -0.5,478.167 -0.5,476.5C 27.8333,448.5 56.1667,420.5 84.5,392.5 Z"/></g>
<g><path style="opacity:0.022" fill="#43433f" d="M 120.5,400.5 C 83.8333,437.5 47.1667,474.5 10.5,511.5C 8.83333,511.5 7.16667,511.5 5.5,511.5C 41.1667,475.5 76.8333,439.5 112.5,403.5C 113.167,403.5 113.5,403.167 113.5,402.5C 115.701,401.434 118.035,400.767 120.5,400.5 Z"/></g>
<g><path style="opacity:0.022" fill="#43443f" d="M 511.5,405.5 C 511.5,407.167 511.5,408.833 511.5,410.5C 477.5,443.833 443.833,477.5 410.5,511.5C 408.833,511.5 407.167,511.5 405.5,511.5C 440.5,475.833 475.833,440.5 511.5,405.5 Z"/></g>
<g><path style="opacity:0.022" fill="#43443f" d="M 89.5,411.5 C 59.8333,441.833 29.8333,471.833 -0.5,501.5C -0.5,499.833 -0.5,498.167 -0.5,496.5C 27.8333,468.833 55.8333,440.833 83.5,412.5C 85.5648,412.483 87.5648,412.15 89.5,411.5 Z"/></g>
<g><path style="opacity:0.022" fill="#43443f" d="M 511.5,425.5 C 511.5,427.167 511.5,428.833 511.5,430.5C 484.167,457.167 457.167,484.167 430.5,511.5C 428.833,511.5 427.167,511.5 425.5,511.5C 453.833,482.5 482.5,453.833 511.5,425.5 Z"/></g>
<g><path style="opacity:0.022" fill="#43443f" d="M 511.5,445.5 C 511.5,447.167 511.5,448.833 511.5,450.5C 490.833,470.5 470.5,490.833 450.5,511.5C 448.833,511.5 447.167,511.5 445.5,511.5C 467.167,489.167 489.167,467.167 511.5,445.5 Z"/></g>
<g><path style="opacity:0.022" fill="#43443f" d="M 511.5,465.5 C 511.5,467.167 511.5,468.833 511.5,470.5C 497.5,483.833 483.833,497.5 470.5,511.5C 468.833,511.5 467.167,511.5 465.5,511.5C 480.5,495.833 495.833,480.5 511.5,465.5 Z"/></g>
<g><path style="opacity:0.022" fill="#43443f" d="M 511.5,485.5 C 511.5,487.167 511.5,488.833 511.5,490.5C 504.167,497.167 497.167,504.167 490.5,511.5C 488.833,511.5 487.167,511.5 485.5,511.5C 493.833,502.5 502.5,493.833 511.5,485.5 Z"/></g>
<g><path style="opacity:0.022" fill="#43443f" d="M 511.5,505.5 C 511.5,507.167 511.5,508.833 511.5,510.5C 510.833,510.5 510.5,510.833 510.5,511.5C 508.833,511.5 507.167,511.5 505.5,511.5C 507.167,509.167 509.167,507.167 511.5,505.5 Z"/></g>
</svg>
