<?xml version="1.0" encoding="UTF-8"?>
<!DOCTYPE svg PUBLIC "-//W3C//DTD SVG 1.1//EN" "http://www.w3.org/Graphics/SVG/1.1/DTD/svg11.dtd">
<svg xmlns="http://www.w3.org/2000/svg" version="1.1" width="1600px" height="541px" style="shape-rendering:geometricPrecision; text-rendering:geometricPrecision; image-rendering:optimizeQuality; fill-rule:evenodd; clip-rule:evenodd" xmlns:xlink="http://www.w3.org/1999/xlink">
<g><path style="opacity:0.985" fill="#000000" d="M 242.5,23.5 C 297.349,20.0976 344.349,37.2642 383.5,75C 372.042,87.4588 360.209,99.6255 348,111.5C 308.958,76.5709 264.124,66.7376 213.5,82C 156.375,105.3 126.375,147.8 123.5,209.5C 125.881,269.687 154.548,311.854 209.5,336C 249.492,349.36 288.159,346.36 325.5,327C 355.767,308.658 373.1,281.825 377.5,246.5C 336.839,245.5 296.172,245.167 255.5,245.5C 255.5,228.167 255.5,210.833 255.5,193.5C 312.837,193.167 370.171,193.5 427.5,194.5C 433.858,233.34 429.025,270.674 413,306.5C 389.711,348.79 354.877,376.624 308.5,390C 231.093,407.325 165.593,387.159 112,329.5C 67.2103,273.612 56.5437,211.612 80,143.5C 111.551,72.9656 165.717,32.9656 242.5,23.5 Z"/></g>
<g><path style="opacity:0.99" fill="#000000" d="M 1227.5,37.5 C 1244.83,37.5 1262.17,37.5 1279.5,37.5C 1279.5,154.5 1279.5,271.5 1279.5,388.5C 1262.17,388.5 1244.83,388.5 1227.5,388.5C 1227.5,271.5 1227.5,154.5 1227.5,37.5 Z"/></g>
<g><path style="opacity:0.986" fill="#000000" d="M 563.5,155.5 C 605.65,154.833 640.15,170.499 667,202.5C 690.6,236.83 696.6,274.164 685,314.5C 664.835,366.689 626.669,394.023 570.5,396.5C 519.658,394.469 482.825,370.802 460,325.5C 442.268,279.335 448.268,236.669 478,197.5C 500.976,172.126 529.476,158.126 563.5,155.5 Z M 558.5,204.5 C 597.393,201.68 622.893,218.68 635,255.5C 642.499,289.403 632.666,316.903 605.5,338C 579.287,351.818 553.954,350.484 529.5,334C 504.588,310.146 497.422,281.646 508,248.5C 517.311,225.012 534.144,210.345 558.5,204.5 Z"/></g>
<g><path style="opacity:0.985" fill="#000000" d="M 821.5,155.5 C 877.412,154.685 917.245,179.351 941,229.5C 957.257,276.399 949.924,319.066 919,357.5C 887.627,389.146 849.793,401.313 805.5,394C 766.516,385.664 738.016,363.83 720,328.5C 704.091,290.162 705.424,252.495 724,215.5C 746.638,179.592 779.138,159.592 821.5,155.5 Z M 817.5,204.5 C 858.958,201.818 884.791,220.484 895,260.5C 900.672,293.778 889.838,319.945 862.5,339C 830.393,354.76 802.226,349.593 778,323.5C 758.219,294.345 756.886,264.345 774,233.5C 784.821,218.182 799.321,208.516 817.5,204.5 Z"/></g>
<g><path style="opacity:0.986" fill="#000000" d="M 1075.5,155.5 C 1103.18,154.496 1126.85,163.496 1146.5,182.5C 1147.5,176.202 1147.83,169.868 1147.5,163.5C 1164.17,163.5 1180.83,163.5 1197.5,163.5C 1197.67,240.834 1197.5,318.167 1197,395.5C 1190.24,463.924 1152.58,499.924 1084,503.5C 1040.37,502.358 1007.04,483.358 984,446.5C 981.375,442.212 979.209,437.712 977.5,433C 991.903,425.746 1006.74,419.246 1022,413.5C 1027.81,423.568 1034.98,432.734 1043.5,441C 1062.82,455.422 1084.15,459.088 1107.5,452C 1131.47,442.236 1144.31,424.403 1146,398.5C 1147.45,388.508 1147.61,378.508 1146.5,368.5C 1127.23,388.542 1103.56,397.709 1075.5,396C 1023.01,388.495 988.509,359.662 972,309.5C 959.399,251.612 977.232,205.779 1025.5,172C 1041.13,163.178 1057.8,157.678 1075.5,155.5 Z M 1075.5,204.5 C 1115.1,201.938 1139.6,219.938 1149,258.5C 1153.87,283.998 1148.54,306.998 1133,327.5C 1111.02,349.064 1085.85,353.564 1057.5,341C 1038.31,329.453 1026.47,312.619 1022,290.5C 1017.63,261.081 1026.47,236.581 1048.5,217C 1056.84,211.162 1065.84,206.996 1075.5,204.5 Z"/></g>
<g><path style="opacity:0.984" fill="#000000" d="M 1406.5,155.5 C 1448.62,154.472 1481.12,171.472 1504,206.5C 1511.38,219.099 1517.55,232.265 1522.5,246C 1469.59,268.038 1416.76,290.204 1364,312.5C 1372.12,331.585 1386.62,343.085 1407.5,347C 1437.89,351.047 1461.73,340.547 1479,315.5C 1492.49,323.912 1505.82,332.578 1519,341.5C 1519.67,342.5 1519.67,343.5 1519,344.5C 1485.56,388.274 1441.72,404.107 1387.5,392C 1338.96,376.121 1310.46,342.955 1302,292.5C 1297.13,250.065 1309.63,213.898 1339.5,184C 1358.84,167.329 1381.17,157.829 1406.5,155.5 Z M 1407.5,203.5 C 1421,202.027 1433.67,204.527 1445.5,211C 1451.05,214.878 1455.55,219.711 1459,225.5C 1459.75,226.635 1459.58,227.635 1458.5,228.5C 1423.75,242.422 1389.08,256.756 1354.5,271.5C 1354.94,235.393 1372.61,212.726 1407.5,203.5 Z"/></g>
</svg>
