<?xml version="1.0" encoding="UTF-8"?>
<!DOCTYPE svg PUBLIC "-//W3C//DTD SVG 1.1//EN" "http://www.w3.org/Graphics/SVG/1.1/DTD/svg11.dtd">
<svg xmlns="http://www.w3.org/2000/svg" version="1.1" width="512px" height="512px" style="shape-rendering:geometricPrecision; text-rendering:geometricPrecision; image-rendering:optimizeQuality; fill-rule:evenodd; clip-rule:evenodd" xmlns:xlink="http://www.w3.org/1999/xlink">
<g><path style="opacity:0.978" fill="#00a7e0" d="M 245.5,-0.5 C 252.167,-0.5 258.833,-0.5 265.5,-0.5C 285.085,5.75589 296.418,19.0892 299.5,39.5C 299.377,45.2378 298.71,50.9045 297.5,56.5C 292.033,72.6311 281.033,82.9644 264.5,87.5C 258.5,87.5 252.5,87.5 246.5,87.5C 229.967,82.9644 218.967,72.6311 213.5,56.5C 212.29,50.9045 211.623,45.2378 211.5,39.5C 214.582,19.0892 225.915,5.75589 245.5,-0.5 Z"/></g>
<g><path style="opacity:0.932" fill="#333e48" d="M 211.5,39.5 C 211.623,45.2378 212.29,50.9045 213.5,56.5C 188.925,61.9068 166.258,71.5734 145.5,85.5C 141.864,80.8576 138.197,76.1909 134.5,71.5C 157.897,55.6425 183.564,44.9758 211.5,39.5 Z"/></g>
<g><path style="opacity:0.932" fill="#323e48" d="M 299.5,39.5 C 327.436,44.9758 353.103,55.6425 376.5,71.5C 372.803,76.1909 369.136,80.8576 365.5,85.5C 344.742,71.5734 322.075,61.9068 297.5,56.5C 298.71,50.9045 299.377,45.2378 299.5,39.5 Z"/></g>
<g><path style="opacity:0.98" fill="#fe9d16" d="M 134.5,71.5 C 138.197,76.1909 141.864,80.8576 145.5,85.5C 152.228,100.964 151.228,115.964 142.5,130.5C 138.833,134.833 134.833,138.833 130.5,142.5C 115.964,151.228 100.964,152.228 85.5,145.5C 80.8576,141.864 76.1909,138.197 71.5,134.5C 58.7626,116.207 58.2626,97.5404 70,78.5C 84.0323,62.6991 101.199,57.8658 121.5,64C 126.188,66.0065 130.521,68.5065 134.5,71.5 Z"/></g>
<g><path style="opacity:0.98" fill="#0070cd" d="M 439.5,134.5 C 434.852,138.143 430.185,141.81 425.5,145.5C 410.036,152.228 395.036,151.228 380.5,142.5C 376.167,138.833 372.167,134.833 368.5,130.5C 359.772,115.964 358.772,100.964 365.5,85.5C 369.136,80.8576 372.803,76.1909 376.5,71.5C 394.793,58.7626 413.46,58.2626 432.5,70C 448.301,84.0323 453.134,101.199 447,121.5C 444.993,126.188 442.493,130.521 439.5,134.5 Z"/></g>
<g><path style="opacity:0.917" fill="#333e48" d="M 246.5,87.5 C 252.5,87.5 258.5,87.5 264.5,87.5C 264.5,115.5 264.5,143.5 264.5,171.5C 258.5,171.5 252.5,171.5 246.5,171.5C 246.5,143.5 246.5,115.5 246.5,87.5 Z"/></g>
<g><path style="opacity:0.934" fill="#333e48" d="M 142.5,130.5 C 162.5,150.167 182.5,169.833 202.5,189.5C 198.5,194.167 194.167,198.5 189.5,202.5C 169.833,182.5 150.167,162.5 130.5,142.5C 134.833,138.833 138.833,134.833 142.5,130.5 Z"/></g>
<g><path style="opacity:0.932" fill="#323e48" d="M 368.5,130.5 C 372.167,134.833 376.167,138.833 380.5,142.5C 360.833,162.5 341.167,182.5 321.5,202.5C 316.833,198.5 312.5,194.167 308.5,189.5C 328.5,169.833 348.5,150.167 368.5,130.5 Z"/></g>
<g><path style="opacity:0.933" fill="#333e48" d="M 71.5,134.5 C 76.1909,138.197 80.8576,141.864 85.5,145.5C 72.1919,166.418 63.1919,189.085 58.5,213.5C 52.7101,211.848 46.7101,211.181 40.5,211.5C 45.9541,183.79 56.2875,158.124 71.5,134.5 Z"/></g>
<g><path style="opacity:0.933" fill="#323e48" d="M 439.5,134.5 C 454.713,158.124 465.046,183.79 470.5,211.5C 464.364,211.177 458.364,211.844 452.5,213.5C 447.808,189.085 438.808,166.418 425.5,145.5C 430.185,141.81 434.852,138.143 439.5,134.5 Z"/></g>
<g><path style="opacity:0.99" fill="#0054b7" d="M 246.5,171.5 C 252.5,171.5 258.5,171.5 264.5,171.5C 281.036,173.107 295.703,179.107 308.5,189.5C 312.5,194.167 316.833,198.5 321.5,202.5C 331.889,215.29 337.889,229.957 339.5,246.5C 339.5,252.5 339.5,258.5 339.5,264.5C 337.889,281.043 331.889,295.71 321.5,308.5C 316.833,312.5 312.5,316.833 308.5,321.5C 295.71,331.889 281.043,337.889 264.5,339.5C 258.5,339.5 252.5,339.5 246.5,339.5C 229.957,337.889 215.29,331.889 202.5,321.5C 198.5,316.833 194.167,312.5 189.5,308.5C 179.111,295.71 173.111,281.043 171.5,264.5C 171.5,258.5 171.5,252.5 171.5,246.5C 173.111,229.957 179.111,215.29 189.5,202.5C 194.167,198.5 198.5,194.167 202.5,189.5C 215.297,179.107 229.964,173.107 246.5,171.5 Z"/></g>
<g><path style="opacity:0.978" fill="#00a7e0" d="M 40.5,211.5 C 46.7101,211.181 52.7101,211.848 58.5,213.5C 73.4546,219.792 83.1213,230.792 87.5,246.5C 87.5,252.5 87.5,258.5 87.5,264.5C 83.1488,280.184 73.4821,291.184 58.5,297.5C 52.8976,298.65 47.2309,299.316 41.5,299.5C 20.0197,297.349 6.01966,286.015 -0.5,265.5C -0.5,258.833 -0.5,252.167 -0.5,245.5C 5.91129,225.422 19.578,214.089 40.5,211.5 Z"/></g>
<g><path style="opacity:0.978" fill="#fe9d16" d="M 470.5,211.5 C 491.422,214.089 505.089,225.422 511.5,245.5C 511.5,252.167 511.5,258.833 511.5,265.5C 504.98,286.015 490.98,297.349 469.5,299.5C 463.736,299.563 458.07,298.897 452.5,297.5C 437.518,291.184 427.851,280.184 423.5,264.5C 423.5,258.5 423.5,252.5 423.5,246.5C 427.879,230.792 437.545,219.792 452.5,213.5C 458.364,211.844 464.364,211.177 470.5,211.5 Z"/></g>
<g><path style="opacity:0.917" fill="#333e48" d="M 87.5,246.5 C 115.5,246.5 143.5,246.5 171.5,246.5C 171.5,252.5 171.5,258.5 171.5,264.5C 143.5,264.5 115.5,264.5 87.5,264.5C 87.5,258.5 87.5,252.5 87.5,246.5 Z"/></g>
<g><path style="opacity:0.917" fill="#333e48" d="M 339.5,246.5 C 367.5,246.5 395.5,246.5 423.5,246.5C 423.5,252.5 423.5,258.5 423.5,264.5C 395.5,264.5 367.5,264.5 339.5,264.5C 339.5,258.5 339.5,252.5 339.5,246.5 Z"/></g>
<g><path style="opacity:0.933" fill="#333e48" d="M 58.5,297.5 C 64.1183,321.722 73.785,344.055 87.5,364.5C 82.2428,367.749 77.2428,371.415 72.5,375.5C 57.2267,352.273 46.8934,326.939 41.5,299.5C 47.2309,299.316 52.8976,298.65 58.5,297.5 Z"/></g>
<g><path style="opacity:0.933" fill="#333e48" d="M 452.5,297.5 C 458.07,298.897 463.736,299.563 469.5,299.5C 464.107,326.939 453.773,352.273 438.5,375.5C 433.757,371.415 428.757,367.749 423.5,364.5C 437.215,344.055 446.882,321.722 452.5,297.5 Z"/></g>
<g><path style="opacity:0.934" fill="#323e48" d="M 189.5,308.5 C 194.167,312.5 198.5,316.833 202.5,321.5C 182.5,341.167 162.5,360.833 142.5,380.5C 138.833,376.167 134.833,372.167 130.5,368.5C 150.167,348.5 169.833,328.5 189.5,308.5 Z"/></g>
<g><path style="opacity:0.935" fill="#323e48" d="M 321.5,308.5 C 341.167,328.5 360.833,348.5 380.5,368.5C 376.167,372.167 372.167,376.167 368.5,380.5C 348.5,360.833 328.5,341.167 308.5,321.5C 312.5,316.833 316.833,312.5 321.5,308.5 Z"/></g>
<g><path style="opacity:0.917" fill="#333e48" d="M 246.5,339.5 C 252.5,339.5 258.5,339.5 264.5,339.5C 264.5,367.5 264.5,395.5 264.5,423.5C 258.5,423.5 252.5,423.5 246.5,423.5C 246.5,395.5 246.5,367.5 246.5,339.5 Z"/></g>
<g><path style="opacity:0.98" fill="#4ab5a9" d="M 130.5,368.5 C 134.833,372.167 138.833,376.167 142.5,380.5C 150.729,394.226 152.063,408.559 146.5,423.5C 143.587,428.422 140.254,433.088 136.5,437.5C 122.759,449.681 107.092,452.848 89.5,447C 66.6247,435.748 57.7914,417.581 63,392.5C 65.1509,386.192 68.3176,380.525 72.5,375.5C 77.2428,371.415 82.2428,367.749 87.5,364.5C 102.441,358.937 116.774,360.271 130.5,368.5 Z"/></g>
<g><path style="opacity:0.98" fill="#0070cd" d="M 423.5,364.5 C 428.757,367.749 433.757,371.415 438.5,375.5C 451.389,392.46 452.889,410.46 443,429.5C 425.449,451.386 404.282,455.553 379.5,442C 377.963,440.293 376.296,438.793 374.5,437.5C 370.746,433.088 367.413,428.422 364.5,423.5C 358.937,408.559 360.271,394.226 368.5,380.5C 372.167,376.167 376.167,372.167 380.5,368.5C 394.226,360.271 408.559,358.937 423.5,364.5 Z"/></g>
<g><path style="opacity:0.932" fill="#333e48" d="M 146.5,423.5 C 167.433,436.925 190.1,446.259 214.5,451.5C 211.994,456.859 210.994,462.526 211.5,468.5C 184.226,463.353 159.226,453.02 136.5,437.5C 140.254,433.088 143.587,428.422 146.5,423.5 Z"/></g>
<g><path style="opacity:0.979" fill="#fe9d16" d="M 246.5,423.5 C 252.5,423.5 258.5,423.5 264.5,423.5C 279.866,427.537 290.533,436.87 296.5,451.5C 298.608,456.942 299.608,462.608 299.5,468.5C 297.818,490.511 286.484,504.844 265.5,511.5C 258.833,511.5 252.167,511.5 245.5,511.5C 224.516,504.844 213.182,490.511 211.5,468.5C 210.994,462.526 211.994,456.859 214.5,451.5C 220.467,436.87 231.134,427.537 246.5,423.5 Z"/></g>
<g><path style="opacity:0.932" fill="#333e48" d="M 364.5,423.5 C 367.413,428.422 370.746,433.088 374.5,437.5C 351.774,453.02 326.774,463.353 299.5,468.5C 299.608,462.608 298.608,456.942 296.5,451.5C 320.9,446.259 343.567,436.925 364.5,423.5 Z"/></g>
</svg>
