<?xml version="1.0" encoding="UTF-8"?>
<!DOCTYPE svg PUBLIC "-//W3C//DTD SVG 1.1//EN" "http://www.w3.org/Graphics/SVG/1.1/DTD/svg11.dtd">
<svg xmlns="http://www.w3.org/2000/svg" version="1.1" width="440px" height="242px" style="shape-rendering:geometricPrecision; text-rendering:geometricPrecision; image-rendering:optimizeQuality; fill-rule:evenodd; clip-rule:evenodd" xmlns:xlink="http://www.w3.org/1999/xlink">
<g><path style="opacity:0.813" fill="#2e5126" d="M 65.5,79.5 C 83.7781,82.0821 101.778,85.2488 119.5,89C 122.448,90.0095 123.114,91.8429 121.5,94.5C 122.333,94.8333 123.167,95.1667 124,95.5C 126.955,94.6258 129.955,93.9591 133,93.5C 139.036,95.3837 145.203,96.717 151.5,97.5C 151.5,99.1667 151.5,100.833 151.5,102.5C 147.685,103.774 143.852,103.774 140,102.5C 138.272,102.454 136.772,102.954 135.5,104C 147.557,105.234 159.557,106.567 171.5,108C 177.117,111.317 183.117,113.65 189.5,115C 190.946,117.493 190.279,119.327 187.5,120.5C 188.767,122.371 188.767,124.204 187.5,126C 182.069,126.155 176.903,127.321 172,129.5C 170.564,129.441 169.231,129.108 168,128.5C 167,130.833 166,133.167 165,135.5C 161.233,140.023 157.233,144.357 153,148.5C 153.796,151.03 154.129,153.696 154,156.5C 151.067,162.274 147.9,167.941 144.5,173.5C 146.923,177.977 148.423,182.644 149,187.5C 144.667,192.5 140.333,197.5 136,202.5C 134.955,205.436 134.121,208.436 133.5,211.5C 132.086,212.624 130.586,213.624 129,214.5C 128.54,218.98 126.373,222.48 122.5,225C 138.099,227.072 153.765,228.739 169.5,230C 170.337,231.011 170.67,232.178 170.5,233.5C 127.5,233.5 84.5,233.5 41.5,233.5C 41.5,232.167 41.5,230.833 41.5,229.5C 58.8357,228.431 76.169,227.265 93.5,226C 94.3081,225.692 94.9747,225.192 95.5,224.5C 93.4326,219.332 91.9326,213.998 91,208.5C 89.9196,206.004 88.5862,203.67 87,201.5C 87.2509,196.094 87.9176,190.76 89,185.5C 85.5838,181.916 82.7505,177.916 80.5,173.5C 81.1062,171.291 81.7728,169.124 82.5,167C 74.1454,163.549 65.9787,159.716 58,155.5C 57.2935,153.919 56.4601,152.419 55.5,151C 51.1667,149.333 46.8333,147.667 42.5,146C 40.3481,143.576 39.0148,140.743 38.5,137.5C 33.3717,136.14 28.2051,135.14 23,134.5C 22.3162,133.216 22.4829,132.049 23.5,131C 30.9159,128.583 38.4159,126.416 46,124.5C 48.7296,125.861 51.5629,126.361 54.5,126C 55.5,123.667 56.5,121.333 57.5,119C 53.1884,118.82 48.6884,118.32 44,117.5C 38.8474,118.58 33.6808,119.58 28.5,120.5C 22.4487,119.837 16.4487,120.503 10.5,122.5C 5.21951,121.778 3.88618,119.278 6.5,115C 9.95117,113.704 13.2845,112.204 16.5,110.5C 17.1667,110.833 17.8333,111.167 18.5,111.5C 20.7272,109.565 23.0606,107.732 25.5,106C 28.7536,105.75 31.7536,104.75 34.5,103C 28.3729,102.438 22.3729,102.772 16.5,104C 14.0376,101.464 11.0376,99.964 7.5,99.5C 5.02657,97.9019 5.02657,96.4019 7.5,95C 12.392,93.1056 17.0587,90.7723 21.5,88C 29.7321,88.0883 37.7321,86.9216 45.5,84.5C 45.3601,82.8762 46.0267,81.7096 47.5,81C 50.6571,80.7602 53.8238,80.9269 57,81.5C 60.1156,81.5114 62.949,80.8447 65.5,79.5 Z M 113.5,98.5 C 113.047,99.4584 112.381,100.292 111.5,101C 105.033,100.545 99.3667,102.378 94.5,106.5C 94.0424,103.308 92.3757,101.142 89.5,100C 92.3715,99.6852 95.2048,99.1852 98,98.5C 103.226,101.019 108.393,101.019 113.5,98.5 Z M 80.5,99.5 C 82.1992,99.3398 83.8659,99.5065 85.5,100C 82.2325,101.213 78.8992,101.546 75.5,101C 77.3817,100.802 79.0484,100.302 80.5,99.5 Z M 88.5,109.5 C 88.0847,111.948 89.0847,113.281 91.5,113.5C 96.1327,112.447 100.799,112.281 105.5,113C 110.833,117.667 116.167,122.333 121.5,127C 127.241,126.537 131.574,128.704 134.5,133.5C 135.348,138.926 136.514,144.259 138,149.5C 141.134,151.312 143.968,153.479 146.5,156C 143.214,161.402 140.047,166.902 137,172.5C 137.589,177.596 138.589,182.596 140,187.5C 136,191.5 132,195.5 128,199.5C 127.061,202.121 126.228,204.788 125.5,207.5C 121.656,209.175 119.823,212.175 120,216.5C 117.14,220.371 113.474,223.038 109,224.5C 108.228,224.355 107.561,224.022 107,223.5C 102.605,216.093 98.9385,208.427 96,200.5C 96.2594,195.078 96.9261,189.745 98,184.5C 95.3333,181.167 92.6667,177.833 90,174.5C 89.447,171.641 89.6137,168.808 90.5,166C 89.9371,161.771 87.6038,159.105 83.5,158C 87.384,152.31 92.2174,147.81 98,144.5C 99.6667,142.167 101.333,139.833 103,137.5C 103.139,134.425 102.639,131.425 101.5,128.5C 105.472,127.892 109.472,127.392 113.5,127C 115.592,126.047 115.925,124.714 114.5,123C 103.202,118.797 91.535,116.63 79.5,116.5C 82.2085,113.791 85.2085,111.458 88.5,109.5 Z M 116.5,112.5 C 118.75,112.181 120.75,112.681 122.5,114C 120.167,117.333 117.833,117.333 115.5,114C 116.056,113.617 116.389,113.117 116.5,112.5 Z M 135.5,125.5 C 133.704,124.207 132.037,122.707 130.5,121C 124.405,121.722 123.905,119.889 129,115.5C 131.431,117.089 134.097,118.089 137,118.5C 140.139,117.574 143.306,117.408 146.5,118C 142.871,118.314 139.538,119.481 136.5,121.5C 135.571,122.689 135.238,124.022 135.5,125.5 Z M 76.5,117.5 C 73.0727,120.093 69.0727,121.427 64.5,121.5C 67.5897,117.921 71.5897,116.587 76.5,117.5 Z M 63.5,122.5 C 63.33,123.822 63.6634,124.989 64.5,126C 68.8545,125.431 73.1879,125.597 77.5,126.5C 77.5,127.5 77.5,128.5 77.5,129.5C 72.1839,128.704 66.8506,128.037 61.5,127.5C 61.4021,125.447 62.0687,123.78 63.5,122.5 Z M 85.5,127.5 C 86.7251,128.152 87.3917,129.319 87.5,131C 87.3333,132.167 87.1667,133.333 87,134.5C 84.6127,137.377 81.946,140.044 79,142.5C 78.3623,143.609 77.8623,144.775 77.5,146C 79.3392,149.827 78.6725,152.994 75.5,155.5C 70.6565,154.168 66.1565,152.168 62,149.5C 58.435,145.328 57.2683,140.661 58.5,135.5C 65.2645,135.142 71.9312,134.142 78.5,132.5C 78.5,131.5 78.5,130.5 78.5,129.5C 81.1522,129.59 83.4855,128.924 85.5,127.5 Z M 85.5,144.5 C 87.1271,142.37 88.9604,140.37 91,138.5C 92.1737,134.954 92.8404,131.287 93,127.5C 93.6667,128.833 94.3333,128.833 95,127.5C 97.4826,131.053 97.816,134.719 96,138.5C 92.6036,140.719 89.1036,142.719 85.5,144.5 Z M 138.5,127.5 C 142.505,127.074 146.005,128.074 149,130.5C 149.301,133.974 150.134,137.308 151.5,140.5C 149.367,142.091 147.701,144.091 146.5,146.5C 144.866,146.032 143.7,145.032 143,143.5C 142.661,137.735 141.161,132.401 138.5,127.5 Z M 153.5,129.5 C 156.304,128.362 159.304,128.195 162.5,129C 160.667,131.5 158.5,133.667 156,135.5C 155.434,133.277 154.6,131.277 153.5,129.5 Z M 48.5,135.5 C 49.5,135.5 50.5,135.5 51.5,135.5C 51.067,138.166 50.567,140.832 50,143.5C 48.5806,142.54 47.0806,141.707 45.5,141C 46.6394,139.22 47.6394,137.386 48.5,135.5 Z"/></g>
<g><path style="opacity:0.676" fill="#49423e" d="M 212.5,93.5 C 214.167,93.5 215.833,93.5 217.5,93.5C 218.563,140.169 218.563,186.836 217.5,233.5C 215.533,233.739 213.699,233.406 212,232.5C 211.172,186.096 211.339,139.763 212.5,93.5 Z"/></g>
<g><path style="opacity:0.807" fill="#2e5126" d="M 244.5,125.5 C 246.642,125.69 248.975,125.856 251.5,126C 252,126.5 252.5,127 253,127.5C 253.333,130.5 253.667,133.5 254,136.5C 256.234,132.542 259.067,129.042 262.5,126C 266.118,125.034 269.451,125.534 272.5,127.5C 268.954,132.543 265.621,137.709 262.5,143C 265.244,149.155 268.244,155.155 271.5,161C 271.355,161.772 271.022,162.439 270.5,163C 267.167,163.667 263.833,163.667 260.5,163C 258.206,158.912 256.039,154.745 254,150.5C 253.768,154.555 253.268,158.555 252.5,162.5C 249.232,163.487 245.898,163.82 242.5,163.5C 241.883,150.585 242.55,137.918 244.5,125.5 Z"/></g>
<g><path style="opacity:0.798" fill="#2e5126" d="M 277.5,125.5 C 284.593,125.433 291.426,125.766 298,126.5C 298.777,129.429 298.61,132.263 297.5,135C 293.514,135.499 289.514,135.666 285.5,135.5C 285.5,136.833 285.5,138.167 285.5,139.5C 289.514,139.334 293.514,139.501 297.5,140C 299.413,144.021 298.58,147.187 295,149.5C 292.263,148.39 289.429,148.223 286.5,149C 285.62,150.356 285.286,151.856 285.5,153.5C 290.099,153.2 294.599,153.533 299,154.5C 300.195,157.187 300.362,159.854 299.5,162.5C 291.608,163.814 283.775,163.814 276,162.5C 274.378,151.264 274.045,139.931 275,128.5C 275.698,127.309 276.531,126.309 277.5,125.5 Z"/></g>
<g><path style="opacity:0.826" fill="#2e5126" d="M 304.5,125.5 C 307.456,126.137 310.456,126.637 313.5,127C 317.036,131.237 320.202,135.737 323,140.5C 323.333,136.167 323.667,131.833 324,127.5C 327.394,126.544 330.894,126.211 334.5,126.5C 334.5,138.833 334.5,151.167 334.5,163.5C 331.102,163.82 327.768,163.487 324.5,162.5C 321.252,156.336 317.752,150.336 314,144.5C 313.484,150.218 313.484,155.885 314,161.5C 310.899,163.72 307.565,164.053 304,162.5C 303.188,150.091 303.355,137.758 304.5,125.5 Z"/></g>
<g><path style="opacity:0.809" fill="#2e5126" d="M 337.5,125.5 C 340.85,125.335 344.183,125.502 347.5,126C 349.401,129.86 351.401,133.693 353.5,137.5C 355.372,133.588 357.372,129.755 359.5,126C 362.884,125.909 366.051,126.076 369,126.5C 366.891,133.736 363.891,140.736 360,147.5C 358.762,152.811 358.262,157.811 358.5,162.5C 354.955,163.791 351.455,163.791 348,162.5C 347.667,158.167 347.333,153.833 347,149.5C 343.789,142.076 340.289,134.743 336.5,127.5C 336.863,126.817 337.196,126.15 337.5,125.5 Z"/></g>
<g><path style="opacity:0.836" fill="#2e5126" d="M 378.5,125.5 C 380.814,126.821 383.147,126.821 385.5,125.5C 387.459,125.875 389.293,126.541 391,127.5C 393.984,138.436 396.818,149.436 399.5,160.5C 399.392,161.442 399.059,162.275 398.5,163C 395.446,163.821 392.446,163.655 389.5,162.5C 388.06,157.528 384.894,156.195 380,158.5C 378.991,160.025 378.491,161.692 378.5,163.5C 375.482,163.665 372.482,163.498 369.5,163C 368.892,161.769 368.559,160.436 368.5,159C 369.955,148.679 372.122,138.512 375,128.5C 376.145,127.364 377.312,126.364 378.5,125.5 Z M 382.5,138.5 C 384.198,141.034 385.531,143.868 386.5,147C 384.298,149.153 382.631,148.819 381.5,146C 382.322,143.566 382.656,141.066 382.5,138.5 Z"/></g>
<g><path style="opacity:0.779" fill="#49423e" d="M 290.5,173.5 C 302.853,174.555 305.853,180.388 299.5,191C 296.607,192.149 293.607,192.649 290.5,192.5C 290.5,194.5 290.5,196.5 290.5,198.5C 288.167,198.5 285.833,198.5 283.5,198.5C 283.5,190.5 283.5,182.5 283.5,174.5C 286.059,174.802 288.393,174.468 290.5,173.5 Z M 290.5,180.5 C 294.5,179.833 296.167,181.5 295.5,185.5C 293.833,185.5 292.167,185.5 290.5,185.5C 290.5,183.833 290.5,182.167 290.5,180.5 Z"/></g>
<g><path style="opacity:0.771" fill="#49423e" d="M 333.5,173.5 C 344.328,175.808 346.328,181.308 339.5,190C 343.295,191.064 344.461,193.564 343,197.5C 342.275,198.059 341.442,198.392 340.5,198.5C 337.913,197.256 335.58,195.589 333.5,193.5C 332.548,195.045 332.215,196.712 332.5,198.5C 330.167,198.5 327.833,198.5 325.5,198.5C 325.5,190.5 325.5,182.5 325.5,174.5C 328.385,174.806 331.052,174.473 333.5,173.5 Z M 332.5,180.5 C 334.484,180.484 335.484,181.484 335.5,183.5C 335.547,185 334.881,186 333.5,186.5C 332.534,184.604 332.201,182.604 332.5,180.5 Z"/></g>
<g><path style="opacity:0.723" fill="#49423e" d="M 412.5,173.5 C 415.987,174.445 417.32,176.778 416.5,180.5C 408.367,180.38 406.367,183.88 410.5,191C 416.14,190.629 417.807,192.963 415.5,198C 410.154,199.652 405.987,198.152 403,193.5C 398.509,182.82 401.676,176.154 412.5,173.5 Z"/></g>
<g><path style="opacity:0.721" fill="#49423e" d="M 243.5,174.5 C 248.5,174.5 253.5,174.5 258.5,174.5C 258.5,176.5 258.5,178.5 258.5,180.5C 248.791,180.797 248.458,181.63 257.5,183C 258.833,185 258.833,187 257.5,189C 248.478,190.223 248.811,191.223 258.5,192C 259.423,194.041 259.756,196.208 259.5,198.5C 254.125,198.828 248.792,198.495 243.5,197.5C 242.169,189.803 242.169,182.137 243.5,174.5 Z"/></g>
<g><path style="opacity:0.76" fill="#49423e" d="M 261.5,174.5 C 266.079,173.697 269.246,175.363 271,179.5C 272.754,175.363 275.921,173.697 280.5,174.5C 279.522,178.623 277.856,182.457 275.5,186C 277.62,189.739 279.62,193.572 281.5,197.5C 276.056,199.891 272.556,198.224 271,192.5C 269.708,194.249 268.542,196.082 267.5,198C 265.19,198.497 262.857,198.663 260.5,198.5C 262.066,194.199 264.066,190.032 266.5,186C 264.109,182.395 262.443,178.562 261.5,174.5 Z"/></g>
<g><path style="opacity:0.734" fill="#49423e" d="M 306.5,174.5 C 311.5,174.5 316.5,174.5 321.5,174.5C 321.5,176.5 321.5,178.5 321.5,180.5C 310.833,181.167 310.833,181.833 321.5,182.5C 321.5,184.833 321.5,187.167 321.5,189.5C 310.853,190.009 310.853,190.842 321.5,192C 322.423,194.041 322.756,196.208 322.5,198.5C 317.167,198.5 311.833,198.5 306.5,198.5C 305.539,190.114 305.539,182.114 306.5,174.5 Z"/></g>
<g><path style="opacity:0.661" fill="#49423e" d="M 346.5,174.5 C 349.119,174.232 351.619,174.565 354,175.5C 354.5,183.159 354.666,190.826 354.5,198.5C 351.833,198.5 349.167,198.5 346.5,198.5C 346.5,190.5 346.5,182.5 346.5,174.5 Z"/></g>
<g><path style="opacity:0.762" fill="#49423e" d="M 358.5,174.5 C 363.5,174.5 368.5,174.5 373.5,174.5C 373.5,176.5 373.5,178.5 373.5,180.5C 362.833,181.167 362.833,181.833 373.5,182.5C 373.5,184.833 373.5,187.167 373.5,189.5C 362.853,190.009 362.853,190.842 373.5,192C 374.423,194.041 374.756,196.208 374.5,198.5C 369.167,198.5 363.833,198.5 358.5,198.5C 358.5,190.5 358.5,182.5 358.5,174.5 Z"/></g>
<g><path style="opacity:0.761" fill="#49423e" d="M 377.5,174.5 C 379.857,174.337 382.19,174.503 384.5,175C 386.333,177.5 388.167,180 390,182.5C 390.497,179.854 390.664,177.187 390.5,174.5C 392.833,174.5 395.167,174.5 397.5,174.5C 397.5,182.5 397.5,190.5 397.5,198.5C 395.473,198.662 393.473,198.495 391.5,198C 389.208,194.584 387.041,191.084 385,187.5C 384.718,191.002 384.551,194.335 384.5,197.5C 382.305,198.769 380.139,198.769 378,197.5C 377.5,189.841 377.334,182.174 377.5,174.5 Z"/></g>
<g><path style="opacity:0.751" fill="#49423e" d="M 419.5,174.5 C 424.5,174.5 429.5,174.5 434.5,174.5C 434.5,176.5 434.5,178.5 434.5,180.5C 425.167,181.167 425.167,181.833 434.5,182.5C 434.5,184.833 434.5,187.167 434.5,189.5C 425.189,190.012 425.189,190.845 434.5,192C 435.423,194.041 435.756,196.208 435.5,198.5C 430.167,198.5 424.833,198.5 419.5,198.5C 418.637,190.402 418.637,182.402 419.5,174.5 Z"/></g>
</svg>
