<?xml version="1.0" encoding="UTF-8"?>
<!DOCTYPE svg PUBLIC "-//W3C//DTD SVG 1.1//EN" "http://www.w3.org/Graphics/SVG/1.1/DTD/svg11.dtd">
<svg xmlns="http://www.w3.org/2000/svg" version="1.1" width="512px" height="512px" style="shape-rendering:geometricPrecision; text-rendering:geometricPrecision; image-rendering:optimizeQuality; fill-rule:evenodd; clip-rule:evenodd" xmlns:xlink="http://www.w3.org/1999/xlink">
<g><path style="opacity:0.977" fill="#000000" d="M 126.5,15.5 C 153.835,15.3334 181.169,15.5 208.5,16C 224.667,20.1667 234.833,30.3333 239,46.5C 239.977,67.5891 239.643,88.5891 238,109.5C 234.744,111.429 231.244,111.929 227.5,111C 217.5,106 207.5,101 197.5,96C 173.833,95.6667 150.167,95.3333 126.5,95C 110.333,90.8333 100.167,80.6667 96,64.5C 93.0243,39.7532 103.191,23.4199 126.5,15.5 Z"/></g>
<g><path style="opacity:1" fill="#f9b33f" d="M 129.5,31.5 C 154.502,31.3334 179.502,31.5 204.5,32C 213.573,34.7392 219.74,40.5725 223,49.5C 223.667,63.1667 223.667,76.8333 223,90.5C 216.033,86.5998 208.866,83.0998 201.5,80C 177.5,79.6667 153.5,79.3333 129.5,79C 112.697,71.591 107.864,59.4243 115,42.5C 118.951,37.4657 123.784,33.799 129.5,31.5 Z"/></g>
<g><path style="opacity:1" fill="#0d0802" d="M 132.5,47.5 C 138.629,46.5548 142.296,49.0548 143.5,55C 143.333,60.5 140.5,63.3333 135,63.5C 128.894,62.2961 126.561,58.6294 128,52.5C 129.025,50.313 130.525,48.6464 132.5,47.5 Z"/></g>
<g><path style="opacity:1" fill="#0d0802" d="M 164.5,47.5 C 170.629,46.5548 174.296,49.0548 175.5,55C 175.333,60.5 172.5,63.3333 167,63.5C 160.894,62.2961 158.561,58.6294 160,52.5C 161.025,50.313 162.525,48.6464 164.5,47.5 Z"/></g>
<g><path style="opacity:1" fill="#0d0802" d="M 196.5,47.5 C 202.629,46.5548 206.296,49.0548 207.5,55C 207.333,60.5 204.5,63.3333 199,63.5C 192.894,62.2961 190.561,58.6294 192,52.5C 193.025,50.313 194.525,48.6464 196.5,47.5 Z"/></g>
<g><path style="opacity:0.984" fill="#000101" d="M 347.5,63.5 C 371.502,63.3334 395.502,63.5 419.5,64C 420.416,64.3742 421.25,64.8742 422,65.5C 423.651,95.414 423.984,125.414 423,155.5C 422.5,157.333 421.333,158.5 419.5,159C 413.175,159.5 406.842,159.666 400.5,159.5C 400.772,165.851 398.938,171.518 395,176.5C 378.794,194.371 362.96,212.537 347.5,231C 336.837,238.98 324.837,241.813 311.5,239.5C 311.5,252.833 311.5,266.167 311.5,279.5C 329.17,279.667 346.836,279.5 364.5,279C 375.004,270.659 385.337,262.159 395.5,253.5C 382.041,237.686 379.875,220.352 389,201.5C 401.096,185.246 416.929,179.746 436.5,185C 459.218,194.936 467.718,212.103 462,236.5C 459.059,244.437 454.225,250.937 447.5,256C 454.321,261.822 459.155,268.989 462,277.5C 463.429,291.441 463.929,305.441 463.5,319.5C 478.492,316.245 488.992,321.578 495,335.5C 495.667,349.5 495.667,363.5 495,377.5C 488.669,409.326 470.502,431.326 440.5,443.5C 439.503,450.134 439.17,456.8 439.5,463.5C 443.514,463.334 447.514,463.501 451.5,464C 452.416,464.374 453.25,464.874 454,465.5C 458.015,472.523 461.182,479.857 463.5,487.5C 463.833,493.167 461.167,495.833 455.5,495.5C 453.074,495.596 450.907,494.93 449,493.5C 446.833,489.167 444.667,484.833 442.5,480.5C 435.167,479.167 427.833,479.167 420.5,480.5C 418.333,484.833 416.167,489.167 414,493.5C 403.387,498.205 398.72,494.872 400,483.5C 403,477.5 406,471.5 409,465.5C 409.75,464.874 410.584,464.374 411.5,464C 415.486,463.501 419.486,463.334 423.5,463.5C 423.5,458.167 423.5,452.833 423.5,447.5C 410.5,447.5 397.5,447.5 384.5,447.5C 384.667,461.837 384.5,476.171 384,490.5C 383.215,492.286 382.049,493.786 380.5,495C 366.833,495.667 353.167,495.667 339.5,495C 338.584,494.626 337.75,494.126 337,493.5C 335.346,456.585 335.013,419.585 336,382.5C 338.317,373.7 342.817,366.2 349.5,360C 334.504,359.5 319.504,359.333 304.5,359.5C 307.469,403.472 309.636,447.472 311,491.5C 310.5,493.333 309.333,494.5 307.5,495C 294.167,495.667 280.833,495.667 267.5,495C 265.667,494.5 264.5,493.333 264,491.5C 261.086,470.524 258.253,449.524 255.5,428.5C 252.673,448.452 250.173,468.452 248,488.5C 247.594,491.494 246.094,493.661 243.5,495C 230.167,495.667 216.833,495.667 203.5,495C 202.584,494.626 201.75,494.126 201,493.5C 199.899,489.448 199.399,485.281 199.5,481C 201.775,440.492 204.108,399.992 206.5,359.5C 191.496,359.333 176.496,359.5 161.5,360C 168.183,366.2 172.683,373.7 175,382.5C 175.987,419.585 175.654,456.585 174,493.5C 173.25,494.126 172.416,494.626 171.5,495C 157.833,495.667 144.167,495.667 130.5,495C 128.951,493.786 127.785,492.286 127,490.5C 126.5,476.171 126.333,461.837 126.5,447.5C 113.5,447.5 100.5,447.5 87.5,447.5C 87.5,452.833 87.5,458.167 87.5,463.5C 91.5138,463.334 95.5138,463.501 99.5,464C 100.416,464.374 101.25,464.874 102,465.5C 106.015,472.523 109.182,479.857 111.5,487.5C 111.833,493.167 109.167,495.833 103.5,495.5C 101.074,495.596 98.9074,494.93 97,493.5C 94.8333,489.167 92.6667,484.833 90.5,480.5C 83.1667,479.167 75.8333,479.167 68.5,480.5C 66.3333,484.833 64.1667,489.167 62,493.5C 51.3869,498.205 46.7202,494.872 48,483.5C 51,477.5 54,471.5 57,465.5C 57.7504,464.874 58.5838,464.374 59.5,464C 63.4862,463.501 67.4862,463.334 71.5,463.5C 71.83,456.8 71.4967,450.134 70.5,443.5C 40.4976,431.326 22.3309,409.326 16,377.5C 15.3333,363.5 15.3333,349.5 16,335.5C 22.044,321.561 32.544,316.228 47.5,319.5C 47.0715,305.441 47.5715,291.441 49,277.5C 51.8453,268.989 56.6787,261.822 63.5,256C 49.8789,245.485 44.7122,231.651 48,214.5C 53.5654,194.469 66.7321,184.135 87.5,183.5C 108.268,184.135 121.435,194.469 127,214.5C 129.823,229.557 125.989,242.557 115.5,253.5C 125.663,262.159 135.996,270.659 146.5,279C 161.496,279.5 176.496,279.667 191.5,279.5C 191.045,258.113 191.545,236.78 193,215.5C 199.61,197.891 212.11,187.058 230.5,183C 225.305,176.059 222.971,168.225 223.5,159.5C 225.249,134.917 238.416,121.25 263,118.5C 292.504,122.155 305.837,138.822 303,168.5C 301.794,173.792 299.628,178.625 296.5,183C 302.833,183.667 309.167,183.667 315.5,183C 324.667,173.833 333.833,164.667 343,155.5C 343.333,126.167 343.667,96.8333 344,67.5C 344.69,65.6498 345.856,64.3164 347.5,63.5 Z M 111.5,317.5 C 116.599,319.548 121.599,321.882 126.5,324.5C 127.498,333.475 127.832,342.475 127.5,351.5C 122.167,351.5 116.833,351.5 111.5,351.5C 111.5,340.167 111.5,328.833 111.5,317.5 Z M 397.5,317.5 C 399.478,328.451 400.144,339.784 399.5,351.5C 394.167,351.5 388.833,351.5 383.5,351.5C 383.168,342.475 383.502,333.475 384.5,324.5C 389.054,322.392 393.388,320.059 397.5,317.5 Z"/></g>
<g><path style="opacity:1" fill="#cacaca" d="M 391.5,79.5 C 391.5,99.5 391.5,119.5 391.5,139.5C 381.137,132.95 370.804,132.95 360.5,139.5C 359.5,119.511 359.167,99.5111 359.5,79.5C 370.167,79.5 380.833,79.5 391.5,79.5 Z"/></g>
<g><path style="opacity:1" fill="#e9e9e7" d="M 391.5,79.5 C 396.833,79.5 402.167,79.5 407.5,79.5C 407.5,100.833 407.5,122.167 407.5,143.5C 403.154,143.666 398.821,143.499 394.5,143C 393.29,141.961 392.29,140.794 391.5,139.5C 391.5,119.5 391.5,99.5 391.5,79.5 Z"/></g>
<g><path style="opacity:1" fill="#0194e2" d="M 257.5,135.5 C 271.817,134.238 281.65,140.238 287,153.5C 288.761,167.808 282.928,177.642 269.5,183C 254.316,185.326 244.483,179.16 240,164.5C 238.099,153.798 241.599,145.298 250.5,139C 252.925,137.787 255.259,136.621 257.5,135.5 Z"/></g>
<g><path style="opacity:1" fill="#0195e4" d="M 372.5,150.5 C 382.372,150.527 385.872,155.194 383,164.5C 367.206,183.296 351.039,201.796 334.5,220C 332.5,221 330.5,222 328.5,223C 319.167,223.333 309.833,223.667 300.5,224C 298.333,224.833 296.833,226.333 296,228.5C 295.5,256.165 295.333,283.831 295.5,311.5C 276.833,311.5 258.167,311.5 239.5,311.5C 239.667,286.498 239.5,261.498 239,236.5C 235.987,231.465 231.82,230.298 226.5,233C 225.299,233.903 224.465,235.069 224,236.5C 223.5,261.498 223.333,286.498 223.5,311.5C 220.833,311.5 218.167,311.5 215.5,311.5C 215.666,302.494 215.5,293.494 215,284.5C 213.859,281.528 211.692,279.861 208.5,279.5C 207.334,260.509 207.167,241.509 208,222.5C 211.5,211 219,203.5 230.5,200C 261.894,199.978 293.228,199.311 324.5,198C 340.395,181.938 356.395,166.104 372.5,150.5 Z"/></g>
<g><path style="opacity:1" fill="#01a136" d="M 81.5,199.5 C 95.7916,198.228 105.625,204.228 111,217.5C 113.326,232.684 107.16,242.517 92.5,247C 78.2462,248.955 68.7462,243.121 64,229.5C 61.8614,214.769 67.6948,204.769 81.5,199.5 Z"/></g>
<g><path style="opacity:1" fill="#fb6066" d="M 417.5,199.5 C 431.817,198.238 441.65,204.238 447,217.5C 448.75,231.833 442.917,241.666 429.5,247C 414.316,249.326 404.483,243.16 400,228.5C 398.099,217.798 401.599,209.298 410.5,203C 412.925,201.787 415.259,200.621 417.5,199.5 Z"/></g>
<g><path style="opacity:1" fill="#01a336" d="M 84.5,263.5 C 92.2981,262.783 99.6315,264.283 106.5,268C 117.545,277.381 128.879,286.381 140.5,295C 160.164,295.5 179.831,295.667 199.5,295.5C 199.5,300.833 199.5,306.167 199.5,311.5C 178.497,311.667 157.497,311.5 136.5,311C 126.289,305.728 115.956,300.728 105.5,296C 101.114,294.943 97.9473,296.443 96,300.5C 95.0339,321.897 95.3672,343.231 97,364.5C 97.9025,365.701 99.0692,366.535 100.5,367C 113.833,367.333 127.167,367.667 140.5,368C 148.428,370.257 154.261,375.091 158,382.5C 159.478,414.771 159.978,447.104 159.5,479.5C 154.167,479.5 148.833,479.5 143.5,479.5C 143.981,453.744 143.481,428.077 142,402.5C 140.829,401.107 139.329,400.273 137.5,400C 120.447,399.943 103.447,399.276 86.5,398C 76,394.167 68.8333,387 65,376.5C 63.3642,345.881 63.0309,315.215 64,284.5C 67.6854,274.316 74.5187,267.316 84.5,263.5 Z"/></g>
<g><path style="opacity:1" fill="#fe6167" d="M 413.5,263.5 C 430.224,261.773 441.39,268.773 447,284.5C 447.667,313.833 447.667,343.167 447,372.5C 443.279,387.554 433.779,396.388 418.5,399C 403.167,399.333 387.833,399.667 372.5,400C 371.069,400.465 369.903,401.299 369,402.5C 367.519,428.077 367.019,453.744 367.5,479.5C 362.167,479.5 356.833,479.5 351.5,479.5C 351.022,447.104 351.522,414.771 353,382.5C 356.643,375.522 362.143,370.689 369.5,368C 382.833,367.667 396.167,367.333 409.5,367C 411.329,366.727 412.829,365.893 414,364.5C 415.633,343.231 415.966,321.897 415,300.5C 412.774,296.139 409.274,294.639 404.5,296C 394.5,301 384.5,306 374.5,311C 353.503,311.5 332.503,311.667 311.5,311.5C 311.5,306.167 311.5,300.833 311.5,295.5C 330.836,295.667 350.17,295.5 369.5,295C 381.673,286.736 393.34,277.736 404.5,268C 407.592,266.454 410.592,264.954 413.5,263.5 Z"/></g>
<g><path style="opacity:1" fill="#fab53f" d="M 367.5,335.5 C 292.833,335.5 218.167,335.5 143.5,335.5C 143.5,332.833 143.5,330.167 143.5,327.5C 218.167,327.5 292.833,327.5 367.5,327.5C 367.5,330.167 367.5,332.833 367.5,335.5 Z"/></g>
<g><path style="opacity:1" fill="#e42e3d" d="M 35.5,335.5 C 40.2225,334.553 44.0558,335.886 47,339.5C 42.5081,397.839 69.3414,423.172 127.5,415.5C 127.5,420.833 127.5,426.167 127.5,431.5C 114.163,431.667 100.829,431.5 87.5,431C 59.2843,424.451 41.1176,407.284 33,379.5C 31.5011,366.201 31.1678,352.867 32,339.5C 33.3756,338.295 34.5423,336.962 35.5,335.5 Z"/></g>
<g><path style="opacity:1" fill="#e99d2c" d="M 143.5,335.5 C 218.167,335.5 292.833,335.5 367.5,335.5C 367.5,338.167 367.5,340.833 367.5,343.5C 292.833,343.5 218.167,343.5 143.5,343.5C 143.5,340.833 143.5,338.167 143.5,335.5 Z"/></g>
<g><path style="opacity:1" fill="#016a9f" d="M 467.5,335.5 C 472.223,334.553 476.056,335.886 479,339.5C 479.667,350.167 479.667,360.833 479,371.5C 474.886,400.286 459.052,419.453 431.5,429C 427.558,429.993 423.558,430.66 419.5,431C 407.505,431.5 395.505,431.667 383.5,431.5C 383.5,426.167 383.5,420.833 383.5,415.5C 441.707,423.122 468.54,397.789 464,339.5C 465.376,338.295 466.542,336.962 467.5,335.5 Z"/></g>
<g><path style="opacity:1" fill="#0193e1" d="M 222.5,359.5 C 230.5,359.5 238.5,359.5 246.5,359.5C 241.906,399.514 237.239,439.514 232.5,479.5C 227.167,479.5 221.833,479.5 216.5,479.5C 218.617,439.506 220.617,399.506 222.5,359.5 Z"/></g>
<g><path style="opacity:1" fill="#0193e1" d="M 264.5,359.5 C 272.5,359.5 280.5,359.5 288.5,359.5C 290.383,399.505 292.383,439.505 294.5,479.5C 289.167,479.5 283.833,479.5 278.5,479.5C 274.052,439.477 269.385,399.477 264.5,359.5 Z"/></g>
</svg>
