<?xml version="1.0" encoding="UTF-8"?>
<!DOCTYPE svg PUBLIC "-//W3C//DTD SVG 1.1//EN" "http://www.w3.org/Graphics/SVG/1.1/DTD/svg11.dtd">
<svg xmlns="http://www.w3.org/2000/svg" version="1.1" width="512px" height="512px" style="shape-rendering:geometricPrecision; text-rendering:geometricPrecision; image-rendering:optimizeQuality; fill-rule:evenodd; clip-rule:evenodd" xmlns:xlink="http://www.w3.org/1999/xlink">
<g><path style="opacity:0.021" fill="#43443f" d="M -0.5,-0.5 C 0.166667,-0.5 0.833333,-0.5 1.5,-0.5C 1.16667,0.5 0.5,1.16667 -0.5,1.5C -0.5,0.833333 -0.5,0.166667 -0.5,-0.5 Z"/></g>
<g><path style="opacity:0.022" fill="#43443f" d="M 16.5,-0.5 C 18.1667,-0.5 19.8333,-0.5 21.5,-0.5C 14.5,7.16667 7.16667,14.5 -0.5,21.5C -0.5,19.8333 -0.5,18.1667 -0.5,16.5C 5.5,11.1667 11.1667,5.5 16.5,-0.5 Z"/></g>
<g><path style="opacity:0.022" fill="#43443f" d="M 36.5,-0.5 C 38.1667,-0.5 39.8333,-0.5 41.5,-0.5C 27.8333,13.8333 13.8333,27.8333 -0.5,41.5C -0.5,39.8333 -0.5,38.1667 -0.5,36.5C 12.1667,24.5 24.5,12.1667 36.5,-0.5 Z"/></g>
<g><path style="opacity:0.022" fill="#43443f" d="M 56.5,-0.5 C 58.1667,-0.5 59.8333,-0.5 61.5,-0.5C 41.1667,20.5 20.5,41.1667 -0.5,61.5C -0.5,59.8333 -0.5,58.1667 -0.5,56.5C 18.8333,37.8333 37.8333,18.8333 56.5,-0.5 Z"/></g>
<g><path style="opacity:0.022" fill="#43443f" d="M 76.5,-0.5 C 78.1667,-0.5 79.8333,-0.5 81.5,-0.5C 54.5,27.1667 27.1667,54.5 -0.5,81.5C -0.5,79.8333 -0.5,78.1667 -0.5,76.5C 25.5,51.1667 51.1667,25.5 76.5,-0.5 Z"/></g>
<g><path style="opacity:0.022" fill="#43443f" d="M 96.5,-0.5 C 98.1667,-0.5 99.8333,-0.5 101.5,-0.5C 67.8333,33.8333 33.8333,67.8333 -0.5,101.5C -0.5,99.8333 -0.5,98.1667 -0.5,96.5C 32.1667,64.5 64.5,32.1667 96.5,-0.5 Z"/></g>
<g><path style="opacity:0.022" fill="#43443f" d="M 116.5,-0.5 C 118.167,-0.5 119.833,-0.5 121.5,-0.5C 81.1667,40.5 40.5,81.1667 -0.5,121.5C -0.5,119.833 -0.5,118.167 -0.5,116.5C 38.8333,77.8333 77.8333,38.8333 116.5,-0.5 Z"/></g>
<g><path style="opacity:0.022" fill="#43443f" d="M 136.5,-0.5 C 138.167,-0.5 139.833,-0.5 141.5,-0.5C 94.5,47.1667 47.1667,94.5 -0.5,141.5C -0.5,139.833 -0.5,138.167 -0.5,136.5C 45.5,91.1667 91.1667,45.5 136.5,-0.5 Z"/></g>
<g><path style="opacity:0.022" fill="#43443f" d="M 156.5,-0.5 C 158.167,-0.5 159.833,-0.5 161.5,-0.5C 107.833,53.8333 53.8333,107.833 -0.5,161.5C -0.5,159.833 -0.5,158.167 -0.5,156.5C 52.1667,104.5 104.5,52.1667 156.5,-0.5 Z"/></g>
<g><path style="opacity:0.022" fill="#43443f" d="M 176.5,-0.5 C 178.167,-0.5 179.833,-0.5 181.5,-0.5C 121.167,60.5 60.5,121.167 -0.5,181.5C -0.5,179.833 -0.5,178.167 -0.5,176.5C 58.8333,117.833 117.833,58.8333 176.5,-0.5 Z"/></g>
<g><path style="opacity:0.022" fill="#43443f" d="M 196.5,-0.5 C 198.167,-0.5 199.833,-0.5 201.5,-0.5C 134.5,67.1667 67.1667,134.5 -0.5,201.5C -0.5,199.833 -0.5,198.167 -0.5,196.5C 65.5,131.167 131.167,65.5 196.5,-0.5 Z"/></g>
<g><path style="opacity:0.022" fill="#43443f" d="M 216.5,-0.5 C 218.167,-0.5 219.833,-0.5 221.5,-0.5C 194.167,27.1667 166.833,54.8333 139.5,82.5C 137.833,82.5 136.167,82.5 134.5,82.5C 161.833,54.8333 189.167,27.1667 216.5,-0.5 Z"/></g>
<g><path style="opacity:0.022" fill="#43433f" d="M 236.5,-0.5 C 238.167,-0.5 239.833,-0.5 241.5,-0.5C 235.5,5.83333 229.5,12.1667 223.5,18.5C 222.833,18.5 222.5,18.8333 222.5,19.5C 218.472,21.845 214.472,24.1783 210.5,26.5C 219.167,17.5 227.833,8.5 236.5,-0.5 Z"/></g>
<g><path style="opacity:0.022" fill="#43433f" d="M 256.5,-0.5 C 258.167,-0.5 259.833,-0.5 261.5,-0.5C 257.833,3.5 254.167,7.5 250.5,11.5C 248.5,11.8333 246.5,12.1667 244.5,12.5C 248.5,8.16667 252.5,3.83333 256.5,-0.5 Z"/></g>
<g><path style="opacity:0.022" fill="#43443f" d="M 276.5,-0.5 C 278.167,-0.5 279.833,-0.5 281.5,-0.5C 277.5,3.83333 273.5,8.16667 269.5,12.5C 267.585,12.7845 265.919,12.4511 264.5,11.5C 268.833,7.83333 272.833,3.83333 276.5,-0.5 Z"/></g>
<g><path style="opacity:0.022" fill="#43443f" d="M 296.5,-0.5 C 298.167,-0.5 299.833,-0.5 301.5,-0.5C 295.833,5.5 290.167,11.5 284.5,17.5C 283.005,17.0113 281.671,16.3446 280.5,15.5C 286.167,10.5 291.5,5.16667 296.5,-0.5 Z"/></g>
<g><path style="opacity:0.022" fill="#43443f" d="M 316.5,-0.5 C 318.167,-0.5 319.833,-0.5 321.5,-0.5C 313.5,7.83333 305.5,16.1667 297.5,24.5C 296.29,24.0679 295.29,23.4013 294.5,22.5C 301.833,14.8333 309.167,7.16667 316.5,-0.5 Z"/></g>
<g><path style="opacity:0.022" fill="#43443f" d="M 336.5,-0.5 C 338.167,-0.5 339.833,-0.5 341.5,-0.5C 330.5,10.8333 319.5,22.1667 308.5,33.5C 307.167,32.8333 306.167,31.8333 305.5,30.5C 316.167,20.5 326.5,10.1667 336.5,-0.5 Z"/></g>
<g><path style="opacity:0.022" fill="#43443f" d="M 356.5,-0.5 C 358.167,-0.5 359.833,-0.5 361.5,-0.5C 346.833,14.8333 331.833,29.8333 316.5,44.5C 315.833,43.5 315.167,42.5 314.5,41.5C 328.833,27.8333 342.833,13.8333 356.5,-0.5 Z"/></g>
<g><path style="opacity:0.022" fill="#43433f" d="M 376.5,-0.5 C 378.167,-0.5 379.833,-0.5 381.5,-0.5C 362.5,19.1667 343.167,38.5 323.5,57.5C 322.596,56.791 322.263,55.791 322.5,54.5C 340.5,36.1667 358.5,17.8333 376.5,-0.5 Z"/></g>
<g><path style="opacity:0.022" fill="#43443f" d="M 396.5,-0.5 C 398.167,-0.5 399.833,-0.5 401.5,-0.5C 377.167,24.5 352.5,49.1667 327.5,73.5C 327.567,72.0413 327.234,70.7079 326.5,69.5C 350.167,46.5 373.5,23.1667 396.5,-0.5 Z"/></g>
<g><path style="opacity:0.022" fill="#43443f" d="M 416.5,-0.5 C 418.167,-0.5 419.833,-0.5 421.5,-0.5C 390.5,31.1667 359.167,62.5 327.5,93.5C 327.517,91.4352 327.85,89.4352 328.5,87.5C 358.167,58.5 387.5,29.1667 416.5,-0.5 Z"/></g>
<g><path style="opacity:0.022" fill="#43443f" d="M 436.5,-0.5 C 438.167,-0.5 439.833,-0.5 441.5,-0.5C 400.5,41.1667 359.167,82.5 317.5,123.5C 318.561,120.378 319.895,117.378 321.5,114.5C 322.167,114.5 322.5,114.167 322.5,113.5C 360.833,75.8333 398.833,37.8333 436.5,-0.5 Z"/></g>
<g><path style="opacity:0.022" fill="#43443f" d="M 456.5,-0.5 C 458.167,-0.5 459.833,-0.5 461.5,-0.5C 434.167,27.1667 406.833,54.8333 379.5,82.5C 377.833,82.5 376.167,82.5 374.5,82.5C 401.833,54.8333 429.167,27.1667 456.5,-0.5 Z"/></g>
<g><path style="opacity:0.022" fill="#43443f" d="M 476.5,-0.5 C 478.167,-0.5 479.833,-0.5 481.5,-0.5C 452.833,28.8333 423.833,57.8333 394.5,86.5C 393.391,86.4431 392.391,86.1098 391.5,85.5C 419.833,56.8333 448.167,28.1667 476.5,-0.5 Z"/></g>
<g><path style="opacity:0.022" fill="#43443f" d="M 496.5,-0.5 C 498.167,-0.5 499.833,-0.5 501.5,-0.5C 469.5,32.1667 437.167,64.5 404.5,96.5C 403.833,95.5 403.167,94.5 402.5,93.5C 434.167,62.5 465.5,31.1667 496.5,-0.5 Z"/></g>
<g><path style="opacity:0.022" fill="#43443f" d="M 511.5,5.5 C 511.5,7.16667 511.5,8.83333 511.5,10.5C 477.5,43.8333 443.833,77.5 410.5,111.5C 409.549,110.081 409.216,108.415 409.5,106.5C 443.5,72.8333 477.5,39.1667 511.5,5.5 Z"/></g>
<g><path style="opacity:0.978" fill="#1e1d1b" d="M 250.5,11.5 C 255.167,11.5 259.833,11.5 264.5,11.5C 265.919,12.4511 267.585,12.7845 269.5,12.5C 273.107,13.652 276.773,14.652 280.5,15.5C 281.671,16.3446 283.005,17.0113 284.5,17.5C 287.833,19.1667 291.167,20.8333 294.5,22.5C 295.29,23.4013 296.29,24.0679 297.5,24.5C 299.86,26.8532 302.527,28.8532 305.5,30.5C 306.167,31.8333 307.167,32.8333 308.5,33.5C 310.115,36.4495 312.115,39.1162 314.5,41.5C 315.167,42.5 315.833,43.5 316.5,44.5C 318.515,47.8691 320.515,51.2024 322.5,54.5C 322.263,55.791 322.596,56.791 323.5,57.5C 324.812,61.4163 325.812,65.4163 326.5,69.5C 327.234,70.7079 327.567,72.0413 327.5,73.5C 328.127,78.1408 328.46,82.8075 328.5,87.5C 327.85,89.4352 327.517,91.4352 327.5,93.5C 326.652,100.375 324.986,107.042 322.5,113.5C 321.833,113.5 321.5,113.833 321.5,114.5C 319.895,117.378 318.561,120.378 317.5,123.5C 311.04,131.794 303.706,139.294 295.5,146C 299.547,147.072 303.547,148.239 307.5,149.5C 308.391,150.11 309.391,150.443 310.5,150.5C 313.515,152.674 316.849,154.341 320.5,155.5C 321.167,156.833 322.167,157.833 323.5,158.5C 326.5,160.5 329.5,162.5 332.5,164.5C 332.833,165.5 333.5,166.167 334.5,166.5C 336.833,169.5 339.5,172.167 342.5,174.5C 342.932,175.71 343.599,176.71 344.5,177.5C 346.147,180.473 348.147,183.14 350.5,185.5C 350.66,187.153 351.326,188.486 352.5,189.5C 354.028,192.749 355.361,196.082 356.5,199.5C 356.932,200.71 357.599,201.71 358.5,202.5C 359.5,206.499 360.5,210.499 361.5,214.5C 361.232,216.099 361.566,217.432 362.5,218.5C 362.54,223.193 362.873,227.859 363.5,232.5C 363.5,234.167 363.5,235.833 363.5,237.5C 363.5,242.5 363.5,247.5 363.5,252.5C 363.5,254.167 363.5,255.833 363.5,257.5C 363.5,259.167 363.5,260.833 363.5,262.5C 367.167,262.5 370.833,262.5 374.5,262.5C 376.167,262.5 377.833,262.5 379.5,262.5C 384.511,262.666 389.511,262.499 394.5,262C 398.333,258.167 402.167,254.333 406,250.5C 407.347,244.905 408.18,239.238 408.5,233.5C 409.341,231.621 409.675,229.621 409.5,227.5C 410.682,221.564 411.682,215.564 412.5,209.5C 412.833,207.5 413.167,205.5 413.5,203.5C 414.354,197.858 415.02,192.191 415.5,186.5C 416.341,184.621 416.675,182.621 416.5,180.5C 417.165,177.53 417.831,174.53 418.5,171.5C 417.388,169.581 416.054,167.914 414.5,166.5C 414.068,165.29 413.401,164.29 412.5,163.5C 410.5,160.833 408.5,158.167 406.5,155.5C 405.833,154.167 404.833,153.167 403.5,152.5C 401.853,149.527 399.853,146.86 397.5,144.5C 397.189,143.522 396.522,142.855 395.5,142.5C 394.14,143.18 392.807,143.847 391.5,144.5C 390.833,144.5 390.5,144.833 390.5,145.5C 384.969,147.125 379.303,147.791 373.5,147.5C 372.041,147.567 370.708,147.234 369.5,146.5C 365.736,145.452 362.069,144.119 358.5,142.5C 358.167,141.5 357.5,140.833 356.5,140.5C 354.138,137.808 351.804,135.141 349.5,132.5C 349.34,130.847 348.674,129.514 347.5,128.5C 346.386,124.75 345.386,121.083 344.5,117.5C 344.517,115.435 344.85,113.435 345.5,111.5C 348.118,94.8821 357.784,85.2155 374.5,82.5C 376.167,82.5 377.833,82.5 379.5,82.5C 383.678,82.8779 387.678,83.8779 391.5,85.5C 392.391,86.1098 393.391,86.4431 394.5,86.5C 397.141,88.8044 399.808,91.1377 402.5,93.5C 403.167,94.5 403.833,95.5 404.5,96.5C 406.558,99.697 408.225,103.03 409.5,106.5C 409.216,108.415 409.549,110.081 410.5,111.5C 410.267,116.894 409.601,122.227 408.5,127.5C 408.932,128.71 409.599,129.71 410.5,130.5C 412.603,133.72 414.936,136.72 417.5,139.5C 417.833,140.5 418.5,141.167 419.5,141.5C 421.482,144.81 423.815,147.81 426.5,150.5C 426.427,152.027 427.094,153.027 428.5,153.5C 430.5,156.167 432.5,158.833 434.5,161.5C 435.167,162.833 436.167,163.833 437.5,164.5C 436.927,169.847 436.26,175.18 435.5,180.5C 434.85,182.435 434.517,184.435 434.5,186.5C 433.685,192.538 432.685,198.538 431.5,204.5C 431.5,206.167 431.5,207.833 431.5,209.5C 430.073,215.394 429.073,221.394 428.5,227.5C 427.85,229.435 427.517,231.435 427.5,233.5C 426.499,239.508 425.499,245.508 424.5,251.5C 424.483,253.565 424.15,255.565 423.5,257.5C 423.5,259.167 423.5,260.833 423.5,262.5C 427.167,262.5 430.833,262.5 434.5,262.5C 436.167,262.5 437.833,262.5 439.5,262.5C 444.5,262.5 449.5,262.5 454.5,262.5C 456.167,262.5 457.833,262.5 459.5,262.5C 463.971,261.911 467.971,262.577 471.5,264.5C 471.5,266.167 471.5,267.833 471.5,269.5C 471.5,274.5 471.5,279.5 471.5,284.5C 471.5,286.167 471.5,287.833 471.5,289.5C 471.5,294.5 471.5,299.5 471.5,304.5C 471.5,306.167 471.5,307.833 471.5,309.5C 471.5,314.5 471.5,319.5 471.5,324.5C 471.5,325.167 471.167,325.5 470.5,325.5C 461.068,323.256 453.568,325.923 448,333.5C 446.179,339.773 444.679,346.107 443.5,352.5C 442.85,354.435 442.517,356.435 442.5,358.5C 440.699,364.707 439.366,371.04 438.5,377.5C 437.681,379.772 437.015,382.106 436.5,384.5C 435.421,390.893 434.088,397.226 432.5,403.5C 432.167,405.5 431.833,407.5 431.5,409.5C 430.01,415.795 428.677,422.128 427.5,428.5C 426.659,430.379 426.325,432.379 426.5,434.5C 424.659,440.702 423.326,447.035 422.5,453.5C 421.833,453.5 421.5,453.833 421.5,454.5C 421.167,456.5 420.833,458.5 420.5,460.5C 419.166,466.838 417.833,473.171 416.5,479.5C 415.85,481.435 415.517,483.435 415.5,485.5C 414.249,490.085 413.249,494.752 412.5,499.5C 408.833,499.5 405.167,499.5 401.5,499.5C 399.833,499.5 398.167,499.5 396.5,499.5C 391.5,499.5 386.5,499.5 381.5,499.5C 379.833,499.5 378.167,499.5 376.5,499.5C 371.5,499.5 366.5,499.5 361.5,499.5C 359.833,499.5 358.167,499.5 356.5,499.5C 351.5,499.5 346.5,499.5 341.5,499.5C 339.833,499.5 338.167,499.5 336.5,499.5C 331.5,499.5 326.5,499.5 321.5,499.5C 319.833,499.5 318.167,499.5 316.5,499.5C 311.5,499.5 306.5,499.5 301.5,499.5C 299.833,499.5 298.167,499.5 296.5,499.5C 291.5,499.5 286.5,499.5 281.5,499.5C 279.833,499.5 278.167,499.5 276.5,499.5C 271.5,499.5 266.5,499.5 261.5,499.5C 259.833,499.5 258.167,499.5 256.5,499.5C 251.5,499.5 246.5,499.5 241.5,499.5C 239.833,499.5 238.167,499.5 236.5,499.5C 231.5,499.5 226.5,499.5 221.5,499.5C 219.833,499.5 218.167,499.5 216.5,499.5C 211.5,499.5 206.5,499.5 201.5,499.5C 199.833,499.5 198.167,499.5 196.5,499.5C 191.5,499.5 186.5,499.5 181.5,499.5C 179.833,499.5 178.167,499.5 176.5,499.5C 171.5,499.5 166.5,499.5 161.5,499.5C 159.833,499.5 158.167,499.5 156.5,499.5C 151.5,499.5 146.5,499.5 141.5,499.5C 139.833,499.5 138.167,499.5 136.5,499.5C 131.5,499.5 126.5,499.5 121.5,499.5C 119.833,499.5 118.167,499.5 116.5,499.5C 111.5,499.5 106.5,499.5 101.5,499.5C 100.209,499.737 99.209,499.404 98.5,498.5C 97.7378,494.329 96.7378,490.329 95.5,486.5C 95.7845,484.585 95.4511,482.919 94.5,481.5C 93.9619,477.476 93.2952,473.476 92.5,469.5C 92.1667,468.167 91.8333,466.833 91.5,465.5C 90.7378,461.329 89.7378,457.329 88.5,453.5C 88.7845,451.585 88.4511,449.919 87.5,448.5C 86.9619,444.476 86.2952,440.476 85.5,436.5C 85.1667,435.167 84.8333,433.833 84.5,432.5C 83.7378,428.329 82.7378,424.329 81.5,420.5C 81.7845,418.585 81.4511,416.919 80.5,415.5C 79.9619,411.476 79.2952,407.476 78.5,403.5C 78.1667,402.167 77.8333,400.833 77.5,399.5C 76.7378,395.329 75.7378,391.329 74.5,387.5C 74.7845,385.585 74.4511,383.919 73.5,382.5C 72.9619,378.476 72.2952,374.476 71.5,370.5C 71.1667,369.167 70.8333,367.833 70.5,366.5C 69.7378,362.329 68.7378,358.329 67.5,354.5C 67.7845,352.585 67.4511,350.919 66.5,349.5C 65.9619,345.476 65.2952,341.476 64.5,337.5C 64.1667,336.167 63.8333,334.833 63.5,333.5C 62.9396,331.199 62.4396,328.866 62,326.5C 59.9592,325.577 57.7925,325.244 55.5,325.5C 53.8333,325.5 52.1667,325.5 50.5,325.5C 46.8333,325.5 43.1667,325.5 39.5,325.5C 39.5,324.5 39.5,323.5 39.5,322.5C 39.5,320.833 39.5,319.167 39.5,317.5C 39.5,312.5 39.5,307.5 39.5,302.5C 39.5,300.833 39.5,299.167 39.5,297.5C 39.5,292.5 39.5,287.5 39.5,282.5C 39.5,280.833 39.5,279.167 39.5,277.5C 39.5,272.5 39.5,267.5 39.5,262.5C 44.5,262.5 49.5,262.5 54.5,262.5C 56.1667,262.5 57.8333,262.5 59.5,262.5C 64.5,262.5 69.5,262.5 74.5,262.5C 76.1667,262.5 77.8333,262.5 79.5,262.5C 83.1667,262.5 86.8333,262.5 90.5,262.5C 90.3841,259.14 90.0508,255.807 89.5,252.5C 89.5674,251.041 89.2341,249.708 88.5,248.5C 88.2012,244.072 87.5346,239.739 86.5,235.5C 86.5,233.833 86.5,232.167 86.5,230.5C 85.298,226.286 84.6314,221.952 84.5,217.5C 83.7659,216.292 83.4326,214.959 83.5,213.5C 82.9412,209.147 82.2745,204.814 81.5,200.5C 81.7678,198.901 81.4345,197.568 80.5,196.5C 80.5621,191.924 79.8955,187.591 78.5,183.5C 78.5,181.833 78.5,180.167 78.5,178.5C 77.6484,174.206 76.9817,169.873 76.5,165.5C 80.5251,159.815 84.5251,154.149 88.5,148.5C 94.1656,141.998 99.6656,135.331 105,128.5C 105.214,125.066 104.714,121.733 103.5,118.5C 103.5,116.833 103.5,115.167 103.5,113.5C 105.554,94.7791 115.887,84.4458 134.5,82.5C 136.167,82.5 137.833,82.5 139.5,82.5C 143.721,82.686 147.721,83.686 151.5,85.5C 152.5,86.1667 153.5,86.8333 154.5,87.5C 157.167,89.8333 159.833,92.1667 162.5,94.5C 162.932,95.7095 163.599,96.7095 164.5,97.5C 166.029,100.754 167.362,104.087 168.5,107.5C 168.5,109.167 168.5,110.833 168.5,112.5C 168.941,118.774 167.941,124.774 165.5,130.5C 164.833,130.5 164.5,130.833 164.5,131.5C 161.833,136.167 158.167,139.833 153.5,142.5C 152.833,142.5 152.5,142.833 152.5,143.5C 151.833,143.5 151.5,143.833 151.5,144.5C 145.668,146.457 139.668,147.457 133.5,147.5C 132.167,147.167 130.833,146.833 129.5,146.5C 125.668,146.056 122.168,144.722 119,142.5C 110.622,150.942 102.955,159.942 96,169.5C 96.2012,172.777 96.3679,176.111 96.5,179.5C 97.2341,180.708 97.5674,182.041 97.5,183.5C 98.1667,187.833 98.8333,192.167 99.5,196.5C 99.4326,197.959 99.7659,199.292 100.5,200.5C 100.624,205.049 101.291,209.382 102.5,213.5C 102.5,215.167 102.5,216.833 102.5,218.5C 103.535,222.739 104.201,227.072 104.5,231.5C 104.833,232.833 105.167,234.167 105.5,235.5C 105.982,239.873 106.648,244.206 107.5,248.5C 107.216,250.415 107.549,252.081 108.5,253.5C 108.274,256.249 108.607,258.916 109.5,261.5C 111.045,262.452 112.712,262.785 114.5,262.5C 116.167,262.5 117.833,262.5 119.5,262.5C 124.511,262.666 129.511,262.499 134.5,262C 138.667,257.833 142.833,253.667 147,249.5C 147.499,244.511 147.666,239.511 147.5,234.5C 147.5,232.833 147.5,231.167 147.5,229.5C 148.457,223.884 149.124,218.217 149.5,212.5C 150.167,212.5 150.5,212.167 150.5,211.5C 151.15,209.565 151.483,207.565 151.5,205.5C 161.612,177.555 180.612,158.388 208.5,148C 210.638,146.578 211.805,144.745 212,142.5C 209.337,140.666 206.837,138.666 204.5,136.5C 204.167,135.5 203.5,134.833 202.5,134.5C 200.157,131.793 197.823,129.126 195.5,126.5C 195.573,124.973 194.906,123.973 193.5,123.5C 192.341,119.849 190.674,116.515 188.5,113.5C 188.167,112.167 187.833,110.833 187.5,109.5C 185.937,105.478 184.604,101.478 183.5,97.5C 183.5,96.1667 183.5,94.8333 183.5,93.5C 182.771,88.8696 182.437,84.2029 182.5,79.5C 183.341,77.6208 183.675,75.6208 183.5,73.5C 184.725,66.2652 186.725,59.2652 189.5,52.5C 190.167,52.5 190.5,52.1667 190.5,51.5C 192.845,47.4725 195.178,43.4725 197.5,39.5C 201.5,34.8333 205.833,30.5 210.5,26.5C 214.472,24.1783 218.472,21.845 222.5,19.5C 223.167,19.5 223.5,19.1667 223.5,18.5C 230.171,15.4151 237.171,13.4151 244.5,12.5C 246.5,12.1667 248.5,11.8333 250.5,11.5 Z M 183.5,97.5 C 184.604,101.478 185.937,105.478 187.5,109.5C 180.167,116.5 172.833,123.5 165.5,130.5C 167.941,124.774 168.941,118.774 168.5,112.5C 173.833,107.833 178.833,102.833 183.5,97.5 Z M 188.5,113.5 C 190.674,116.515 192.341,119.849 193.5,123.5C 163.167,153.5 132.833,183.5 102.5,213.5C 101.291,209.382 100.624,205.049 100.5,200.5C 129.833,171.5 159.167,142.5 188.5,113.5 Z M 344.5,117.5 C 345.386,121.083 346.386,124.75 347.5,128.5C 338.833,137.833 329.833,146.833 320.5,155.5C 316.849,154.341 313.515,152.674 310.5,150.5C 321.833,139.5 333.167,128.5 344.5,117.5 Z M 195.5,126.5 C 197.823,129.126 200.157,131.793 202.5,134.5C 169.833,166.833 137.167,199.167 104.5,231.5C 104.201,227.072 103.535,222.739 102.5,218.5C 133.5,187.833 164.5,157.167 195.5,126.5 Z M 349.5,132.5 C 351.804,135.141 354.138,137.808 356.5,140.5C 348.167,148.167 340.167,156.167 332.5,164.5C 329.5,162.5 326.5,160.5 323.5,158.5C 331.833,149.5 340.5,140.833 349.5,132.5 Z M 204.5,136.5 C 206.837,138.666 209.337,140.666 212,142.5C 211.805,144.745 210.638,146.578 208.5,148C 180.612,158.388 161.612,177.555 151.5,205.5C 136.833,219.833 122.167,234.167 107.5,248.5C 106.648,244.206 105.982,239.873 105.5,235.5C 138.833,202.833 171.833,169.833 204.5,136.5 Z M 129.5,146.5 C 118.833,157.833 107.833,168.833 96.5,179.5C 96.3679,176.111 96.2012,172.777 96,169.5C 102.955,159.942 110.622,150.942 119,142.5C 122.168,144.722 125.668,146.056 129.5,146.5 Z M 358.5,142.5 C 362.069,144.119 365.736,145.452 369.5,146.5C 360.5,155.833 351.5,165.167 342.5,174.5C 339.5,172.167 336.833,169.5 334.5,166.5C 342.833,158.833 350.833,150.833 358.5,142.5 Z M 151.5,144.5 C 134.5,162.167 117.167,179.5 99.5,196.5C 98.8333,192.167 98.1667,187.833 97.5,183.5C 109.833,171.833 121.833,159.833 133.5,147.5C 139.668,147.457 145.668,146.457 151.5,144.5 Z M 397.5,144.5 C 399.853,146.86 401.853,149.527 403.5,152.5C 388.167,168.5 372.5,184.167 356.5,199.5C 355.361,196.082 354.028,192.749 352.5,189.5C 367.167,174.167 382.167,159.167 397.5,144.5 Z M 390.5,145.5 C 377.5,159.167 364.167,172.5 350.5,185.5C 348.147,183.14 346.147,180.473 344.5,177.5C 354.167,167.5 363.833,157.5 373.5,147.5C 379.303,147.791 384.969,147.125 390.5,145.5 Z M 406.5,155.5 C 408.5,158.167 410.5,160.833 412.5,163.5C 395.833,180.833 378.833,197.833 361.5,214.5C 360.5,210.499 359.5,206.499 358.5,202.5C 374.5,186.833 390.5,171.167 406.5,155.5 Z M 414.5,166.5 C 416.054,167.914 417.388,169.581 418.5,171.5C 417.831,174.53 417.165,177.53 416.5,180.5C 398.833,197.833 381.167,215.167 363.5,232.5C 362.873,227.859 362.54,223.193 362.5,218.5C 380.167,201.5 397.5,184.167 414.5,166.5 Z M 415.5,186.5 C 415.02,192.191 414.354,197.858 413.5,203.5C 396.833,219.833 380.167,236.167 363.5,252.5C 363.5,247.5 363.5,242.5 363.5,237.5C 380.833,220.5 398.167,203.5 415.5,186.5 Z M 412.5,209.5 C 411.682,215.564 410.682,221.564 409.5,227.5C 397.5,238.833 385.833,250.5 374.5,262.5C 370.833,262.5 367.167,262.5 363.5,262.5C 363.5,260.833 363.5,259.167 363.5,257.5C 379.833,241.5 396.167,225.5 412.5,209.5 Z M 149.5,212.5 C 149.124,218.217 148.457,223.884 147.5,229.5C 136.167,240.167 125.167,251.167 114.5,262.5C 112.712,262.785 111.045,262.452 109.5,261.5C 108.607,258.916 108.274,256.249 108.5,253.5C 121.833,239.5 135.5,225.833 149.5,212.5 Z M 408.5,233.5 C 408.18,239.238 407.347,244.905 406,250.5C 402.167,254.333 398.333,258.167 394.5,262C 389.511,262.499 384.511,262.666 379.5,262.5C 388.833,252.5 398.5,242.833 408.5,233.5 Z M 147.5,234.5 C 147.666,239.511 147.499,244.511 147,249.5C 142.833,253.667 138.667,257.833 134.5,262C 129.511,262.499 124.511,262.666 119.5,262.5C 128.5,252.833 137.833,243.5 147.5,234.5 Z M 147.5,261.5 C 147.5,261.833 147.5,262.167 147.5,262.5C 144.813,262.664 142.146,262.497 139.5,262C 142,259.5 144.5,257 147,254.5C 147.497,256.81 147.663,259.143 147.5,261.5 Z M 404.5,256.5 C 405.291,258.309 405.291,260.309 404.5,262.5C 402.801,262.66 401.134,262.494 399.5,262C 401.373,260.296 403.04,258.463 404.5,256.5 Z"/></g>
<g><path style="opacity:0.022" fill="#43443f" d="M 511.5,25.5 C 511.5,27.1667 511.5,28.8333 511.5,30.5C 477.833,63.8333 444.167,97.1667 410.5,130.5C 409.599,129.71 408.932,128.71 408.5,127.5C 442.833,93.5 477.167,59.5 511.5,25.5 Z"/></g>
<g><path style="opacity:1" fill="#fcc454" d="M 247.5,29.5 C 281.083,28.3612 301.916,44.0279 310,76.5C 311.586,108.526 297.086,129.026 266.5,138C 230.602,141.422 208.769,125.589 201,90.5C 200.112,57.5876 215.612,37.2543 247.5,29.5 Z"/></g>
<g><path style="opacity:0.022" fill="#43433f" d="M 197.5,39.5 C 195.178,43.4725 192.845,47.4725 190.5,51.5C 189.833,51.5 189.5,51.8333 189.5,52.5C 177.5,63.8333 165.833,75.5 154.5,87.5C 153.5,86.8333 152.5,86.1667 151.5,85.5C 166.5,69.8333 181.833,54.5 197.5,39.5 Z"/></g>
<g><path style="opacity:0.022" fill="#43443f" d="M 511.5,45.5 C 511.5,47.1667 511.5,48.8333 511.5,50.5C 480.833,80.8333 450.167,111.167 419.5,141.5C 418.5,141.167 417.833,140.5 417.5,139.5C 448.5,107.833 479.833,76.5 511.5,45.5 Z"/></g>
<g><path style="opacity:0.022" fill="#43433f" d="M 511.5,65.5 C 511.5,67.1667 511.5,68.8333 511.5,70.5C 483.5,97.8333 455.833,125.5 428.5,153.5C 427.094,153.027 426.427,152.027 426.5,150.5C 454.5,121.833 482.833,93.5 511.5,65.5 Z"/></g>
<g><path style="opacity:0.022" fill="#43443f" d="M 183.5,73.5 C 183.675,75.6208 183.341,77.6208 182.5,79.5C 176.167,85.1667 170.167,91.1667 164.5,97.5C 163.599,96.7095 162.932,95.7095 162.5,94.5C 169.167,87.1667 176.167,80.1667 183.5,73.5 Z"/></g>
<g><path style="opacity:0.022" fill="#43433f" d="M 511.5,85.5 C 511.5,87.1667 511.5,88.8333 511.5,90.5C 486.5,114.833 461.833,139.5 437.5,164.5C 436.167,163.833 435.167,162.833 434.5,161.5C 460.167,136.167 485.833,110.833 511.5,85.5 Z"/></g>
<g><path style="opacity:0.022" fill="#43443f" d="M 183.5,93.5 C 183.5,94.8333 183.5,96.1667 183.5,97.5C 178.833,102.833 173.833,107.833 168.5,112.5C 168.5,110.833 168.5,109.167 168.5,107.5C 173.5,102.833 178.5,98.1667 183.5,93.5 Z"/></g>
<g><path style="opacity:0.022" fill="#43443f" d="M 511.5,105.5 C 511.5,107.167 511.5,108.833 511.5,110.5C 485.833,135.833 460.167,161.167 434.5,186.5C 434.517,184.435 434.85,182.435 435.5,180.5C 460.833,155.5 486.167,130.5 511.5,105.5 Z"/></g>
<g><path style="opacity:1" fill="#f8d532" d="M 133.5,99.5 C 145.36,99.8577 151.194,105.858 151,117.5C 146.522,128.819 138.689,131.986 127.5,127C 118.024,115.294 120.024,106.128 133.5,99.5 Z"/></g>
<g><path style="opacity:0.022" fill="#43433f" d="M 187.5,109.5 C 187.833,110.833 188.167,112.167 188.5,113.5C 159.167,142.5 129.833,171.5 100.5,200.5C 99.7659,199.292 99.4326,197.959 99.5,196.5C 117.167,179.5 134.5,162.167 151.5,144.5C 152.167,144.5 152.5,144.167 152.5,143.5C 153.167,143.5 153.5,143.167 153.5,142.5C 158.167,139.833 161.833,136.167 164.5,131.5C 165.167,131.5 165.5,131.167 165.5,130.5C 172.833,123.5 180.167,116.5 187.5,109.5 Z"/></g>
<g><path style="opacity:1" fill="#fad732" d="M 372.5,100.5 C 387.837,99.6612 394.004,106.661 391,121.5C 385.199,129.873 377.699,131.707 368.5,127C 359.625,116.623 360.959,107.789 372.5,100.5 Z"/></g>
<g><path style="opacity:0.022" fill="#43433f" d="M 345.5,111.5 C 344.85,113.435 344.517,115.435 344.5,117.5C 333.167,128.5 321.833,139.5 310.5,150.5C 309.391,150.443 308.391,150.11 307.5,149.5C 319.833,136.5 332.5,123.833 345.5,111.5 Z"/></g>
<g><path style="opacity:0.022" fill="#43443f" d="M 103.5,113.5 C 103.5,115.167 103.5,116.833 103.5,118.5C 68.8333,152.833 34.1667,187.167 -0.5,221.5C -0.5,219.833 -0.5,218.167 -0.5,216.5C 34.1667,182.167 68.8333,147.833 103.5,113.5 Z"/></g>
<g><path style="opacity:0.022" fill="#43443f" d="M 193.5,123.5 C 194.906,123.973 195.573,124.973 195.5,126.5C 164.5,157.167 133.5,187.833 102.5,218.5C 102.5,216.833 102.5,215.167 102.5,213.5C 132.833,183.5 163.167,153.5 193.5,123.5 Z"/></g>
<g><path style="opacity:0.022" fill="#43443f" d="M 511.5,125.5 C 511.5,127.167 511.5,128.833 511.5,130.5C 484.833,156.833 458.167,183.167 431.5,209.5C 431.5,207.833 431.5,206.167 431.5,204.5C 458.167,178.167 484.833,151.833 511.5,125.5 Z"/></g>
<g><path style="opacity:0.022" fill="#43433f" d="M 347.5,128.5 C 348.674,129.514 349.34,130.847 349.5,132.5C 340.5,140.833 331.833,149.5 323.5,158.5C 322.167,157.833 321.167,156.833 320.5,155.5C 329.833,146.833 338.833,137.833 347.5,128.5 Z"/></g>
<g><path style="opacity:0.022" fill="#43443f" d="M 202.5,134.5 C 203.5,134.833 204.167,135.5 204.5,136.5C 171.833,169.833 138.833,202.833 105.5,235.5C 105.167,234.167 104.833,232.833 104.5,231.5C 137.167,199.167 169.833,166.833 202.5,134.5 Z"/></g>
<g><path style="opacity:0.022" fill="#43443f" d="M 356.5,140.5 C 357.5,140.833 358.167,141.5 358.5,142.5C 350.833,150.833 342.833,158.833 334.5,166.5C 333.5,166.167 332.833,165.5 332.5,164.5C 340.167,156.167 348.167,148.167 356.5,140.5 Z"/></g>
<g><path style="opacity:0.022" fill="#43443f" d="M 397.5,144.5 C 382.167,159.167 367.167,174.167 352.5,189.5C 351.326,188.486 350.66,187.153 350.5,185.5C 364.167,172.5 377.5,159.167 390.5,145.5C 391.167,145.5 391.5,145.167 391.5,144.5C 392.807,143.847 394.14,143.18 395.5,142.5C 396.522,142.855 397.189,143.522 397.5,144.5 Z"/></g>
<g><path style="opacity:0.022" fill="#43443f" d="M 511.5,145.5 C 511.5,147.167 511.5,148.833 511.5,150.5C 483.5,178.167 455.5,205.833 427.5,233.5C 427.517,231.435 427.85,229.435 428.5,227.5C 456.167,200.167 483.833,172.833 511.5,145.5 Z"/></g>
<g><path style="opacity:0.022" fill="#43433f" d="M 129.5,146.5 C 130.833,146.833 132.167,147.167 133.5,147.5C 121.833,159.833 109.833,171.833 97.5,183.5C 97.5674,182.041 97.2341,180.708 96.5,179.5C 107.833,168.833 118.833,157.833 129.5,146.5 Z"/></g>
<g><path style="opacity:0.022" fill="#43443f" d="M 369.5,146.5 C 370.708,147.234 372.041,147.567 373.5,147.5C 363.833,157.5 354.167,167.5 344.5,177.5C 343.599,176.71 342.932,175.71 342.5,174.5C 351.5,165.167 360.5,155.833 369.5,146.5 Z"/></g>
<g><path style="opacity:0.022" fill="#43433f" d="M 88.5,148.5 C 84.5251,154.149 80.5251,159.815 76.5,165.5C 50.8333,190.833 25.1667,216.167 -0.5,241.5C -0.5,239.833 -0.5,238.167 -0.5,236.5C 29.1667,207.167 58.8333,177.833 88.5,148.5 Z"/></g>
<g><path style="opacity:0.022" fill="#43433f" d="M 403.5,152.5 C 404.833,153.167 405.833,154.167 406.5,155.5C 390.5,171.167 374.5,186.833 358.5,202.5C 357.599,201.71 356.932,200.71 356.5,199.5C 372.5,184.167 388.167,168.5 403.5,152.5 Z"/></g>
<g><path style="opacity:1" fill="#c8dee3" d="M 228.5,162.5 C 246.329,161.338 264.329,161.171 282.5,162C 273.646,169.688 264.646,177.188 255.5,184.5C 246.481,177.143 237.481,169.81 228.5,162.5 Z"/></g>
<g><path style="opacity:0.022" fill="#43433f" d="M 412.5,163.5 C 413.401,164.29 414.068,165.29 414.5,166.5C 397.5,184.167 380.167,201.5 362.5,218.5C 361.566,217.432 361.232,216.099 361.5,214.5C 378.833,197.833 395.833,180.833 412.5,163.5 Z"/></g>
<g><path style="opacity:0.022" fill="#43433f" d="M 511.5,165.5 C 511.5,167.167 511.5,168.833 511.5,170.5C 482.167,199.5 452.833,228.5 423.5,257.5C 424.15,255.565 424.483,253.565 424.5,251.5C 453.5,222.833 482.5,194.167 511.5,165.5 Z"/></g>
<g><path style="opacity:1" fill="#7bb2bf" d="M 345.5,262.5 C 285.331,262.832 225.331,262.499 165.5,261.5C 165.333,249.495 165.5,237.495 166,225.5C 169.796,198.882 183.63,179.548 207.5,167.5C 220.479,177.978 233.313,188.645 246,199.5C 246.5,211.495 246.667,223.495 246.5,235.5C 252.5,235.5 258.5,235.5 264.5,235.5C 264.333,223.495 264.5,211.495 265,199.5C 277.687,188.645 290.521,177.978 303.5,167.5C 327.37,179.548 341.204,198.882 345,225.5C 345.5,237.829 345.667,250.162 345.5,262.5 Z"/></g>
<g><path style="opacity:0.022" fill="#43443f" d="M 78.5,178.5 C 78.5,180.167 78.5,181.833 78.5,183.5C 52.1667,209.5 25.8333,235.5 -0.5,261.5C -0.5,259.833 -0.5,258.167 -0.5,256.5C 25.8333,230.5 52.1667,204.5 78.5,178.5 Z"/></g>
<g><path style="opacity:0.022" fill="#43443f" d="M 416.5,180.5 C 416.675,182.621 416.341,184.621 415.5,186.5C 398.167,203.5 380.833,220.5 363.5,237.5C 363.5,235.833 363.5,234.167 363.5,232.5C 381.167,215.167 398.833,197.833 416.5,180.5 Z"/></g>
<g><path style="opacity:0.022" fill="#43443f" d="M 511.5,185.5 C 511.5,187.167 511.5,188.833 511.5,190.5C 487.167,214.167 463.167,238.167 439.5,262.5C 437.833,262.5 436.167,262.5 434.5,262.5C 459.833,236.5 485.5,210.833 511.5,185.5 Z"/></g>
<g><path style="opacity:0.022" fill="#43443f" d="M 80.5,196.5 C 81.4345,197.568 81.7678,198.901 81.5,200.5C 54.1667,227.5 26.8333,254.5 -0.5,281.5C -0.5,279.833 -0.5,278.167 -0.5,276.5C 26.5,249.833 53.5,223.167 80.5,196.5 Z"/></g>
<g><path style="opacity:0.022" fill="#43433f" d="M 413.5,203.5 C 413.167,205.5 412.833,207.5 412.5,209.5C 396.167,225.5 379.833,241.5 363.5,257.5C 363.5,255.833 363.5,254.167 363.5,252.5C 380.167,236.167 396.833,219.833 413.5,203.5 Z"/></g>
<g><path style="opacity:0.022" fill="#43433f" d="M 151.5,205.5 C 151.483,207.565 151.15,209.565 150.5,211.5C 149.833,211.5 149.5,211.833 149.5,212.5C 135.5,225.833 121.833,239.5 108.5,253.5C 107.549,252.081 107.216,250.415 107.5,248.5C 122.167,234.167 136.833,219.833 151.5,205.5 Z"/></g>
<g><path style="opacity:0.022" fill="#43443f" d="M 511.5,205.5 C 511.5,207.167 511.5,208.833 511.5,210.5C 493.833,227.5 476.5,244.833 459.5,262.5C 457.833,262.5 456.167,262.5 454.5,262.5C 473.167,243.167 492.167,224.167 511.5,205.5 Z"/></g>
<g><path style="opacity:0.022" fill="#43443f" d="M 83.5,213.5 C 83.4326,214.959 83.7659,216.292 84.5,217.5C 69.1667,232.167 54.1667,247.167 39.5,262.5C 26.1667,275.5 12.8333,288.5 -0.5,301.5C -0.5,299.833 -0.5,298.167 -0.5,296.5C 27.5,268.833 55.5,241.167 83.5,213.5 Z"/></g>
<g><path style="opacity:0.022" fill="#43443f" d="M 511.5,225.5 C 511.5,227.167 511.5,228.833 511.5,230.5C 498.167,243.5 484.833,256.5 471.5,269.5C 471.5,267.833 471.5,266.167 471.5,264.5C 484.833,251.5 498.167,238.5 511.5,225.5 Z"/></g>
<g><path style="opacity:0.022" fill="#43443f" d="M 409.5,227.5 C 409.675,229.621 409.341,231.621 408.5,233.5C 398.5,242.833 388.833,252.5 379.5,262.5C 377.833,262.5 376.167,262.5 374.5,262.5C 385.833,250.5 397.5,238.833 409.5,227.5 Z"/></g>
<g><path style="opacity:0.022" fill="#43443f" d="M 147.5,229.5 C 147.5,231.167 147.5,232.833 147.5,234.5C 137.833,243.5 128.5,252.833 119.5,262.5C 117.833,262.5 116.167,262.5 114.5,262.5C 125.167,251.167 136.167,240.167 147.5,229.5 Z"/></g>
<g><path style="opacity:0.022" fill="#43443f" d="M 86.5,230.5 C 86.5,232.167 86.5,233.833 86.5,235.5C 77.1667,244.167 68.1667,253.167 59.5,262.5C 57.8333,262.5 56.1667,262.5 54.5,262.5C 64.8333,251.5 75.5,240.833 86.5,230.5 Z"/></g>
<g><path style="opacity:0.022" fill="#43443f" d="M 511.5,245.5 C 511.5,247.167 511.5,248.833 511.5,250.5C 498.167,263.5 484.833,276.5 471.5,289.5C 471.5,287.833 471.5,286.167 471.5,284.5C 484.833,271.5 498.167,258.5 511.5,245.5 Z"/></g>
<g><path style="opacity:0.022" fill="#43433f" d="M 88.5,248.5 C 89.2341,249.708 89.5674,251.041 89.5,252.5C 85.8333,255.5 82.5,258.833 79.5,262.5C 77.8333,262.5 76.1667,262.5 74.5,262.5C 78.8333,257.5 83.5,252.833 88.5,248.5 Z"/></g>
<g><path style="opacity:0.777" fill="#517178" d="M 147.5,262.5 C 147.5,262.167 147.5,261.833 147.5,261.5C 153.5,261.5 159.5,261.5 165.5,261.5C 225.331,262.499 285.331,262.832 345.5,262.5C 279.598,263.831 213.598,263.831 147.5,262.5 Z"/></g>
<g><path style="opacity:0.022" fill="#43443f" d="M 511.5,265.5 C 511.5,267.167 511.5,268.833 511.5,270.5C 498.167,283.5 484.833,296.5 471.5,309.5C 471.5,307.833 471.5,306.167 471.5,304.5C 484.833,291.5 498.167,278.5 511.5,265.5 Z"/></g>
<g><path style="opacity:0.022" fill="#43443f" d="M 39.5,277.5 C 39.5,279.167 39.5,280.833 39.5,282.5C 26.1667,295.5 12.8333,308.5 -0.5,321.5C -0.5,319.833 -0.5,318.167 -0.5,316.5C 12.8333,303.5 26.1667,290.5 39.5,277.5 Z"/></g>
<g><path style="opacity:1" fill="#fdda33" d="M 57.5,280.5 C 189.5,280.5 321.5,280.5 453.5,280.5C 453.5,289.5 453.5,298.5 453.5,307.5C 321.5,307.5 189.5,307.5 57.5,307.5C 57.5,298.5 57.5,289.5 57.5,280.5 Z"/></g>
<g><path style="opacity:0.022" fill="#43443f" d="M 511.5,285.5 C 511.5,287.167 511.5,288.833 511.5,290.5C 488.5,313.167 465.5,335.833 442.5,358.5C 442.517,356.435 442.85,354.435 443.5,352.5C 452.833,343.833 461.833,334.833 470.5,325.5C 471.167,325.5 471.5,325.167 471.5,324.5C 484.833,311.5 498.167,298.5 511.5,285.5 Z"/></g>
<g><path style="opacity:0.022" fill="#43443f" d="M 39.5,297.5 C 39.5,299.167 39.5,300.833 39.5,302.5C 26.1667,315.5 12.8333,328.5 -0.5,341.5C -0.5,339.833 -0.5,338.167 -0.5,336.5C 12.8333,323.5 26.1667,310.5 39.5,297.5 Z"/></g>
<g><path style="opacity:0.022" fill="#43433f" d="M 511.5,305.5 C 511.5,307.167 511.5,308.833 511.5,310.5C 486.5,335.167 461.5,359.833 436.5,384.5C 437.015,382.106 437.681,379.772 438.5,377.5C 462.833,353.5 487.167,329.5 511.5,305.5 Z"/></g>
<g><path style="opacity:0.022" fill="#43443f" d="M 39.5,317.5 C 39.5,319.167 39.5,320.833 39.5,322.5C 26.1667,335.5 12.8333,348.5 -0.5,361.5C -0.5,359.833 -0.5,358.167 -0.5,356.5C 12.8333,343.5 26.1667,330.5 39.5,317.5 Z"/></g>
<g><path style="opacity:0.022" fill="#43443f" d="M 50.5,325.5 C 52.1667,325.5 53.8333,325.5 55.5,325.5C 37.1667,344.5 18.5,363.167 -0.5,381.5C -0.5,379.833 -0.5,378.167 -0.5,376.5C 16.8333,359.833 33.8333,342.833 50.5,325.5 Z"/></g>
<g><path style="opacity:1" fill="#fd9c00" d="M 80.5,325.5 C 197.167,325.5 313.833,325.5 430.5,325.5C 419.884,377.245 408.884,428.912 397.5,480.5C 302.502,481.5 207.502,481.833 112.5,481.5C 102.152,429.441 91.4855,377.441 80.5,325.5 Z"/></g>
<g><path style="opacity:0.022" fill="#43443f" d="M 511.5,325.5 C 511.5,327.167 511.5,328.833 511.5,330.5C 484.833,356.833 458.167,383.167 431.5,409.5C 431.833,407.5 432.167,405.5 432.5,403.5C 458.833,377.5 485.167,351.5 511.5,325.5 Z"/></g>
<g><path style="opacity:0.022" fill="#43433f" d="M 63.5,333.5 C 63.8333,334.833 64.1667,336.167 64.5,337.5C 42.8333,358.833 21.1667,380.167 -0.5,401.5C -0.5,399.833 -0.5,398.167 -0.5,396.5C 20.8333,375.5 42.1667,354.5 63.5,333.5 Z"/></g>
<g><path style="opacity:0.022" fill="#43433f" d="M 511.5,345.5 C 511.5,347.167 511.5,348.833 511.5,350.5C 483.167,378.5 454.833,406.5 426.5,434.5C 426.325,432.379 426.659,430.379 427.5,428.5C 455.5,400.833 483.5,373.167 511.5,345.5 Z"/></g>
<g><path style="opacity:0.022" fill="#43433f" d="M 66.5,349.5 C 67.4511,350.919 67.7845,352.585 67.5,354.5C 44.8333,376.833 22.1667,399.167 -0.5,421.5C -0.5,419.833 -0.5,418.167 -0.5,416.5C 22.1667,394.5 44.5,372.167 66.5,349.5 Z"/></g>
<g><path style="opacity:0.022" fill="#43433f" d="M 511.5,365.5 C 511.5,367.167 511.5,368.833 511.5,370.5C 481.167,400.5 450.833,430.5 420.5,460.5C 420.833,458.5 421.167,456.5 421.5,454.5C 422.167,454.5 422.5,454.167 422.5,453.5C 452.167,424.167 481.833,394.833 511.5,365.5 Z"/></g>
<g><path style="opacity:0.022" fill="#43443f" d="M 70.5,366.5 C 70.8333,367.833 71.1667,369.167 71.5,370.5C 47.5,394.167 23.5,417.833 -0.5,441.5C -0.5,439.833 -0.5,438.167 -0.5,436.5C 23.1667,413.167 46.8333,389.833 70.5,366.5 Z"/></g>
<g><path style="opacity:0.022" fill="#43433f" d="M 73.5,382.5 C 74.4511,383.919 74.7845,385.585 74.5,387.5C 49.5,412.167 24.5,436.833 -0.5,461.5C -0.5,459.833 -0.5,458.167 -0.5,456.5C 24.5,432.167 49.1667,407.5 73.5,382.5 Z"/></g>
<g><path style="opacity:0.022" fill="#43443f" d="M 511.5,385.5 C 511.5,387.167 511.5,388.833 511.5,390.5C 479.5,422.167 447.5,453.833 415.5,485.5C 415.517,483.435 415.85,481.435 416.5,479.5C 448.167,448.167 479.833,416.833 511.5,385.5 Z"/></g>
<g><path style="opacity:0.022" fill="#43443f" d="M 77.5,399.5 C 77.8333,400.833 78.1667,402.167 78.5,403.5C 52.1667,429.5 25.8333,455.5 -0.5,481.5C -0.5,479.833 -0.5,478.167 -0.5,476.5C 25.5,450.833 51.5,425.167 77.5,399.5 Z"/></g>
<g><path style="opacity:0.022" fill="#43443f" d="M 511.5,405.5 C 511.5,407.167 511.5,408.833 511.5,410.5C 477.5,443.833 443.833,477.5 410.5,511.5C 408.833,511.5 407.167,511.5 405.5,511.5C 440.5,475.833 475.833,440.5 511.5,405.5 Z"/></g>
<g><path style="opacity:0.022" fill="#43433f" d="M 80.5,415.5 C 81.4511,416.919 81.7845,418.585 81.5,420.5C 54.1667,447.5 26.8333,474.5 -0.5,501.5C -0.5,499.833 -0.5,498.167 -0.5,496.5C 26.8333,469.833 53.8333,442.833 80.5,415.5 Z"/></g>
<g><path style="opacity:0.022" fill="#43443f" d="M 511.5,425.5 C 511.5,427.167 511.5,428.833 511.5,430.5C 484.167,457.167 457.167,484.167 430.5,511.5C 428.833,511.5 427.167,511.5 425.5,511.5C 453.833,482.5 482.5,453.833 511.5,425.5 Z"/></g>
<g><path style="opacity:0.022" fill="#43443f" d="M 84.5,432.5 C 84.8333,433.833 85.1667,435.167 85.5,436.5C 60.1667,461.167 35.1667,486.167 10.5,511.5C 8.83333,511.5 7.16667,511.5 5.5,511.5C 31.5,484.833 57.8333,458.5 84.5,432.5 Z"/></g>
<g><path style="opacity:0.022" fill="#43443f" d="M 511.5,445.5 C 511.5,447.167 511.5,448.833 511.5,450.5C 490.833,470.5 470.5,490.833 450.5,511.5C 448.833,511.5 447.167,511.5 445.5,511.5C 467.167,489.167 489.167,467.167 511.5,445.5 Z"/></g>
<g><path style="opacity:0.022" fill="#43443f" d="M 87.5,448.5 C 88.4511,449.919 88.7845,451.585 88.5,453.5C 68.8333,472.5 49.5,491.833 30.5,511.5C 28.8333,511.5 27.1667,511.5 25.5,511.5C 46.1667,490.5 66.8333,469.5 87.5,448.5 Z"/></g>
<g><path style="opacity:0.022" fill="#43443f" d="M 91.5,465.5 C 91.8333,466.833 92.1667,468.167 92.5,469.5C 78.1667,483.167 64.1667,497.167 50.5,511.5C 48.8333,511.5 47.1667,511.5 45.5,511.5C 60.5,495.833 75.8333,480.5 91.5,465.5 Z"/></g>
<g><path style="opacity:0.022" fill="#43443f" d="M 511.5,465.5 C 511.5,467.167 511.5,468.833 511.5,470.5C 497.5,483.833 483.833,497.5 470.5,511.5C 468.833,511.5 467.167,511.5 465.5,511.5C 480.5,495.833 495.833,480.5 511.5,465.5 Z"/></g>
<g><path style="opacity:0.022" fill="#43443f" d="M 94.5,481.5 C 95.4511,482.919 95.7845,484.585 95.5,486.5C 86.8333,494.5 78.5,502.833 70.5,511.5C 68.8333,511.5 67.1667,511.5 65.5,511.5C 75.1667,501.5 84.8333,491.5 94.5,481.5 Z"/></g>
<g><path style="opacity:0.022" fill="#43443f" d="M 511.5,485.5 C 511.5,487.167 511.5,488.833 511.5,490.5C 504.167,497.167 497.167,504.167 490.5,511.5C 488.833,511.5 487.167,511.5 485.5,511.5C 493.833,502.5 502.5,493.833 511.5,485.5 Z"/></g>
<g><path style="opacity:0.022" fill="#43443f" d="M 98.5,498.5 C 99.209,499.404 100.209,499.737 101.5,499.5C 97.8333,503.5 94.1667,507.5 90.5,511.5C 88.8333,511.5 87.1667,511.5 85.5,511.5C 89.5,506.833 93.8333,502.5 98.5,498.5 Z"/></g>
<g><path style="opacity:0.022" fill="#43443f" d="M 116.5,499.5 C 118.167,499.5 119.833,499.5 121.5,499.5C 117.833,503.5 114.167,507.5 110.5,511.5C 108.833,511.5 107.167,511.5 105.5,511.5C 109.167,507.5 112.833,503.5 116.5,499.5 Z"/></g>
<g><path style="opacity:0.022" fill="#43443f" d="M 136.5,499.5 C 138.167,499.5 139.833,499.5 141.5,499.5C 137.833,503.5 134.167,507.5 130.5,511.5C 128.833,511.5 127.167,511.5 125.5,511.5C 129.167,507.5 132.833,503.5 136.5,499.5 Z"/></g>
<g><path style="opacity:0.022" fill="#43443f" d="M 156.5,499.5 C 158.167,499.5 159.833,499.5 161.5,499.5C 157.833,503.5 154.167,507.5 150.5,511.5C 148.833,511.5 147.167,511.5 145.5,511.5C 149.167,507.5 152.833,503.5 156.5,499.5 Z"/></g>
<g><path style="opacity:0.022" fill="#43443f" d="M 176.5,499.5 C 178.167,499.5 179.833,499.5 181.5,499.5C 177.833,503.5 174.167,507.5 170.5,511.5C 168.833,511.5 167.167,511.5 165.5,511.5C 169.167,507.5 172.833,503.5 176.5,499.5 Z"/></g>
<g><path style="opacity:0.022" fill="#43443f" d="M 196.5,499.5 C 198.167,499.5 199.833,499.5 201.5,499.5C 197.833,503.5 194.167,507.5 190.5,511.5C 188.833,511.5 187.167,511.5 185.5,511.5C 189.167,507.5 192.833,503.5 196.5,499.5 Z"/></g>
<g><path style="opacity:0.022" fill="#43443f" d="M 216.5,499.5 C 218.167,499.5 219.833,499.5 221.5,499.5C 217.833,503.5 214.167,507.5 210.5,511.5C 208.833,511.5 207.167,511.5 205.5,511.5C 209.167,507.5 212.833,503.5 216.5,499.5 Z"/></g>
<g><path style="opacity:0.022" fill="#43443f" d="M 236.5,499.5 C 238.167,499.5 239.833,499.5 241.5,499.5C 237.833,503.5 234.167,507.5 230.5,511.5C 228.833,511.5 227.167,511.5 225.5,511.5C 229.167,507.5 232.833,503.5 236.5,499.5 Z"/></g>
<g><path style="opacity:0.022" fill="#43443f" d="M 256.5,499.5 C 258.167,499.5 259.833,499.5 261.5,499.5C 257.833,503.5 254.167,507.5 250.5,511.5C 248.833,511.5 247.167,511.5 245.5,511.5C 249.167,507.5 252.833,503.5 256.5,499.5 Z"/></g>
<g><path style="opacity:0.022" fill="#43443f" d="M 276.5,499.5 C 278.167,499.5 279.833,499.5 281.5,499.5C 277.833,503.5 274.167,507.5 270.5,511.5C 268.833,511.5 267.167,511.5 265.5,511.5C 269.167,507.5 272.833,503.5 276.5,499.5 Z"/></g>
<g><path style="opacity:0.022" fill="#43443f" d="M 296.5,499.5 C 298.167,499.5 299.833,499.5 301.5,499.5C 297.833,503.5 294.167,507.5 290.5,511.5C 288.833,511.5 287.167,511.5 285.5,511.5C 289.167,507.5 292.833,503.5 296.5,499.5 Z"/></g>
<g><path style="opacity:0.022" fill="#43443f" d="M 316.5,499.5 C 318.167,499.5 319.833,499.5 321.5,499.5C 317.833,503.5 314.167,507.5 310.5,511.5C 308.833,511.5 307.167,511.5 305.5,511.5C 309.167,507.5 312.833,503.5 316.5,499.5 Z"/></g>
<g><path style="opacity:0.022" fill="#43443f" d="M 336.5,499.5 C 338.167,499.5 339.833,499.5 341.5,499.5C 337.833,503.5 334.167,507.5 330.5,511.5C 328.833,511.5 327.167,511.5 325.5,511.5C 329.167,507.5 332.833,503.5 336.5,499.5 Z"/></g>
<g><path style="opacity:0.022" fill="#43443f" d="M 356.5,499.5 C 358.167,499.5 359.833,499.5 361.5,499.5C 357.833,503.5 354.167,507.5 350.5,511.5C 348.833,511.5 347.167,511.5 345.5,511.5C 349.167,507.5 352.833,503.5 356.5,499.5 Z"/></g>
<g><path style="opacity:0.022" fill="#43443f" d="M 376.5,499.5 C 378.167,499.5 379.833,499.5 381.5,499.5C 377.833,503.5 374.167,507.5 370.5,511.5C 368.833,511.5 367.167,511.5 365.5,511.5C 369.167,507.5 372.833,503.5 376.5,499.5 Z"/></g>
<g><path style="opacity:0.022" fill="#43443f" d="M 396.5,499.5 C 398.167,499.5 399.833,499.5 401.5,499.5C 397.833,503.5 394.167,507.5 390.5,511.5C 388.833,511.5 387.167,511.5 385.5,511.5C 389.167,507.5 392.833,503.5 396.5,499.5 Z"/></g>
<g><path style="opacity:0.022" fill="#43443f" d="M 511.5,505.5 C 511.5,507.167 511.5,508.833 511.5,510.5C 510.833,510.5 510.5,510.833 510.5,511.5C 508.833,511.5 507.167,511.5 505.5,511.5C 507.167,509.167 509.167,507.167 511.5,505.5 Z"/></g>
</svg>
